<?xml version="1.0" encoding="utf-8"?>
<!-- Generator: Adobe Illustrator 28.3.0, SVG Export Plug-In . SVG Version: 6.00 Build 0)  -->
<svg version="1.1" id="Layer_1" xmlns="http://www.w3.org/2000/svg" xmlns:xlink="http://www.w3.org/1999/xlink" x="0px" y="0px"
	 viewBox="0 0 100 100" style="enable-background:new 0 0 100 100;" xml:space="preserve">
<style type="text/css">
	.st0{fill:#76E7FC;}
	.st1{fill:#FBF3F3;}
	.st2{fill:#FF415B;}
	.st3{fill:#FF884D;}
	.st4{fill:#FFBB33;}
	.st5{fill:#FFDD33;}
	.st6{fill:#6680FF;}
	.st7{fill:#80AAFF;}
	.st8{fill:#E8E3F0;}
	.st9{fill:#53E261;}
	.st10{fill:#FFBB00;}
	.st11{fill:#7CBB00;}
	.st12{fill:#00A1F1;}
	.st13{fill:#F65314;}
	.st14{fill:#1A171B;}
	.st15{fill:#A8796F;}
	.st16{fill:#DCEEF4;}
	.st17{fill:#6BDF1E;}
	.st18{fill:#FFD92C;}
	.st19{fill:#00D9FF;}
	.st20{fill:#09BEEF;}
	.st21{fill:#2AD7F6;}
	.st22{fill:#FD641A;}
	.st23{fill:#FDCBBC;}
	.st24{fill:#EDEBFD;}
	.st25{fill:#D1D1EF;}
	.st26{fill:#FADE65;}
	.st27{fill:#615285;}
	.st28{fill:#59D5FF;}
	.st29{fill:#FF8C8A;}
	.st30{fill:#09D069;}
	.st31{fill:#10AF58;}
	.st32{fill:#FEE700;}
	.st33{fill:#FECC00;}
	.st34{fill:#4BF7FF;}
	.st35{fill:#62CAF1;}
	.st36{fill:#FE2640;}
	.st37{fill:#070606;}
</style>
<g>
	<path class="st30" d="M13.19,4.06h40.83l3.8,2.14v27.28l-3.75,7.54l-2.71,4.56h-13.1l-6.11,8.56l-5.74-8.63H10.29l-4.44-1.78V7.3
		C5.85,7.3,8.43,2.13,13.19,4.06z"/>
	<path class="st31" d="M57.82,18.77C50.08,29.89,32.91,47.13,5.85,35.29v8.44l4.44,1.78h16.12l5.74,8.63l6.11-8.56h13.1l2.71-4.56
		l3.75-7.54V18.77z"/>
	<path class="st32" d="M57.82,33.48c0,0-2.72,1.52-2.46,9.29c0.26,7.77,8.92,24.66,16.71,28c7.79,3.34,8.72-0.7,9.8-3.39
		c1.07-2.69-1.71-11.04-3.35-16.44S67.82,29.8,57.82,33.48z"/>
	<path class="st33" d="M73.24,41.19c1.1,7.59,2.86,26.55-7.45,24.41c2.03,2.4,4.18,4.27,6.27,5.17c7.79,3.34,8.72-0.7,9.8-3.39
		c1.07-2.69-1.71-11.04-3.35-16.44C77.84,48.73,75.94,44.81,73.24,41.19z"/>
	<path class="st34" d="M55.05,39.04c0,0,0.29,19.63,16.4,31.73c0,0-13.24-3.37-21.32-0.45c-8.08,2.92-13.91,6.91-13.91,6.91
		s-6.67-3.88-6.58-8.55c0.1-4.67,0.48-5.91,0.48-5.91s12.7-4.92,15.59-8.62C48.59,50.44,55.05,39.04,55.05,39.04z"/>
	<path class="st35" d="M61.75,60.17c-8.47,3.81-26.95,10.9-30.78,2.26c-0.54,0.22-0.85,0.34-0.85,0.34s-0.38,1.24-0.48,5.91
		c-0.1,4.67,6.58,8.55,6.58,8.55s5.83-3.98,13.91-6.91c8.08-2.92,21.32,0.45,21.32,0.45C67.22,67.59,64.08,63.89,61.75,60.17z"/>
	<path class="st36" d="M28.27,66.92c0,0,1.78,6.07,4.32,8s-2.95,2.69-2.95,2.69s-3.99-1.09-4.4-4.58
		C24.83,69.54,27.67,66.51,28.27,66.92z"/>
	<polygon class="st36" points="38.01,77.17 42.07,82.79 49.66,76.25 48.09,72.2 	"/>
	<polygon class="st32" points="44.14,82.48 53.67,96.35 59.68,89.91 58.89,88.46 55,86.49 49.66,77.99 	"/>
	<path class="st33" d="M49.47,90.24l4.2,6.11l6.02-6.44l-0.79-1.45L55,86.49l-2.61-4.16C51.96,85,51.12,88.27,49.47,90.24z"/>
	<g>
		<path class="st37" d="M43.34,28.31c-0.82,0-1.48,0.66-1.48,1.48s0.66,1.48,1.48,1.48h6.56c0.82,0,1.48-0.66,1.48-1.48v-6.24
			c0-0.82-0.66-1.48-1.48-1.48h-5.08v-3.3h5.08c0.82,0,1.48-0.66,1.48-1.48c0-0.82-0.66-1.48-1.48-1.48h-6.56
			c-0.82,0-1.48,0.66-1.48,1.48v6.26c0,0.82,0.66,1.48,1.48,1.48h5.08v3.29H43.34z"/>
		<path class="st37" d="M31.25,15.8c-0.82,0-1.48,0.66-1.48,1.48v12.5c0,0.82,0.66,1.48,1.48,1.48h4.25c2.34,0,4.25-1.91,4.25-4.25
			v-6.96c0-2.34-1.91-4.25-4.25-4.25H31.25z M36.79,20.05v6.96c0,0.71-0.58,1.29-1.29,1.29h-2.77v-9.55h2.77
			C36.21,18.76,36.79,19.34,36.79,20.05z"/>
		<path class="st37" d="M13.79,31.5c0.74,0.34,1.62,0.02,1.96-0.72l1.56-3.38h6.28l1.56,3.38c0.25,0.54,0.78,0.86,1.34,0.86
			c0.21,0,0.42-0.04,0.62-0.14c0.74-0.34,1.07-1.22,0.72-1.96l-6.04-13.09c-0.24-0.52-0.77-0.86-1.34-0.86
			c-0.58,0-1.1,0.34-1.34,0.86l-6.04,13.09C12.72,30.28,13.05,31.16,13.79,31.5z M20.45,20.6l1.77,3.84h-3.55L20.45,20.6z"/>
		<path class="st37" d="M34.62,68.08l3.28-1.72c0.72-0.38,1-1.27,0.62-2c-0.38-0.72-1.27-1-2-0.62l-3.28,1.72
			c-0.72,0.38-1,1.27-0.62,2c0.26,0.5,0.78,0.79,1.31,0.79C34.16,68.25,34.4,68.19,34.62,68.08z"/>
		<path class="st37" d="M35.34,69.46c-0.72,0.38-1,1.27-0.62,2c0.26,0.5,0.78,0.79,1.31,0.79c0.23,0,0.47-0.05,0.68-0.17l3.28-1.72
			c0.72-0.38,1-1.27,0.62-2c-0.38-0.72-1.27-1-2-0.62L35.34,69.46z"/>
		<path class="st37" d="M93.93,38.51l-11.28,4.87c-0.75,0.32-1.09,1.19-0.77,1.94c0.24,0.56,0.79,0.89,1.36,0.89
			c0.2,0,0.39-0.04,0.59-0.12l11.28-4.87c0.75-0.32,1.09-1.19,0.77-1.94C95.55,38.53,94.68,38.18,93.93,38.51z"/>
		<path class="st37" d="M79.22,39.03c0.35,0,0.7-0.12,0.98-0.37l4.58-4.07c0.61-0.54,0.67-1.48,0.12-2.09
			c-0.54-0.61-1.48-0.67-2.09-0.12l-4.58,4.07c-0.61,0.54-0.67,1.48-0.12,2.09C78.4,38.86,78.81,39.03,79.22,39.03z"/>
		<path class="st37" d="M93.94,51.86c-0.07-0.81-0.79-1.41-1.6-1.34l-6.75,0.6c-0.81,0.07-1.41,0.79-1.34,1.6
			c0.07,0.77,0.71,1.35,1.47,1.35c0.04,0,0.09,0,0.13-0.01l6.75-0.6C93.41,53.39,94.01,52.67,93.94,51.86z"/>
		<path class="st37" d="M10.29,46.99h15.27l5.32,9.21c0.26,0.46,0.75,0.74,1.28,0.74c0.53,0,1.02-0.28,1.28-0.74l5.32-9.21h5.94
			c0.82,0,1.48-0.66,1.48-1.48c0-0.82-0.66-1.48-1.48-1.48H37.9c-0.53,0-1.02,0.28-1.28,0.74l-4.46,7.73l-4.46-7.73
			c-0.26-0.46-0.75-0.74-1.28-0.74H10.29c-1.63,0-2.96-1.33-2.96-2.96V8.51c0-1.63,1.33-2.97,2.96-2.97h43.73
			c1.63,0,2.96,1.33,2.96,2.97v23.27c0,0.17,0.03,0.33,0.08,0.48c-1.44,1.01-2.44,2.66-2.93,4.84c-1.34,3.58-5.61,13.19-14.75,19.15
			l-10.44,5.47c-0.62,0.33-1.08,0.91-1.26,1.59c-0.15,0.6-0.26,1.21-0.31,1.83c-0.25,0.1-0.5,0.2-0.74,0.33
			c-3.37,1.76-4.65,5.98-2.85,9.41c1.26,2.4,3.7,3.79,6.21,3.79c1.06,0,2.14-0.25,3.14-0.77c0.17-0.09,0.33-0.18,0.49-0.28
			c0.66,0.41,1.35,0.75,2.09,1.02c0.2,0.08,0.41,0.12,0.63,0.14l4.12,5.26c0.29,0.37,0.72,0.57,1.16,0.57
			c0.27,0,0.54-0.08,0.78-0.23l8.68,12.07c0.58,0.81,1.48,1.32,2.47,1.4c0.09,0.01,0.18,0.01,0.27,0.01c0.9,0,1.76-0.36,2.39-1
			l4.25-4.28c0.77-0.78,1.12-1.88,0.93-2.96c-0.19-1.08-0.89-2-1.88-2.47l-3.42-1.63l-5-7.27c0.5-0.45,0.64-1.18,0.32-1.78
			l-2.12-4.03L50.1,72c0.09-0.05,0.16-0.1,0.24-0.16c7.86-3.55,17.62-0.6,21.63,0.92c0.68,0.35,1.35,0.63,2.01,0.83
			c0.02,0.01,0.05,0.02,0.07,0.02c0.86,0.26,1.68,0.39,2.47,0.39c1.04,0,2.01-0.23,2.89-0.69c2.84-1.49,4.22-5.14,3.88-10.27
			c-0.31-4.72-2.03-10.27-4.84-15.64c-1.17-2.23-2.47-4.33-3.89-6.26c-4.91-6.7-10.38-10.34-14.62-9.95V8.51
			c0-3.27-2.66-5.92-5.92-5.92H10.29c-3.27,0-5.92,2.66-5.92,5.92v32.56C4.37,44.33,7.02,46.99,10.29,46.99z M62.41,48.16
			c0.31,0,0.9,0.2,1.69,0.82c1.17,0.92,2.37,2.46,3.3,4.22c0.92,1.76,1.5,3.62,1.59,5.11c0.05,0.9-0.08,1.47-0.24,1.77l-5.6-0.44
			c-0.65-1.04-1.27-2.12-1.86-3.24c-0.79-1.5-1.46-2.98-2.03-4.41L62.41,48.16z M30.5,64.23l9.59-5.02
			c-0.11,4.49,2.28,9.06,6.04,11.53l-9.59,5.02C32.23,74.05,29.46,68.76,30.5,64.23z M26.39,73.49c-0.94-1.8-0.43-3.97,1.12-5.1
			c0.46,2.65,1.73,5.18,3.58,7.14C29.31,76.06,27.31,75.25,26.39,73.49z M54.48,88l3.77,1.8c0.17,0.08,0.22,0.23,0.23,0.31
			c0.01,0.08,0.02,0.23-0.12,0.37l-4.25,4.28c-0.12,0.12-0.26,0.13-0.33,0.12c-0.07-0.01-0.21-0.04-0.31-0.17l-8.65-12.04l3.87-2.71
			l5.2,7.56C54.05,87.72,54.25,87.89,54.48,88z M48.21,76.68l-6.3,4.41l-2.67-3.4l7.44-3.9L48.21,76.68z M49.29,69.08
			C44.83,67.29,42,61.61,43.41,57c5.02-3.91,8.44-8.72,10.64-12.69c0.62,4.2,2.22,8.9,4.6,13.46c2.05,3.91,4.5,7.39,7.12,10.14
			c-0.11-0.02-0.22-0.04-0.33-0.07C59.3,66.68,53.78,67.11,49.29,69.08z M60.6,34.13c3.06,0,7.61,3.37,11.58,8.77
			c1.32,1.81,2.55,3.78,3.65,5.88c5.59,10.67,5.65,20.12,2.21,21.92c-0.81,0.43-1.85,0.45-3.04,0.11c-0.25-0.12-0.9-0.41-1.87-0.78
			c-0.81-0.43-1.65-0.99-2.53-1.69c-1.82-1.45-3.62-3.35-5.3-5.57l3.84,0.3c0.04,0,0.07,0,0.11,0c0,0,0.01,0,0.01,0
			c0.01,0,0.01,0,0.02,0c0.05,0,0.09,0,0.14-0.01c0.02,0,0.03,0,0.05-0.01c0.04-0.01,0.07-0.01,0.11-0.02
			c0.02,0,0.03-0.01,0.05-0.01c0.04-0.01,0.08-0.02,0.12-0.04c0.01,0,0.02-0.01,0.03-0.01c0.05-0.02,0.1-0.04,0.15-0.07
			c0,0,0,0,0.01,0c0.83-0.43,2.19-1.63,2-4.78c-0.12-1.92-0.8-4.16-1.92-6.31c-1.12-2.15-2.58-3.98-4.09-5.17
			c-2.46-1.94-4.22-1.52-5.05-1.09c-0.05,0.02-0.1,0.05-0.14,0.08c-0.01,0.01-0.01,0.01-0.02,0.02c-0.03,0.02-0.06,0.04-0.09,0.07
			c-0.03,0.02-0.05,0.05-0.08,0.07c-0.01,0.01-0.02,0.02-0.03,0.03c-0.04,0.04-0.07,0.08-0.11,0.12l-2.3,2.79
			c-1.35-4.42-1.65-8.24-1.1-10.86c0.28-0.78,0.42-1.27,0.45-1.37c0.02-0.07,0.03-0.14,0.04-0.2c0.39-0.86,0.92-1.48,1.57-1.83
			C59.52,34.24,60.03,34.13,60.6,34.13z"/>
		<path class="st37" d="M66.71,10.24h7.53c0.82,0,1.48-0.66,1.48-1.48c0-0.82-0.66-1.48-1.48-1.48h-7.53
			c-0.82,0-1.48,0.66-1.48,1.48C65.23,9.58,65.89,10.24,66.71,10.24z"/>
		<path class="st37" d="M66.71,17.38h23.6c0.82,0,1.48-0.66,1.48-1.48s-0.66-1.48-1.48-1.48h-23.6c-0.82,0-1.48,0.66-1.48,1.48
			S65.89,17.38,66.71,17.38z"/>
		<path class="st37" d="M66.71,24.51h23.6c0.82,0,1.48-0.66,1.48-1.48c0-0.82-0.66-1.48-1.48-1.48h-23.6
			c-0.82,0-1.48,0.66-1.48,1.48C65.23,23.85,65.89,24.51,66.71,24.51z"/>
		<path class="st37" d="M16.36,12.07c0.82,0,1.48-0.66,1.48-1.48c0-0.82-0.66-1.48-1.48-1.48h-2.45c-0.82,0-1.48,0.66-1.48,1.48
			c0,0.82,0.66,1.48,1.48,1.48H16.36z"/>
		<path class="st37" d="M44.77,40.52h2.45c0.82,0,1.48-0.66,1.48-1.48c0-0.82-0.66-1.48-1.48-1.48h-2.45
			c-0.82,0-1.48,0.66-1.48,1.48C43.29,39.86,43.95,40.52,44.77,40.52z"/>
	</g>
</g>
</svg>
