<?xml version="1.0" encoding="UTF-8"?>
<svg id="Layer_1" data-name="Layer 1" xmlns="http://www.w3.org/2000/svg" version="1.1" viewBox="0 0 100 100">
  <defs>
    <style>
      .cls-1 {
        fill: #000;
      }

      .cls-1, .cls-2, .cls-3, .cls-4, .cls-5 {
        stroke-width: 0px;
      }

      .cls-2 {
        fill: #faca44;
      }

      .cls-3 {
        fill: #e84c3d;
      }

      .cls-4 {
        fill: #fff8d1;
      }

      .cls-5 {
        fill: #00adef;
      }
    </style>
  </defs>
  <g>
    <polygon class="cls-5" points="8.12 39.46 56.54 39.46 56.54 46.97 64.09 46.97 64.09 77.03 8.12 77.03 8.12 39.46"/>
    <path class="cls-1" d="M64.09,77.83H8.12c-.44,0-.8-.36-.8-.8v-37.57c0-.44.36-.8.8-.8h48.42c.44,0,.8.36.8.8v6.71h6.75c.44,0,.8.36.8.8v30.07c0,.44-.36.8-.8.8ZM8.92,76.24h54.37v-28.47h-6.75c-.44,0-.8-.36-.8-.8v-6.71H8.92v35.98Z"/>
  </g>
  <g>
    <path class="cls-4" d="M4.43,76.97h63.33c.54,0,.98.45.98.99v2.46c0,1.91-1.55,3.47-3.46,3.47H6.92c-1.91,0-3.47-1.56-3.47-3.47v-2.46c0-.54.44-.99.98-.99Z"/>
    <path class="cls-1" d="M65.28,84.69H6.92c-2.35,0-4.26-1.92-4.26-4.27v-2.46c0-.98.8-1.79,1.77-1.79h63.33c.98,0,1.77.8,1.77,1.79v2.46c0,2.35-1.91,4.27-4.25,4.27ZM4.43,77.77c-.1,0-.18.09-.18.19v2.46c0,1.48,1.2,2.68,2.67,2.68h58.36c1.47,0,2.66-1.2,2.66-2.68v-2.46c0-.11-.08-.19-.18-.19H4.43Z"/>
  </g>
  <path class="cls-1" d="M36.11,83.2c-1.53,0-2.78-1.25-2.78-2.78s1.25-2.77,2.78-2.77,2.78,1.24,2.78,2.77-1.25,2.78-2.78,2.78ZM36.11,79.25c-.65,0-1.19.53-1.19,1.18s.53,1.19,1.19,1.19,1.19-.53,1.19-1.19-.53-1.18-1.19-1.18Z"/>
  <path class="cls-1" d="M58.88,36.41h0c-.44,0-.79-.37-.79-.81l.17-14.52c0-.16.06-.32.15-.46l6.3-8.66c.26-.35.75-.43,1.11-.17.35.26.43.76.17,1.11l-6.15,8.46-.17,14.27c0,.44-.36.79-.8.79Z"/>
  <path class="cls-1" d="M61.47,35.92c-.1,0-.2-.02-.3-.06-.41-.17-.6-.63-.43-1.04l4.99-12.07c.04-.1.11-.19.19-.27l7.69-7.35c.13-.13.3-.2.49-.22l6.65-.52c.43-.03.82.29.86.73.03.44-.29.82-.73.86l-6.37.5-7.37,7.04-4.93,11.91c-.13.31-.42.49-.73.49Z"/>
  <path class="cls-1" d="M64.44,36.07c-.13,0-.27-.03-.4-.11-.38-.22-.51-.71-.29-1.09l5.51-9.54c.05-.08.11-.16.19-.22l6.56-5.33c.14-.11.31-.17.48-.18l15.12-.36s.01,0,.02,0c.43,0,.78.34.79.78.01.44-.34.8-.78.81l-14.85.35-6.24,5.06-5.44,9.42c-.15.25-.41.4-.69.4Z"/>
  <path class="cls-1" d="M80.81,27.23s-.04,0-.05,0l-10.85-.71c-.44-.03-.77-.41-.74-.84s.45-.77.84-.74l10.85.71c.44.03.77.41.74.84-.03.42-.38.74-.79.74Z"/>
  <path class="cls-1" d="M68.04,39.2c-.3,0-.59-.17-.73-.47-.18-.4,0-.87.4-1.05l12.86-5.78c.09-.04.19-.06.28-.07l12.94-.69c.46,0,.81.31.84.75.02.44-.31.81-.75.84l-12.79.68-12.72,5.72c-.11.05-.22.07-.33.07Z"/>
  <path class="cls-1" d="M75.11,44.52h-7.07c-.44,0-.8-.36-.8-.8s.36-.8.8-.8h6.88l9.11-4.56c.4-.2.87-.04,1.07.35.2.39.04.87-.35,1.07l-9.28,4.65c-.11.05-.23.08-.36.08Z"/>
  <path class="cls-1" d="M77.97,47.47c-.23,0-.45-.1-.6-.28l-2.63-3.06c-.29-.33-.25-.84.08-1.12.33-.29.83-.25,1.12.08l2.38,2.78,4-.09s.01,0,.02,0c.43,0,.78.35.79.78.01.44-.34.8-.78.81l-4.37.1s-.01,0-.02,0Z"/>
  <g>
    <rect class="cls-4" x="56.54" y="35.26" width="11.5" height="11.65"/>
    <path class="cls-1" d="M68.04,47.7h-11.5c-.44,0-.8-.36-.8-.8v-11.65c0-.44.36-.8.8-.8h11.5c.44,0,.8.36.8.8v11.65c0,.44-.36.8-.8.8ZM57.34,46.11h9.9v-10.06h-9.9v10.06Z"/>
  </g>
  <path class="cls-1" d="M64.41,44.03h-4.25c-.44,0-.8-.36-.8-.8v-4.31c0-.44.36-.8.8-.8h4.25c.44,0,.8.36.8.8v4.31c0,.44-.36.8-.8.8ZM60.96,42.44h2.65v-2.72h-2.65v2.72Z"/>
  <path class="cls-1" d="M49.62,46.29h-27.04c-.44,0-.8-.36-.8-.8s.36-.8.8-.8h27.04c.44,0,.8.36.8.8s-.36.8-.8.8Z"/>
  <path class="cls-1" d="M26.96,52.67h-4.39c-.44,0-.8-.36-.8-.8s.36-.8.8-.8h4.39c.44,0,.8.36.8.8s-.36.8-.8.8Z"/>
  <path class="cls-1" d="M33.71,59.05h-11.14c-.44,0-.8-.36-.8-.8s.36-.8.8-.8h11.14c.44,0,.8.36.8.8s-.36.8-.8.8Z"/>
  <path class="cls-1" d="M49.62,65.42h-5.76c-.44,0-.8-.36-.8-.8s.36-.8.8-.8h5.76c.44,0,.8.36.8.8s-.36.8-.8.8Z"/>
  <path class="cls-1" d="M49.62,71.8h-27.04c-.44,0-.8-.36-.8-.8s.36-.8.8-.8h27.04c.44,0,.8.36.8.8s-.36.8-.8.8Z"/>
  <path class="cls-1" d="M49.62,52.67h-16.53c-.44,0-.8-.36-.8-.8s.36-.8.8-.8h16.53c.44,0,.8.36.8.8s-.36.8-.8.8Z"/>
  <path class="cls-1" d="M49.62,59.05h-9.77c-.44,0-.8-.36-.8-.8s.36-.8.8-.8h9.77c.44,0,.8.36.8.8s-.36.8-.8.8Z"/>
  <path class="cls-1" d="M29.13,65.42h-6.55c-.44,0-.8-.36-.8-.8s.36-.8.8-.8h6.55c.44,0,.8.36.8.8s-.36.8-.8.8Z"/>
  <path class="cls-1" d="M38.37,65.42h-3.63c-.44,0-.8-.36-.8-.8s.36-.8.8-.8h3.63c.44,0,.8.36.8.8s-.36.8-.8.8Z"/>
  <g>
    <path class="cls-3" d="M66.55,7.91c1.38,0,2.49,1.12,2.49,2.49s-1.11,2.49-2.49,2.49-2.49-1.12-2.49-2.49,1.12-2.49,2.49-2.49Z"/>
    <path class="cls-1" d="M66.55,13.69c-1.81,0-3.28-1.47-3.28-3.29s1.47-3.29,3.28-3.29,3.28,1.48,3.28,3.29-1.47,3.29-3.28,3.29ZM66.55,8.7c-.93,0-1.69.76-1.69,1.7s.76,1.7,1.69,1.7,1.69-.76,1.69-1.7-.76-1.7-1.69-1.7Z"/>
  </g>
  <g>
    <path class="cls-2" d="M83.19,12.46c1.38,0,2.49,1.12,2.49,2.49s-1.12,2.49-2.49,2.49-2.48-1.11-2.48-2.49,1.1-2.49,2.48-2.49Z"/>
    <path class="cls-1" d="M83.19,18.23c-1.8,0-3.27-1.47-3.27-3.28s1.47-3.29,3.27-3.29,3.29,1.47,3.29,3.29-1.48,3.28-3.29,3.28ZM83.19,13.25c-.93,0-1.68.76-1.68,1.7s.75,1.69,1.68,1.69,1.7-.76,1.7-1.69-.76-1.7-1.7-1.7Z"/>
  </g>
  <g>
    <path class="cls-5" d="M94.13,17.56c1.38,0,2.49,1.1,2.49,2.48s-1.11,2.49-2.49,2.49-2.49-1.11-2.49-2.49,1.11-2.48,2.49-2.48Z"/>
    <path class="cls-1" d="M94.13,23.33c-1.81,0-3.28-1.47-3.28-3.29s1.47-3.27,3.28-3.27,3.28,1.47,3.28,3.27-1.47,3.29-3.28,3.29ZM94.13,18.36c-.93,0-1.69.76-1.69,1.68s.76,1.69,1.69,1.69,1.69-.76,1.69-1.69-.76-1.68-1.69-1.68Z"/>
  </g>
  <g>
    <path class="cls-5" d="M83.28,23.94c1.38,0,2.49,1.12,2.49,2.49s-1.11,2.48-2.49,2.48-2.49-1.1-2.49-2.48,1.12-2.49,2.49-2.49Z"/>
    <path class="cls-1" d="M83.28,29.71c-1.81,0-3.28-1.47-3.28-3.27s1.47-3.29,3.28-3.29,3.29,1.47,3.29,3.29-1.47,3.27-3.29,3.27ZM83.28,24.74c-.93,0-1.69.76-1.69,1.7s.76,1.68,1.69,1.68,1.7-.76,1.7-1.68-.76-1.7-1.7-1.7Z"/>
  </g>
  <g>
    <path class="cls-5" d="M86.42,35.23c1.38,0,2.49,1.11,2.49,2.49s-1.11,2.48-2.49,2.48-2.49-1.11-2.49-2.48,1.11-2.49,2.49-2.49Z"/>
    <path class="cls-1" d="M86.42,41c-1.81,0-3.28-1.47-3.28-3.27s1.47-3.29,3.28-3.29,3.28,1.47,3.28,3.29-1.47,3.27-3.28,3.27ZM86.42,36.03c-.93,0-1.69.76-1.69,1.69s.76,1.68,1.69,1.68,1.69-.75,1.69-1.68-.76-1.69-1.69-1.69Z"/>
  </g>
  <g>
    <path class="cls-3" d="M84.81,43.89c1.37,0,2.49,1.1,2.49,2.48s-1.11,2.49-2.49,2.49-2.49-1.12-2.49-2.49,1.13-2.48,2.49-2.48Z"/>
    <path class="cls-1" d="M84.81,49.66c-1.81,0-3.29-1.48-3.29-3.29s1.47-3.27,3.29-3.27,3.28,1.47,3.28,3.27-1.47,3.29-3.28,3.29ZM84.81,44.69c-.94,0-1.7.75-1.7,1.68s.76,1.7,1.7,1.7,1.69-.76,1.69-1.7-.76-1.68-1.69-1.68Z"/>
  </g>
  <g>
    <path class="cls-2" d="M96.21,28.71c1.36,0,2.48,1.12,2.48,2.49s-1.12,2.49-2.48,2.49-2.49-1.12-2.49-2.49,1.11-2.49,2.49-2.49Z"/>
    <path class="cls-1" d="M96.21,34.49c-1.81,0-3.28-1.48-3.28-3.29s1.47-3.29,3.28-3.29,3.27,1.47,3.27,3.29-1.47,3.29-3.27,3.29ZM96.21,29.51c-.93,0-1.69.76-1.69,1.7s.76,1.7,1.69,1.7,1.68-.76,1.68-1.7-.76-1.7-1.68-1.7Z"/>
  </g>
</svg>