<?xml version="1.0" encoding="UTF-8"?>
<svg id="Layer_1" data-name="Layer 1" xmlns="http://www.w3.org/2000/svg" version="1.1" viewBox="0 0 100 100">
  <defs>
    <style>
      .cls-1 {
        fill: #a3d6e8;
      }

      .cls-1, .cls-2, .cls-3, .cls-4, .cls-5, .cls-6, .cls-7 {
        stroke-width: 0px;
      }

      .cls-2 {
        fill: #08416b;
      }

      .cls-3 {
        fill: #d0edf7;
      }

      .cls-4 {
        fill: #fff;
      }

      .cls-5 {
        fill: #b53569;
      }

      .cls-6 {
        fill: #11a8bc;
      }

      .cls-7 {
        fill: #b66b86;
      }
    </style>
  </defs>
  <polygon class="cls-4" points="21.79 22.26 21.79 62.89 30.64 62.89 71.28 22.26 21.79 22.26"/>
  <polygon class="cls-3" points="79.11 22.26 71.28 22.26 30.64 62.89 79.11 62.89 79.11 22.26"/>
  <path class="cls-2" d="M14.82,15.29v54.57h71.26V15.29H14.82ZM79.12,62.89H21.79V22.26h57.32v40.63Z"/>
  <polygon class="cls-4" points="86.08 69.86 50.45 69.86 14.82 69.86 2.45 82.02 98.45 82.02 86.08 69.86"/>
  <polygon class="cls-2" points="2.45 82.02 2.45 86.55 50.45 86.55 98.45 86.55 98.45 82.02 2.45 82.02"/>
  <polygon class="cls-2" points="58.44 75.27 50.45 75.27 42.47 75.27 40.58 79.42 50.45 79.42 60.32 79.42 58.44 75.27"/>
  <rect class="cls-1" x="35.21" y="29.27" width="1.94" height="6.48"/>
  <rect class="cls-2" x="43.42" y="29.27" width="1.95" height="6.48"/>
  <rect class="cls-7" x="63.96" y="29.27" width="1.95" height="6.48"/>
  <rect class="cls-2" x="72.17" y="29.27" width="1.94" height="6.48"/>
  <rect class="cls-2" x="51.64" y="39.35" width="1.94" height="6.48"/>
  <rect class="cls-2" x="59.85" y="39.35" width="1.95" height="6.48"/>
  <rect class="cls-2" x="72.17" y="39.35" width="1.94" height="6.48"/>
  <rect class="cls-7" x="27" y="49.43" width="1.94" height="6.48" transform="translate(-.06 .03) rotate(-.06)"/>
  <rect class="cls-6" x="28.84" y="51.69" width="6.48" height="1.94" transform="translate(-20.63 84.68) rotate(-89.94)"/>
  <rect class="cls-2" x="68.06" y="49.43" width="1.95" height="6.48"/>
  <rect class="cls-6" x="72.17" y="49.43" width="1.94" height="6.48"/>
  <path class="cls-1" d="M30.05,29.25c-1.8,0-3.26,1.46-3.26,3.27s1.46,3.26,3.26,3.26c1.8,0,3.27-1.46,3.27-3.26s-1.46-3.27-3.27-3.27ZM30.05,34.23c-.95,0-1.72-.77-1.72-1.71s.77-1.72,1.72-1.72,1.72.77,1.72,1.72-.77,1.71-1.72,1.71Z"/>
  <path class="cls-6" d="M50.56,29.25c-1.8,0-3.27,1.46-3.27,3.27,0,1.8,1.46,3.27,3.27,3.26,1.8,0,3.27-1.46,3.27-3.26s-1.46-3.27-3.27-3.27ZM50.56,34.23c-.95,0-1.71-.77-1.71-1.71s.77-1.72,1.71-1.72,1.71.77,1.71,1.72-.77,1.71-1.71,1.71Z"/>
  <path class="cls-2" d="M58.69,29.25c-1.8,0-3.27,1.46-3.27,3.27s1.46,3.26,3.27,3.27c1.8,0,3.26-1.46,3.26-3.27s-1.46-3.27-3.26-3.27ZM58.69,34.23c-.95,0-1.72-.77-1.72-1.71s.77-1.72,1.72-1.72,1.71.77,1.71,1.72-.77,1.71-1.71,1.71Z"/>
  <path class="cls-6" d="M66.98,39.32c-1.8,0-3.27,1.46-3.27,3.27s1.46,3.27,3.27,3.27,3.27-1.46,3.27-3.27-1.46-3.27-3.27-3.27ZM66.98,44.3c-.95,0-1.72-.77-1.72-1.71s.77-1.71,1.72-1.71,1.72.77,1.72,1.71-.77,1.71-1.72,1.71Z"/>
  <path class="cls-2" d="M46.33,49.38c-1.8,0-3.27,1.46-3.27,3.26s1.46,3.27,3.27,3.27,3.26-1.46,3.26-3.27-1.46-3.26-3.27-3.26ZM46.33,54.36c-.95,0-1.71-.77-1.71-1.72s.77-1.71,1.71-1.71,1.72.77,1.72,1.71-.77,1.72-1.72,1.72Z"/>
  <rect class="cls-6" x="26.78" y="39.35" width="18.59" height="6.48"/>
  <rect class="cls-5" x="51.64" y="49.43" width="6.05" height="6.48"/>
</svg>