<?xml version="1.0" encoding="utf-8"?>
<!-- Generator: Adobe Illustrator 28.3.0, SVG Export Plug-In . SVG Version: 6.00 Build 0)  -->
<svg version="1.1" id="Layer_1" xmlns="http://www.w3.org/2000/svg" xmlns:xlink="http://www.w3.org/1999/xlink" x="0px" y="0px"
	 viewBox="0 0 100 100" style="enable-background:new 0 0 100 100;" xml:space="preserve">
<style type="text/css">
	.st0{fill:#76E7FC;}
	.st1{fill:#FBF3F3;}
	.st2{fill:#FF415B;}
	.st3{fill:#FF884D;}
	.st4{fill:#FFBB33;}
	.st5{fill:#FFDD33;}
	.st6{fill:#6680FF;}
	.st7{fill:#80AAFF;}
	.st8{fill:#E8E3F0;}
	.st9{fill:#53E261;}
	.st10{fill:#FFBB00;}
	.st11{fill:#7CBB00;}
	.st12{fill:#00A1F1;}
	.st13{fill:#F65314;}
	.st14{fill:#1A171B;}
	.st15{fill:#A8796F;}
	.st16{fill:#DCEEF4;}
	.st17{fill:#6BDF1E;}
	.st18{fill:#FFD92C;}
	.st19{fill:#00D9FF;}
	.st20{fill:#474747;}
	.st21{fill:#6E6E6E;}
	.st22{opacity:0.7;fill:#474747;}
	.st23{fill:#FFFFFF;}
</style>
<g>
	<rect x="1" y="0.87" class="st20" width="98" height="98.85"/>
	<rect x="6.01" y="5.92" class="st21" width="87.98" height="88.74"/>
	<rect x="5.24" y="5.14" class="st22" width="89.53" height="90.31"/>
	<g>
		<g>
			<rect x="7.04" y="7.13" class="st23" width="10.65" height="10.79"/>
			<rect x="28.55" y="7.13" class="st23" width="10.65" height="10.79"/>
			<rect x="50.05" y="7.13" class="st23" width="10.65" height="10.79"/>
			<rect x="71.56" y="7.13" class="st23" width="10.65" height="10.79"/>
			<rect x="17.79" y="7.13" class="st20" width="10.65" height="10.79"/>
			<rect x="39.3" y="7.13" class="st20" width="10.65" height="10.79"/>
			<rect x="60.81" y="7.13" class="st20" width="10.65" height="10.79"/>
			<rect x="82.32" y="7.13" class="st20" width="10.65" height="10.79"/>
		</g>
		<g>
			<rect x="7.04" y="17.92" class="st20" width="10.65" height="10.79"/>
			<rect x="28.55" y="17.92" class="st20" width="10.65" height="10.79"/>
			<rect x="50.05" y="17.92" class="st20" width="10.65" height="10.79"/>
			<rect x="71.56" y="17.92" class="st20" width="10.65" height="10.79"/>
			<rect x="17.79" y="17.92" class="st23" width="10.65" height="10.79"/>
			<rect x="39.3" y="17.92" class="st23" width="10.65" height="10.79"/>
			<rect x="60.81" y="17.92" class="st23" width="10.65" height="10.79"/>
			<rect x="82.32" y="17.92" class="st23" width="10.65" height="10.79"/>
		</g>
		<g>
			<rect x="7.04" y="28.71" class="st23" width="10.65" height="10.79"/>
			<rect x="28.55" y="28.71" class="st23" width="10.65" height="10.79"/>
			<rect x="50.05" y="28.71" class="st23" width="10.65" height="10.79"/>
			<rect x="71.56" y="28.71" class="st23" width="10.65" height="10.79"/>
			<rect x="17.79" y="28.71" class="st20" width="10.65" height="10.79"/>
			<rect x="39.3" y="28.71" class="st20" width="10.65" height="10.79"/>
			<rect x="60.81" y="28.71" class="st20" width="10.65" height="10.79"/>
			<rect x="82.32" y="28.71" class="st20" width="10.65" height="10.79"/>
		</g>
		<g>
			<rect x="7.04" y="39.5" class="st20" width="10.65" height="10.79"/>
			<rect x="28.55" y="39.5" class="st20" width="10.65" height="10.79"/>
			<rect x="50.05" y="39.5" class="st20" width="10.65" height="10.79"/>
			<rect x="71.56" y="39.5" class="st20" width="10.65" height="10.79"/>
			<rect x="17.79" y="39.5" class="st23" width="10.65" height="10.79"/>
			<rect x="39.3" y="39.5" class="st23" width="10.65" height="10.79"/>
			<rect x="60.81" y="39.5" class="st23" width="10.65" height="10.79"/>
			<rect x="82.32" y="39.5" class="st23" width="10.65" height="10.79"/>
		</g>
		<g>
			<rect x="7.04" y="50.29" class="st23" width="10.65" height="10.79"/>
			<rect x="28.55" y="50.29" class="st23" width="10.65" height="10.79"/>
			<rect x="50.05" y="50.29" class="st23" width="10.65" height="10.79"/>
			<rect x="71.56" y="50.29" class="st23" width="10.65" height="10.79"/>
			<rect x="17.79" y="50.29" class="st20" width="10.65" height="10.79"/>
			<rect x="39.3" y="50.29" class="st20" width="10.65" height="10.79"/>
			<rect x="60.81" y="50.29" class="st20" width="10.65" height="10.79"/>
			<rect x="82.32" y="50.29" class="st20" width="10.65" height="10.79"/>
		</g>
		<g>
			<rect x="7.04" y="61.08" class="st20" width="10.65" height="10.79"/>
			<rect x="28.55" y="61.08" class="st20" width="10.65" height="10.79"/>
			<rect x="50.05" y="61.08" class="st20" width="10.65" height="10.79"/>
			<rect x="71.56" y="61.08" class="st20" width="10.65" height="10.79"/>
			<rect x="17.79" y="61.08" class="st23" width="10.65" height="10.79"/>
			<rect x="39.3" y="61.08" class="st23" width="10.65" height="10.79"/>
			<rect x="60.81" y="61.08" class="st23" width="10.65" height="10.79"/>
			<rect x="82.32" y="61.08" class="st23" width="10.65" height="10.79"/>
		</g>
		<g>
			<rect x="7.04" y="71.88" class="st23" width="10.65" height="10.79"/>
			<rect x="28.55" y="71.88" class="st23" width="10.65" height="10.79"/>
			<rect x="50.05" y="71.88" class="st23" width="10.65" height="10.79"/>
			<rect x="71.56" y="71.88" class="st23" width="10.65" height="10.79"/>
			<rect x="17.79" y="71.88" class="st20" width="10.65" height="10.79"/>
			<rect x="39.3" y="71.88" class="st20" width="10.65" height="10.79"/>
			<rect x="60.81" y="71.88" class="st20" width="10.65" height="10.79"/>
			<rect x="82.32" y="71.88" class="st20" width="10.65" height="10.79"/>
		</g>
		<g>
			<rect x="7.04" y="82.67" class="st20" width="10.65" height="10.79"/>
			<rect x="28.55" y="82.67" class="st20" width="10.65" height="10.79"/>
			<rect x="50.05" y="82.67" class="st20" width="10.65" height="10.79"/>
			<rect x="71.56" y="82.67" class="st20" width="10.65" height="10.79"/>
			<rect x="17.79" y="82.67" class="st23" width="10.65" height="10.79"/>
			<rect x="39.3" y="82.67" class="st23" width="10.65" height="10.79"/>
			<rect x="60.81" y="82.67" class="st23" width="10.65" height="10.79"/>
			<rect x="82.32" y="82.67" class="st23" width="10.65" height="10.79"/>
		</g>
	</g>
	<g>
		<g>
			<path class="st23" d="M11.04,96.94c0.12,0.09,0.18,0.24,0.18,0.45v0.96c0,0.04,0.01,0.08,0.03,0.1c0.02,0.02,0.05,0.03,0.09,0.03
				c0.06,0,0.09,0.03,0.09,0.09c0,0.06-0.03,0.09-0.09,0.09c-0.13,0-0.21-0.01-0.25-0.04c-0.04-0.02-0.06-0.07-0.07-0.15
				c-0.03,0.06-0.09,0.11-0.17,0.15c-0.1,0.05-0.22,0.08-0.35,0.08c-0.14,0-0.26-0.05-0.35-0.14c-0.1-0.1-0.14-0.22-0.14-0.37
				c0-0.11,0.04-0.21,0.11-0.31c0.09-0.12,0.21-0.19,0.38-0.22c0.22-0.05,0.36-0.08,0.43-0.12c0.06-0.03,0.09-0.06,0.09-0.1
				c0-0.16-0.02-0.27-0.07-0.34c-0.05-0.07-0.14-0.1-0.27-0.1c-0.12,0-0.22,0.03-0.29,0.09c-0.06,0.05-0.09,0.12-0.1,0.21
				c0,0.03-0.02,0.05-0.04,0.07c-0.02,0.01-0.05,0.02-0.07,0.02c-0.03,0-0.05-0.01-0.07-0.03c-0.02-0.02-0.02-0.05-0.02-0.08
				c0.02-0.14,0.09-0.25,0.2-0.34c0.1-0.08,0.23-0.12,0.39-0.12C10.83,96.83,10.95,96.87,11.04,96.94z M11.02,97.7L11.02,97.7
				c-0.03,0.02-0.06,0.04-0.1,0.05c-0.05,0.02-0.19,0.05-0.39,0.09c-0.08,0.02-0.15,0.05-0.2,0.09c-0.08,0.06-0.12,0.15-0.12,0.26
				c0,0.08,0.02,0.15,0.07,0.22c0.06,0.08,0.15,0.12,0.25,0.12c0.13,0,0.24-0.04,0.34-0.12c0.09-0.07,0.14-0.14,0.14-0.21V97.7z"/>
		</g>
		<g>
			<path class="st23" d="M21.01,96.2c0.02-0.02,0.04-0.03,0.07-0.03c0.03,0,0.05,0.01,0.07,0.02c0.02,0.02,0.03,0.05,0.03,0.08v0.86
				c0.07-0.1,0.14-0.18,0.22-0.23c0.08-0.05,0.16-0.07,0.25-0.07c0.22,0,0.38,0.1,0.51,0.29c0.11,0.17,0.17,0.39,0.17,0.65
				c0,0.26-0.06,0.47-0.17,0.65c-0.12,0.19-0.29,0.29-0.51,0.29c-0.1,0-0.2-0.03-0.29-0.09c-0.08-0.05-0.14-0.11-0.18-0.19v0.14
				c0,0.03-0.01,0.06-0.03,0.08c-0.02,0.02-0.04,0.03-0.07,0.03c-0.03,0-0.05-0.01-0.07-0.02c-0.02-0.02-0.03-0.05-0.03-0.08v-2.29
				C20.98,96.25,20.99,96.22,21.01,96.2z M21.3,97.25c-0.08,0.14-0.11,0.31-0.11,0.52c0,0.21,0.04,0.38,0.11,0.52
				c0.08,0.16,0.2,0.23,0.36,0.23c0.15,0,0.27-0.08,0.35-0.23c0.08-0.14,0.11-0.31,0.11-0.52c0-0.21-0.04-0.39-0.11-0.52
				c-0.08-0.16-0.2-0.23-0.35-0.23C21.5,97.02,21.38,97.09,21.3,97.25z"/>
		</g>
		<g>
			<path class="st23" d="M33.11,96.99c0.11,0.1,0.17,0.21,0.19,0.34c0,0.03-0.01,0.06-0.03,0.08c-0.02,0.02-0.04,0.03-0.07,0.04
				c-0.03,0-0.05,0-0.08-0.02c-0.02-0.02-0.04-0.04-0.04-0.08c-0.02-0.1-0.06-0.18-0.14-0.24c-0.08-0.07-0.17-0.1-0.27-0.1
				c-0.15,0-0.28,0.08-0.37,0.23c-0.08,0.14-0.12,0.32-0.12,0.52c0,0.21,0.04,0.39,0.12,0.53c0.09,0.15,0.21,0.22,0.37,0.22
				c0.12,0,0.22-0.04,0.29-0.11c0.08-0.07,0.13-0.18,0.14-0.32c0-0.04,0.02-0.07,0.04-0.09c0.02-0.02,0.05-0.02,0.08-0.02
				c0.03,0,0.06,0.02,0.08,0.04c0.02,0.02,0.03,0.05,0.03,0.09c-0.02,0.18-0.09,0.32-0.2,0.43c-0.12,0.11-0.26,0.16-0.45,0.16
				c-0.24,0-0.42-0.09-0.54-0.28c-0.11-0.17-0.17-0.39-0.17-0.65c0-0.26,0.06-0.47,0.18-0.65c0.13-0.19,0.31-0.29,0.53-0.29
				C32.85,96.83,32.99,96.88,33.11,96.99z"/>
		</g>
		<g>
			<path class="st23" d="M44.29,98.57c0,0.04-0.01,0.06-0.03,0.08c-0.02,0.02-0.04,0.02-0.07,0.02c-0.03,0-0.05-0.01-0.07-0.03
				c-0.02-0.02-0.03-0.05-0.03-0.08v-0.14c-0.05,0.08-0.11,0.14-0.19,0.19c-0.09,0.06-0.18,0.09-0.28,0.09
				c-0.22,0-0.39-0.1-0.51-0.29c-0.11-0.17-0.16-0.39-0.16-0.65c0-0.26,0.05-0.48,0.16-0.65c0.12-0.19,0.29-0.29,0.51-0.29
				c0.09,0,0.18,0.02,0.25,0.07c0.08,0.05,0.15,0.12,0.22,0.23v-0.86c0-0.03,0.01-0.06,0.03-0.08c0.02-0.02,0.04-0.02,0.07-0.02
				c0.03,0,0.05,0.01,0.07,0.03c0.02,0.02,0.03,0.05,0.03,0.08V98.57z M43.26,97.25c-0.07,0.14-0.11,0.31-0.11,0.52
				c0,0.21,0.04,0.38,0.11,0.52c0.09,0.16,0.21,0.23,0.36,0.23c0.15,0,0.27-0.08,0.36-0.23c0.08-0.14,0.11-0.31,0.11-0.52
				c0-0.21-0.04-0.39-0.11-0.52c-0.08-0.16-0.2-0.23-0.36-0.23C43.46,97.02,43.34,97.09,43.26,97.25z"/>
		</g>
		<g>
			<path class="st23" d="M55.1,98.08c0.03-0.01,0.05-0.01,0.08,0c0.03,0.01,0.05,0.03,0.06,0.05c0.01,0.03,0.01,0.06,0,0.09
				c-0.07,0.15-0.15,0.27-0.27,0.35c-0.11,0.08-0.24,0.13-0.39,0.13c-0.21,0-0.39-0.1-0.52-0.29c-0.12-0.18-0.18-0.39-0.18-0.64
				c0-0.26,0.06-0.47,0.18-0.65c0.13-0.19,0.3-0.29,0.52-0.29c0.21,0,0.38,0.1,0.52,0.29c0.12,0.18,0.18,0.4,0.18,0.65v0.05H54.1
				c0.01,0.18,0.05,0.34,0.13,0.47c0.09,0.15,0.21,0.23,0.36,0.23c0.11,0,0.21-0.04,0.28-0.12c0.06-0.06,0.12-0.14,0.17-0.26
				C55.05,98.12,55.07,98.09,55.1,98.08z M55.07,97.64c-0.01-0.15-0.05-0.29-0.13-0.41c-0.09-0.14-0.21-0.22-0.35-0.22
				c-0.14,0-0.26,0.07-0.35,0.21c-0.07,0.12-0.12,0.26-0.13,0.41H55.07z"/>
		</g>
		<g>
			<path class="st23" d="M65.41,96.49c0-0.09,0.03-0.16,0.08-0.22c0.06-0.07,0.13-0.1,0.24-0.1h0.13c0.03,0,0.06,0.01,0.08,0.03
				c0.02,0.02,0.03,0.04,0.03,0.06c0,0.02-0.01,0.05-0.03,0.06c-0.02,0.02-0.05,0.03-0.08,0.03h-0.09c-0.05,0-0.08,0.02-0.11,0.05
				c-0.02,0.03-0.04,0.06-0.04,0.11v0.38h0.24c0.03,0,0.06,0.01,0.08,0.03c0.02,0.02,0.03,0.04,0.03,0.06s-0.01,0.05-0.03,0.06
				c-0.02,0.02-0.05,0.03-0.08,0.03h-0.24v1.53c0,0.03-0.01,0.06-0.03,0.08c-0.02,0.02-0.04,0.03-0.07,0.03
				c-0.03,0-0.05-0.01-0.07-0.03c-0.02-0.02-0.03-0.05-0.03-0.09v-1.53h-0.16c-0.03,0-0.06-0.01-0.08-0.03
				c-0.02-0.02-0.03-0.04-0.03-0.06s0.01-0.05,0.03-0.06c0.02-0.02,0.05-0.03,0.08-0.03h0.16V96.49z"/>
		</g>
		<g>
			<path class="st23" d="M77.05,96.88c0.02-0.02,0.04-0.02,0.07-0.02c0.03,0,0.05,0.01,0.07,0.02c0.02,0.02,0.03,0.04,0.03,0.07v1.6
				c0,0.15-0.06,0.28-0.18,0.39c-0.13,0.12-0.3,0.18-0.51,0.18c-0.14,0-0.26-0.03-0.37-0.08c-0.12-0.06-0.21-0.14-0.26-0.25
				c-0.02-0.03-0.02-0.06-0.01-0.08c0.01-0.02,0.02-0.04,0.05-0.06c0.02-0.02,0.05-0.02,0.07-0.01c0.03,0,0.05,0.02,0.06,0.05
				c0.04,0.08,0.1,0.14,0.17,0.19c0.08,0.05,0.18,0.07,0.29,0.07c0.15,0,0.26-0.04,0.36-0.12c0.08-0.07,0.13-0.16,0.13-0.26v-0.19
				c-0.05,0.08-0.11,0.14-0.19,0.19c-0.09,0.06-0.19,0.09-0.29,0.09c-0.22,0-0.39-0.09-0.52-0.28c-0.12-0.17-0.18-0.38-0.18-0.63
				c0-0.24,0.06-0.45,0.18-0.62c0.13-0.19,0.3-0.29,0.52-0.29c0.1,0,0.19,0.02,0.27,0.07c0.09,0.05,0.16,0.13,0.21,0.23v-0.17
				C77.02,96.92,77.03,96.9,77.05,96.88z M76.17,97.24c-0.08,0.14-0.12,0.31-0.12,0.5c0,0.2,0.04,0.37,0.12,0.51
				c0.09,0.15,0.21,0.22,0.36,0.22c0.15,0,0.27-0.07,0.36-0.22c0.08-0.14,0.13-0.31,0.13-0.51c0-0.19-0.04-0.36-0.13-0.5
				c-0.09-0.15-0.21-0.23-0.36-0.23C76.39,97.01,76.26,97.09,76.17,97.24z"/>
		</g>
		<g>
			<path class="st23" d="M86.89,96.2c0.02-0.02,0.04-0.03,0.07-0.03c0.03,0,0.05,0.01,0.07,0.03c0.02,0.02,0.03,0.05,0.03,0.08v0.83
				c0.07-0.08,0.15-0.15,0.23-0.19c0.1-0.05,0.22-0.08,0.34-0.08c0.17,0,0.31,0.05,0.42,0.16c0.1,0.1,0.14,0.22,0.14,0.36v1.25
				c0,0.03-0.01,0.06-0.03,0.08c-0.02,0.02-0.04,0.03-0.07,0.03c-0.03,0-0.05-0.01-0.07-0.03c-0.02-0.02-0.03-0.05-0.03-0.08v-1.25
				c0-0.09-0.03-0.17-0.09-0.23c-0.07-0.07-0.16-0.11-0.27-0.11c-0.11,0-0.22,0.03-0.32,0.09c-0.09,0.06-0.18,0.14-0.26,0.26v1.24
				c0,0.04-0.01,0.06-0.03,0.09c-0.02,0.02-0.04,0.03-0.07,0.03c-0.03,0-0.05-0.01-0.07-0.03c-0.02-0.02-0.03-0.05-0.03-0.08v-2.32
				C86.86,96.24,86.87,96.22,86.89,96.2z"/>
		</g>
	</g>
	<g>
		<g>
			<path class="st23" d="M12.36,4.26c-0.15,0-0.28-0.04-0.39-0.12c-0.11-0.08-0.18-0.19-0.2-0.34c-0.01-0.03,0-0.06,0.02-0.08
				c0.02-0.02,0.04-0.03,0.07-0.03c0.03,0,0.05,0,0.07,0.02c0.02,0.02,0.04,0.04,0.04,0.07c0.01,0.09,0.04,0.16,0.1,0.21
				c0.07,0.06,0.16,0.09,0.29,0.09c0.13,0,0.22-0.03,0.27-0.1c0.05-0.07,0.07-0.18,0.07-0.34c0-0.04-0.03-0.08-0.09-0.1
				c-0.07-0.03-0.21-0.07-0.43-0.12c-0.17-0.03-0.29-0.1-0.38-0.22c-0.07-0.09-0.11-0.2-0.11-0.31c0-0.15,0.05-0.27,0.14-0.37
				c0.09-0.09,0.21-0.14,0.35-0.14c0.13,0,0.25,0.03,0.35,0.08c0.08,0.04,0.14,0.09,0.17,0.15c0-0.08,0.03-0.13,0.07-0.15
				c0.04-0.03,0.12-0.04,0.25-0.04c0.06,0,0.09,0.03,0.09,0.09c0,0.06-0.03,0.09-0.09,0.09c-0.04,0-0.07,0.01-0.09,0.03
				c-0.02,0.02-0.03,0.05-0.03,0.1v0.96c0,0.2-0.06,0.35-0.18,0.45C12.62,4.23,12.5,4.26,12.36,4.26z M12.7,2.9
				c0-0.07-0.05-0.14-0.14-0.21c-0.1-0.08-0.21-0.12-0.34-0.12c-0.11,0-0.19,0.04-0.25,0.12c-0.05,0.07-0.07,0.14-0.07,0.22
				c0,0.11,0.04,0.2,0.12,0.26c0.05,0.04,0.11,0.07,0.2,0.09c0.21,0.04,0.34,0.07,0.39,0.09c0.04,0.01,0.07,0.03,0.09,0.05h0V2.9z"
				/>
		</g>
		<g>
			<path class="st23" d="M22.66,4.81V2.52c0-0.04,0.01-0.06,0.03-0.08c0.02-0.02,0.04-0.02,0.07-0.02c0.03,0,0.05,0.01,0.07,0.03
				c0.02,0.02,0.03,0.05,0.03,0.08v0.14c0.05-0.08,0.11-0.14,0.18-0.19c0.09-0.06,0.19-0.09,0.29-0.09c0.22,0,0.38,0.1,0.51,0.29
				c0.11,0.17,0.17,0.39,0.17,0.65c0,0.26-0.06,0.48-0.17,0.65c-0.12,0.19-0.29,0.29-0.51,0.29c-0.09,0-0.18-0.02-0.25-0.07
				C23,4.14,22.93,4.06,22.86,3.96v0.86c0,0.03-0.01,0.06-0.03,0.08c-0.02,0.02-0.04,0.02-0.07,0.02c-0.03,0-0.05-0.01-0.07-0.03
				C22.67,4.87,22.66,4.84,22.66,4.81z M23.34,4.08c0.15,0,0.27-0.08,0.35-0.23c0.08-0.14,0.11-0.31,0.11-0.52
				c0-0.21-0.04-0.38-0.11-0.52c-0.08-0.16-0.2-0.23-0.35-0.23c-0.15,0-0.27,0.08-0.36,0.23c-0.08,0.14-0.11,0.31-0.11,0.52
				c0,0.21,0.04,0.39,0.11,0.52C23.06,4,23.18,4.08,23.34,4.08z"/>
		</g>
		<g>
			<path class="st23" d="M34.36,4.26c-0.22,0-0.4-0.1-0.53-0.29c-0.12-0.18-0.18-0.4-0.18-0.65c0-0.27,0.06-0.48,0.17-0.65
				c0.13-0.19,0.31-0.28,0.54-0.28c0.18,0,0.33,0.05,0.45,0.16c0.11,0.11,0.17,0.25,0.2,0.43c0,0.03,0,0.06-0.03,0.09
				c-0.02,0.02-0.04,0.04-0.08,0.04c-0.03,0-0.06,0-0.08-0.02C34.8,3.07,34.79,3.04,34.78,3c-0.02-0.14-0.06-0.25-0.14-0.32
				c-0.07-0.07-0.17-0.11-0.29-0.11c-0.16,0-0.28,0.07-0.37,0.22c-0.08,0.14-0.12,0.32-0.12,0.53c0,0.21,0.04,0.38,0.12,0.52
				c0.09,0.16,0.21,0.23,0.37,0.23c0.1,0,0.19-0.03,0.27-0.1c0.08-0.07,0.12-0.15,0.14-0.24c0-0.03,0.02-0.06,0.04-0.08
				c0.02-0.02,0.05-0.02,0.08-0.02c0.03,0,0.05,0.02,0.07,0.04c0.02,0.02,0.03,0.05,0.03,0.08c-0.02,0.13-0.08,0.24-0.19,0.34
				C34.67,4.21,34.53,4.26,34.36,4.26z"/>
		</g>
		<g>
			<path class="st23" d="M45.97,4.81c0,0.04-0.01,0.06-0.03,0.08c-0.02,0.02-0.04,0.03-0.07,0.03c-0.03,0-0.05-0.01-0.07-0.02
				c-0.02-0.02-0.03-0.05-0.03-0.08V3.96c-0.07,0.1-0.14,0.18-0.22,0.23c-0.08,0.05-0.16,0.07-0.25,0.07c-0.22,0-0.39-0.1-0.51-0.29
				c-0.11-0.17-0.16-0.39-0.16-0.65c0-0.26,0.05-0.47,0.16-0.65c0.12-0.19,0.29-0.29,0.51-0.29c0.1,0,0.19,0.03,0.28,0.09
				c0.08,0.05,0.14,0.11,0.19,0.19V2.52c0-0.03,0.01-0.06,0.03-0.08c0.02-0.02,0.04-0.03,0.07-0.03c0.03,0,0.05,0.01,0.07,0.02
				c0.02,0.02,0.03,0.05,0.03,0.08V4.81z M45.3,4.08c0.15,0,0.27-0.08,0.36-0.23c0.08-0.14,0.11-0.31,0.11-0.52
				c0-0.21-0.04-0.38-0.11-0.52c-0.08-0.16-0.2-0.23-0.36-0.23c-0.15,0-0.27,0.08-0.36,0.23c-0.07,0.14-0.11,0.31-0.11,0.52
				c0,0.21,0.04,0.39,0.11,0.52C45.02,4,45.14,4.08,45.3,4.08z"/>
		</g>
		<g>
			<path class="st23" d="M56.72,2.94c-0.05-0.11-0.11-0.2-0.17-0.26c-0.08-0.08-0.17-0.12-0.28-0.12c-0.15,0-0.26,0.08-0.36,0.23
				c-0.08,0.13-0.12,0.29-0.13,0.47h1.19v0.05c0,0.25-0.06,0.47-0.18,0.65c-0.13,0.19-0.3,0.29-0.52,0.29
				c-0.21,0-0.39-0.1-0.52-0.29c-0.12-0.18-0.18-0.4-0.18-0.65c0-0.25,0.06-0.47,0.18-0.64c0.13-0.19,0.3-0.29,0.52-0.29
				c0.15,0,0.28,0.04,0.39,0.13c0.11,0.08,0.2,0.2,0.27,0.35c0.01,0.03,0.01,0.06,0,0.09C56.91,2.98,56.89,3,56.86,3.01
				c-0.03,0.01-0.05,0.01-0.08,0C56.75,3,56.73,2.98,56.72,2.94z M55.79,3.45c0.01,0.16,0.05,0.3,0.13,0.41
				c0.09,0.14,0.21,0.21,0.35,0.21c0.14,0,0.26-0.07,0.35-0.22c0.08-0.12,0.12-0.26,0.13-0.41H55.79z"/>
		</g>
		<g>
			<path class="st23" d="M67.09,4.21h-0.16c-0.03,0-0.06-0.01-0.08-0.03c-0.02-0.02-0.03-0.04-0.03-0.06c0-0.02,0.01-0.05,0.03-0.06
				c0.02-0.02,0.05-0.03,0.08-0.03h0.16V2.5c0-0.04,0.01-0.06,0.03-0.09c0.02-0.02,0.04-0.03,0.07-0.03c0.03,0,0.05,0.01,0.07,0.03
				c0.02,0.02,0.03,0.05,0.03,0.08v1.53h0.24c0.03,0,0.06,0.01,0.08,0.03c0.02,0.02,0.03,0.04,0.03,0.06c0,0.02-0.01,0.05-0.03,0.06
				c-0.02,0.02-0.05,0.03-0.08,0.03H67.3v0.38c0,0.04,0.01,0.08,0.04,0.11c0.03,0.03,0.06,0.05,0.11,0.05h0.09
				c0.03,0,0.06,0.01,0.08,0.03c0.02,0.02,0.03,0.04,0.03,0.06c0,0.02-0.01,0.04-0.03,0.06c-0.02,0.02-0.05,0.03-0.08,0.03h-0.13
				c-0.1,0-0.18-0.03-0.24-0.1c-0.05-0.06-0.08-0.13-0.08-0.22V4.21z"/>
		</g>
		<g>
			<path class="st23" d="M78.7,4.14V3.96c-0.05,0.1-0.13,0.17-0.21,0.23c-0.08,0.05-0.17,0.07-0.27,0.07c-0.21,0-0.39-0.1-0.52-0.29
				c-0.12-0.18-0.18-0.38-0.18-0.62c0-0.25,0.06-0.46,0.18-0.63c0.13-0.18,0.3-0.28,0.52-0.28c0.1,0,0.2,0.03,0.29,0.09
				c0.08,0.05,0.14,0.11,0.19,0.19V2.53c0-0.1-0.04-0.19-0.13-0.26c-0.09-0.08-0.21-0.12-0.36-0.12c-0.11,0-0.21,0.02-0.29,0.07
				c-0.08,0.04-0.13,0.11-0.17,0.19c-0.02,0.03-0.04,0.04-0.06,0.05c-0.02,0.01-0.05,0-0.07-0.01c-0.02-0.01-0.04-0.03-0.05-0.06
				c-0.01-0.03-0.01-0.05,0.01-0.08c0.06-0.11,0.15-0.19,0.26-0.25c0.11-0.06,0.23-0.08,0.37-0.08c0.21,0,0.38,0.06,0.51,0.18
				c0.12,0.11,0.18,0.23,0.18,0.39v1.6c0,0.03-0.01,0.05-0.03,0.07c-0.02,0.02-0.04,0.02-0.07,0.02c-0.03,0-0.05-0.01-0.07-0.02
				C78.71,4.19,78.7,4.17,78.7,4.14z M78.21,4.08c0.15,0,0.26-0.08,0.36-0.23c0.08-0.14,0.13-0.31,0.13-0.5
				c0-0.2-0.04-0.37-0.13-0.51c-0.09-0.15-0.21-0.22-0.36-0.22c-0.15,0-0.27,0.07-0.36,0.22c-0.08,0.14-0.12,0.31-0.12,0.51
				c0,0.19,0.04,0.36,0.12,0.5C77.94,4.01,78.06,4.08,78.21,4.08z"/>
		</g>
		<g>
			<path class="st23" d="M88.53,4.82V2.5c0-0.04,0.01-0.06,0.03-0.08c0.02-0.02,0.04-0.03,0.07-0.03c0.03,0,0.05,0.01,0.07,0.03
				c0.02,0.02,0.03,0.05,0.03,0.09v1.24c0.08,0.11,0.17,0.2,0.26,0.26c0.1,0.06,0.2,0.09,0.32,0.09c0.11,0,0.2-0.04,0.27-0.11
				c0.06-0.06,0.09-0.14,0.09-0.23V2.5c0-0.03,0.01-0.06,0.03-0.08c0.02-0.02,0.04-0.03,0.07-0.03c0.03,0,0.05,0.01,0.07,0.03
				c0.02,0.02,0.03,0.05,0.03,0.08v1.25c0,0.14-0.05,0.26-0.14,0.36c-0.1,0.11-0.24,0.16-0.42,0.16c-0.13,0-0.24-0.03-0.34-0.08
				c-0.08-0.04-0.16-0.11-0.23-0.19v0.83c0,0.03-0.01,0.06-0.03,0.08c-0.02,0.02-0.04,0.03-0.07,0.03c-0.03,0-0.05-0.01-0.07-0.03
				C88.54,4.88,88.53,4.85,88.53,4.82z"/>
		</g>
	</g>
	<g>
		<g>
			<path class="st23" d="M96.39,88.29c0-0.05,0.02-0.08,0.07-0.08c0.12,0,0.21-0.02,0.28-0.07c0.07-0.06,0.11-0.15,0.12-0.28
				c0-0.05,0.03-0.08,0.09-0.08c0.06,0,0.08,0.03,0.08,0.08v2.34c0,0.04-0.01,0.07-0.03,0.09c-0.02,0.02-0.04,0.03-0.07,0.03
				c-0.03,0-0.05-0.01-0.07-0.03c-0.02-0.02-0.03-0.05-0.03-0.09v-1.83h-0.36C96.42,88.36,96.4,88.34,96.39,88.29z"/>
		</g>
		<g>
			<path class="st23" d="M97.25,76.85c0.13,0.13,0.19,0.3,0.19,0.53c0,0.16-0.05,0.29-0.15,0.4c-0.06,0.07-0.19,0.17-0.4,0.31
				l-0.09,0.06c-0.23,0.15-0.38,0.29-0.47,0.42c-0.07,0.1-0.12,0.23-0.14,0.39h1.17c0.05,0,0.08,0.03,0.08,0.09
				c0,0.06-0.03,0.09-0.08,0.09H96c0-0.24,0.05-0.45,0.16-0.63c0.1-0.17,0.27-0.33,0.5-0.48l0.1-0.07c0.19-0.12,0.3-0.21,0.36-0.27
				c0.08-0.09,0.12-0.19,0.12-0.32c0-0.15-0.03-0.27-0.1-0.36c-0.08-0.11-0.21-0.16-0.38-0.16c-0.2,0-0.34,0.06-0.41,0.19
				c-0.05,0.09-0.08,0.22-0.08,0.39c0,0.03-0.01,0.05-0.03,0.08c-0.02,0.02-0.04,0.03-0.07,0.03c-0.03,0-0.05-0.01-0.07-0.02
				c-0.02-0.02-0.03-0.05-0.03-0.09c0-0.28,0.08-0.48,0.25-0.61c0.12-0.09,0.27-0.14,0.45-0.14C96.96,76.67,97.13,76.73,97.25,76.85
				z"/>
		</g>
		<g>
			<path class="st23" d="M97.2,65.75c0.11,0.12,0.17,0.27,0.17,0.46c0,0.14-0.04,0.27-0.11,0.37c-0.05,0.07-0.11,0.12-0.17,0.15
				c0.1,0.03,0.18,0.09,0.24,0.19c0.08,0.11,0.12,0.26,0.12,0.42c0,0.22-0.06,0.39-0.19,0.53c-0.13,0.15-0.33,0.22-0.58,0.22
				c-0.19,0-0.34-0.06-0.46-0.17c-0.13-0.13-0.2-0.31-0.22-0.54c0-0.04,0-0.07,0.03-0.09c0.02-0.02,0.04-0.03,0.07-0.03
				c0.03,0,0.05,0,0.07,0.02c0.02,0.02,0.03,0.05,0.04,0.08c0,0.16,0.04,0.3,0.12,0.39c0.08,0.11,0.21,0.16,0.38,0.16
				c0.15,0,0.28-0.05,0.38-0.15c0.1-0.1,0.16-0.24,0.16-0.41c0-0.2-0.06-0.34-0.18-0.41c-0.09-0.06-0.23-0.09-0.42-0.09
				c-0.06,0-0.09-0.03-0.09-0.09c0-0.06,0.03-0.09,0.09-0.09c0.16,0,0.28-0.04,0.36-0.11c0.1-0.08,0.15-0.2,0.15-0.38
				c0-0.12-0.04-0.22-0.11-0.3c-0.08-0.09-0.2-0.14-0.35-0.14c-0.11,0-0.21,0.04-0.29,0.11c-0.1,0.09-0.16,0.22-0.15,0.38
				c0,0.03-0.01,0.05-0.03,0.07c-0.02,0.02-0.04,0.03-0.07,0.03c-0.03,0-0.05-0.01-0.07-0.03c-0.02-0.02-0.03-0.05-0.03-0.08
				c0-0.18,0.05-0.33,0.16-0.45c0.12-0.14,0.28-0.2,0.47-0.2h0.05C96.93,65.57,97.08,65.63,97.2,65.75z"/>
		</g>
		<g>
			<path class="st23" d="M97.09,54.46c0.06,0,0.09,0.04,0.09,0.11v1.6h0.28c0.03,0,0.05,0.01,0.07,0.03
				c0.02,0.02,0.02,0.04,0.02,0.06c0,0.02-0.01,0.05-0.03,0.06c-0.02,0.02-0.04,0.03-0.07,0.03h-0.27v0.54
				c0,0.03-0.01,0.06-0.03,0.08C97.13,56.99,97.1,57,97.08,57c-0.03,0-0.05-0.01-0.07-0.03c-0.02-0.02-0.03-0.04-0.03-0.08v-0.54
				h-0.93c-0.06,0-0.09-0.03-0.1-0.08c-0.01-0.05,0-0.1,0.04-0.16l0.96-1.57C96.98,54.49,97.03,54.46,97.09,54.46z M96.18,56.17h0.8
				v-1.31L96.18,56.17z"/>
		</g>
		<g>
			<path class="st23" d="M97.31,43.44c0.02,0.02,0.03,0.04,0.03,0.06c0,0.02-0.01,0.05-0.03,0.06c-0.02,0.02-0.05,0.03-0.08,0.03
				h-0.82l-0.12,0.82c0.06-0.06,0.13-0.1,0.21-0.13c0.08-0.03,0.16-0.05,0.25-0.05c0.19,0,0.35,0.07,0.48,0.2
				c0.15,0.15,0.22,0.35,0.22,0.61c0,0.24-0.06,0.43-0.18,0.58c-0.13,0.17-0.33,0.26-0.6,0.26c-0.17,0-0.32-0.04-0.45-0.13
				c-0.13-0.09-0.21-0.2-0.24-0.34c-0.01-0.03,0-0.06,0.01-0.09c0.02-0.02,0.04-0.04,0.06-0.05c0.03-0.01,0.05,0,0.08,0.01
				c0.03,0.01,0.04,0.04,0.05,0.07c0.03,0.1,0.08,0.18,0.16,0.24c0.09,0.06,0.2,0.1,0.34,0.1c0.18,0,0.31-0.06,0.41-0.17
				c0.1-0.12,0.15-0.28,0.15-0.5c0-0.2-0.05-0.35-0.16-0.46c-0.1-0.11-0.23-0.16-0.39-0.16c-0.07,0-0.14,0.03-0.23,0.08
				c-0.08,0.05-0.14,0.1-0.19,0.16c-0.05,0.06-0.09,0.08-0.15,0.06c-0.05-0.02-0.07-0.06-0.06-0.13l0.17-1.17h0.99
				C97.26,43.41,97.29,43.42,97.31,43.44z"/>
		</g>
		<g>
			<path class="st23" d="M97.18,32.37c0.12,0.09,0.19,0.23,0.21,0.4c0,0.06-0.03,0.1-0.09,0.11c-0.07,0.01-0.11-0.02-0.12-0.08
				c-0.02-0.11-0.06-0.19-0.12-0.25c-0.07-0.07-0.17-0.11-0.28-0.11c-0.19,0-0.34,0.12-0.44,0.35c-0.08,0.18-0.13,0.41-0.15,0.69
				c0.05-0.09,0.13-0.16,0.22-0.21c0.11-0.06,0.23-0.1,0.38-0.1c0.16,0,0.3,0.05,0.42,0.16c0.16,0.14,0.24,0.34,0.24,0.61
				c0,0.28-0.07,0.49-0.21,0.64c-0.13,0.14-0.32,0.22-0.55,0.22c-0.19,0-0.34-0.06-0.46-0.19c-0.16-0.17-0.24-0.46-0.24-0.86
				c0-0.44,0.06-0.79,0.18-1.05c0.14-0.29,0.34-0.43,0.62-0.43C96.95,32.25,97.08,32.29,97.18,32.37z M96.35,34.42
				c0.1,0.12,0.23,0.18,0.38,0.18c0.15,0,0.27-0.06,0.37-0.18c0.1-0.12,0.15-0.28,0.15-0.47c0-0.17-0.04-0.31-0.12-0.42
				c-0.09-0.12-0.22-0.18-0.39-0.18c-0.15,0-0.27,0.06-0.38,0.17c-0.1,0.12-0.16,0.26-0.16,0.43C96.2,34.15,96.25,34.3,96.35,34.42z
				"/>
		</g>
		<g>
			<path class="st23" d="M95.97,21.29c0-0.06,0.03-0.09,0.09-0.09h1.3c0.06,0,0.1,0.02,0.12,0.07c0.02,0.05,0.01,0.09-0.03,0.14
				c-0.17,0.18-0.34,0.43-0.5,0.78c-0.22,0.45-0.36,0.91-0.42,1.37c-0.01,0.04-0.02,0.07-0.05,0.1c-0.02,0.02-0.05,0.03-0.08,0.03
				c-0.03,0-0.06-0.02-0.08-0.04c-0.02-0.03-0.03-0.06-0.02-0.1c0.04-0.29,0.14-0.63,0.3-1.03c0.18-0.46,0.39-0.84,0.63-1.13h-1.16
				C96,21.38,95.97,21.35,95.97,21.29z"/>
		</g>
		<g>
			<path class="st23" d="M97.27,11.04c-0.05,0.07-0.11,0.12-0.18,0.15c0.13,0.06,0.23,0.15,0.28,0.27c0.05,0.1,0.08,0.23,0.08,0.38
				c0,0.23-0.06,0.41-0.19,0.53c-0.13,0.13-0.31,0.19-0.55,0.19c-0.24,0-0.43-0.06-0.55-0.19c-0.12-0.13-0.18-0.3-0.18-0.53
				c0-0.15,0.03-0.27,0.08-0.38c0.06-0.12,0.15-0.21,0.27-0.27c-0.07-0.03-0.13-0.08-0.17-0.15c-0.07-0.1-0.1-0.23-0.1-0.37
				c0-0.18,0.04-0.32,0.13-0.43c0.11-0.13,0.29-0.2,0.53-0.2c0.23,0,0.4,0.07,0.52,0.2c0.1,0.11,0.14,0.25,0.14,0.43
				C97.38,10.81,97.34,10.94,97.27,11.04z M96.32,11.45c-0.09,0.1-0.13,0.23-0.13,0.39c0,0.16,0.04,0.29,0.13,0.39
				c0.1,0.11,0.23,0.16,0.4,0.16c0.17,0,0.3-0.05,0.4-0.16c0.09-0.1,0.14-0.23,0.14-0.39c0-0.16-0.05-0.29-0.14-0.39
				c-0.1-0.11-0.23-0.16-0.4-0.16C96.55,11.29,96.41,11.34,96.32,11.45z M96.37,10.34c-0.07,0.08-0.11,0.19-0.11,0.32
				c0,0.13,0.04,0.24,0.11,0.32c0.08,0.08,0.2,0.13,0.35,0.13c0.15,0,0.27-0.04,0.35-0.13c0.08-0.08,0.12-0.18,0.12-0.32
				c0-0.14-0.04-0.24-0.12-0.32c-0.08-0.08-0.2-0.12-0.35-0.12C96.57,10.22,96.45,10.26,96.37,10.34z"/>
		</g>
	</g>
	<g>
		<g>
			<path class="st23" d="M2.95,88.29c0-0.05,0.02-0.08,0.07-0.08c0.12,0,0.21-0.02,0.28-0.07c0.07-0.06,0.11-0.15,0.12-0.28
				c0-0.05,0.03-0.08,0.09-0.08c0.06,0,0.08,0.03,0.08,0.08v2.34c0,0.04-0.01,0.07-0.03,0.09c-0.02,0.02-0.04,0.03-0.07,0.03
				c-0.03,0-0.05-0.01-0.07-0.03c-0.02-0.02-0.03-0.05-0.03-0.09v-1.83H3.03C2.98,88.36,2.95,88.34,2.95,88.29z"/>
		</g>
		<g>
			<path class="st23" d="M3.8,76.85C3.93,76.98,4,77.15,4,77.38c0,0.16-0.05,0.29-0.15,0.4c-0.06,0.07-0.19,0.17-0.4,0.31
				l-0.09,0.06c-0.23,0.15-0.38,0.29-0.47,0.42c-0.07,0.1-0.12,0.23-0.14,0.39h1.17c0.05,0,0.08,0.03,0.08,0.09
				c0,0.06-0.03,0.09-0.08,0.09H2.55c0-0.24,0.05-0.45,0.16-0.63c0.1-0.17,0.27-0.33,0.5-0.48l0.1-0.07
				c0.19-0.12,0.3-0.21,0.36-0.27c0.08-0.09,0.12-0.19,0.12-0.32c0-0.15-0.03-0.27-0.1-0.36c-0.08-0.11-0.21-0.16-0.38-0.16
				c-0.2,0-0.34,0.06-0.41,0.19c-0.05,0.09-0.08,0.22-0.08,0.39c0,0.03-0.01,0.05-0.03,0.08c-0.02,0.02-0.04,0.03-0.07,0.03
				c-0.03,0-0.05-0.01-0.07-0.02c-0.02-0.02-0.03-0.05-0.03-0.09c0-0.28,0.08-0.48,0.25-0.61c0.12-0.09,0.27-0.14,0.45-0.14
				C3.52,76.67,3.68,76.73,3.8,76.85z"/>
		</g>
		<g>
			<path class="st23" d="M3.75,65.75c0.11,0.12,0.17,0.27,0.17,0.46c0,0.14-0.04,0.27-0.11,0.37c-0.05,0.07-0.11,0.12-0.17,0.15
				c0.1,0.03,0.18,0.09,0.24,0.19C3.96,67.04,4,67.18,4,67.35c0,0.22-0.06,0.39-0.19,0.53c-0.13,0.15-0.33,0.22-0.58,0.22
				c-0.19,0-0.34-0.06-0.46-0.17c-0.13-0.13-0.2-0.31-0.22-0.54c0-0.04,0-0.07,0.03-0.09c0.02-0.02,0.04-0.03,0.07-0.03
				c0.03,0,0.05,0,0.07,0.02c0.02,0.02,0.03,0.05,0.04,0.08c0,0.16,0.04,0.3,0.12,0.39c0.08,0.11,0.21,0.16,0.38,0.16
				c0.15,0,0.28-0.05,0.38-0.15c0.1-0.1,0.16-0.24,0.16-0.41c0-0.2-0.06-0.34-0.18-0.41c-0.09-0.06-0.23-0.09-0.42-0.09
				c-0.06,0-0.09-0.03-0.09-0.09c0-0.06,0.03-0.09,0.09-0.09c0.16,0,0.28-0.04,0.36-0.11c0.1-0.08,0.15-0.2,0.15-0.38
				c0-0.12-0.04-0.22-0.11-0.3c-0.08-0.09-0.2-0.14-0.35-0.14c-0.11,0-0.21,0.04-0.29,0.11c-0.1,0.09-0.16,0.22-0.15,0.38
				c0,0.03-0.01,0.05-0.03,0.07c-0.02,0.02-0.04,0.03-0.07,0.03s-0.05-0.01-0.07-0.03c-0.02-0.02-0.03-0.05-0.03-0.08
				c0-0.18,0.05-0.33,0.16-0.45c0.12-0.14,0.28-0.2,0.47-0.2h0.05C3.48,65.57,3.63,65.63,3.75,65.75z"/>
		</g>
		<g>
			<path class="st23" d="M3.64,54.46c0.06,0,0.09,0.04,0.09,0.11v1.6h0.28c0.03,0,0.05,0.01,0.07,0.03
				c0.02,0.02,0.02,0.04,0.02,0.06c0,0.02-0.01,0.05-0.03,0.06C4.05,56.35,4.03,56.36,4,56.36H3.73v0.54c0,0.03-0.01,0.06-0.03,0.08
				C3.68,56.99,3.66,57,3.63,57c-0.03,0-0.05-0.01-0.07-0.03c-0.02-0.02-0.03-0.04-0.03-0.08v-0.54H2.59c-0.06,0-0.09-0.03-0.1-0.08
				c-0.01-0.05,0-0.1,0.04-0.16l0.96-1.57C3.53,54.49,3.58,54.46,3.64,54.46z M2.73,56.17h0.8v-1.31L2.73,56.17z"/>
		</g>
		<g>
			<path class="st23" d="M3.86,43.44c0.02,0.02,0.03,0.04,0.03,0.06c0,0.02-0.01,0.05-0.03,0.06c-0.02,0.02-0.05,0.03-0.08,0.03
				H2.96l-0.12,0.82c0.06-0.06,0.13-0.1,0.21-0.13c0.08-0.03,0.16-0.05,0.25-0.05c0.19,0,0.35,0.07,0.48,0.2
				C3.92,44.59,4,44.79,4,45.05c0,0.24-0.06,0.43-0.18,0.58c-0.13,0.17-0.33,0.26-0.6,0.26c-0.17,0-0.32-0.04-0.45-0.13
				c-0.13-0.09-0.21-0.2-0.24-0.34c-0.01-0.03,0-0.06,0.01-0.09c0.02-0.02,0.04-0.04,0.06-0.05c0.03-0.01,0.05,0,0.08,0.01
				c0.03,0.01,0.04,0.04,0.05,0.07c0.03,0.1,0.08,0.18,0.16,0.24c0.09,0.06,0.2,0.1,0.34,0.1c0.18,0,0.31-0.06,0.41-0.17
				c0.1-0.12,0.15-0.28,0.15-0.5c0-0.2-0.05-0.35-0.16-0.46c-0.1-0.11-0.23-0.16-0.39-0.16c-0.07,0-0.14,0.03-0.23,0.08
				c-0.08,0.05-0.14,0.1-0.19,0.16c-0.05,0.06-0.09,0.08-0.15,0.06c-0.05-0.02-0.07-0.06-0.06-0.13l0.17-1.17h0.99
				C3.82,43.41,3.84,43.42,3.86,43.44z"/>
		</g>
		<g>
			<path class="st23" d="M3.73,32.37c0.12,0.09,0.19,0.23,0.21,0.4c0,0.06-0.03,0.1-0.09,0.11c-0.07,0.01-0.11-0.02-0.12-0.08
				c-0.02-0.11-0.06-0.19-0.12-0.25c-0.07-0.07-0.17-0.11-0.28-0.11c-0.19,0-0.34,0.12-0.44,0.35c-0.08,0.18-0.13,0.41-0.15,0.69
				c0.05-0.09,0.13-0.16,0.22-0.21c0.11-0.06,0.23-0.1,0.38-0.1c0.16,0,0.3,0.05,0.42,0.16C3.92,33.46,4,33.66,4,33.93
				c0,0.28-0.07,0.49-0.21,0.64c-0.13,0.14-0.32,0.22-0.55,0.22c-0.19,0-0.34-0.06-0.46-0.19c-0.16-0.17-0.24-0.46-0.24-0.86
				c0-0.44,0.06-0.79,0.18-1.05c0.14-0.29,0.34-0.43,0.62-0.43C3.5,32.25,3.63,32.29,3.73,32.37z M2.9,34.42
				C3,34.54,3.13,34.6,3.28,34.6c0.15,0,0.27-0.06,0.37-0.18c0.1-0.12,0.15-0.28,0.15-0.47c0-0.17-0.04-0.31-0.12-0.42
				c-0.09-0.12-0.22-0.18-0.39-0.18c-0.15,0-0.27,0.06-0.38,0.17c-0.1,0.12-0.16,0.26-0.16,0.43C2.75,34.15,2.8,34.3,2.9,34.42z"/>
		</g>
		<g>
			<path class="st23" d="M2.52,21.29c0-0.06,0.03-0.09,0.09-0.09h1.3c0.06,0,0.1,0.02,0.12,0.07c0.02,0.05,0.01,0.09-0.03,0.14
				c-0.17,0.18-0.34,0.43-0.5,0.78c-0.22,0.45-0.36,0.91-0.42,1.37c-0.01,0.04-0.02,0.07-0.05,0.1C3,23.68,2.97,23.68,2.94,23.68
				c-0.03,0-0.06-0.02-0.08-0.04c-0.02-0.03-0.03-0.06-0.02-0.1c0.04-0.29,0.14-0.63,0.3-1.03c0.18-0.46,0.39-0.84,0.63-1.13H2.61
				C2.55,21.38,2.52,21.35,2.52,21.29z"/>
		</g>
		<g>
			<path class="st23" d="M3.82,11.04c-0.05,0.07-0.11,0.12-0.18,0.15c0.13,0.06,0.23,0.15,0.28,0.27c0.05,0.1,0.08,0.23,0.08,0.38
				c0,0.23-0.06,0.41-0.19,0.53c-0.13,0.13-0.31,0.19-0.55,0.19c-0.24,0-0.43-0.06-0.55-0.19c-0.12-0.13-0.18-0.3-0.18-0.53
				c0-0.15,0.03-0.27,0.08-0.38c0.06-0.12,0.15-0.21,0.27-0.27c-0.07-0.03-0.13-0.08-0.17-0.15c-0.07-0.1-0.1-0.23-0.1-0.37
				c0-0.18,0.04-0.32,0.13-0.43c0.11-0.13,0.29-0.2,0.53-0.2c0.23,0,0.4,0.07,0.52,0.2c0.1,0.11,0.14,0.25,0.14,0.43
				C3.93,10.81,3.9,10.94,3.82,11.04z M2.87,11.45c-0.09,0.1-0.13,0.23-0.13,0.39c0,0.16,0.04,0.29,0.13,0.39
				c0.1,0.11,0.23,0.16,0.4,0.16c0.17,0,0.3-0.05,0.4-0.16c0.09-0.1,0.14-0.23,0.14-0.39c0-0.16-0.05-0.29-0.14-0.39
				c-0.1-0.11-0.23-0.16-0.4-0.16C3.1,11.29,2.97,11.34,2.87,11.45z M2.92,10.34c-0.07,0.08-0.11,0.19-0.11,0.32
				c0,0.13,0.04,0.24,0.11,0.32c0.08,0.08,0.2,0.13,0.35,0.13c0.15,0,0.27-0.04,0.35-0.13c0.08-0.08,0.12-0.18,0.12-0.32
				c0-0.14-0.04-0.24-0.12-0.32c-0.08-0.08-0.2-0.12-0.35-0.12C3.12,10.22,3,10.26,2.92,10.34z"/>
		</g>
	</g>
</g>
</svg>
