<?xml version="1.0" encoding="utf-8"?>
<!-- Generator: Adobe Illustrator 28.3.0, SVG Export Plug-In . SVG Version: 6.00 Build 0)  -->
<svg version="1.1" id="Layer_1" xmlns="http://www.w3.org/2000/svg" xmlns:xlink="http://www.w3.org/1999/xlink" x="0px" y="0px"
	 viewBox="0 0 100 100" style="enable-background:new 0 0 100 100;" xml:space="preserve">
<style type="text/css">
	.st0{fill:#76E7FC;}
	.st1{fill:#FBF3F3;}
	.st2{fill:#FF415B;}
	.st3{fill:#FF884D;}
	.st4{fill:#FFBB33;}
	.st5{fill:#FFDD33;}
	.st6{fill:#6680FF;}
	.st7{fill:#80AAFF;}
	.st8{fill:#E8E3F0;}
	.st9{fill:#53E261;}
	.st10{fill:#FFBB00;}
	.st11{fill:#7CBB00;}
	.st12{fill:#00A1F1;}
	.st13{fill:#F65314;}
	.st14{fill:#1A171B;}
	.st15{fill:#A8796F;}
	.st16{fill:#DCEEF4;}
	.st17{fill:#6BDF1E;}
	.st18{fill:#FFD92C;}
	.st19{fill:#00D9FF;}
	.st20{fill:#09BEEF;}
	.st21{fill:#2AD7F6;}
	.st22{fill:#FD641A;}
	.st23{fill:#FDCBBC;}
	.st24{fill:#EDEBFD;}
	.st25{fill:#D1D1EF;}
	.st26{fill:#FADE65;}
	.st27{fill:#615285;}
	.st28{fill:#59D5FF;}
	.st29{fill:#FF8C8A;}
</style>
<g>
	<g>
		<g id="_x35_0_x2C__bill_x2C__invoice_x2C__payment_x2C__business_and_finance_x2C__receipt">
			<g>
				<g>
					<path class="st24" d="M87.93,84.75c-0.02,0-60.69,12.14-60.71,12.14c-3.35,0-6.07-2.72-6.07-6.07V15.94L15.08,3.8h63.24
						c5.31,0,9.61,4.3,9.61,9.61C87.93,16.78,87.93,81.76,87.93,84.75z"/>
					<path class="st25" d="M91.98,84.75v2.93c0,5.09-4.12,9.21-9.21,9.21H27.22c3.35,0,6.07-2.72,6.07-6.07v-6.07h54.64H91.98z"/>
					<rect x="69.72" y="52.37" class="st26" width="10.12" height="24.28"/>
					<rect x="69.72" y="42.25" class="st27" width="10.12" height="10.12"/>
					<rect x="39.36" y="52.37" class="st28" width="30.36" height="24.28"/>
					<rect x="39.36" y="42.25" class="st29" width="30.36" height="10.12"/>
					<rect x="29.24" y="52.37" class="st26" width="10.12" height="24.28"/>
					<rect x="29.24" y="42.25" class="st27" width="10.12" height="10.12"/>
					<path class="st25" d="M21.15,9.87v6.07H9V9.87c0-1.68,0.68-3.19,1.78-4.29c1.1-1.1,2.62-1.78,4.29-1.78
						C18.43,3.8,21.15,6.52,21.15,9.87z"/>
					<path d="M82.77,98.91H27.22c-1.12,0-2.02-0.91-2.02-2.02c0-1.12,0.91-2.02,2.02-2.02h55.55c3.96,0,7.18-3.22,7.18-7.18v-0.91
						H33.29c-1.12,0-2.02-0.91-2.02-2.02c0-1.12,0.91-2.02,2.02-2.02h58.69c1.12,0,2.02,0.91,2.02,2.02v2.93
						C94,93.87,88.96,98.91,82.77,98.91z"/>
					<path d="M27.22,98.91c-4.47,0-8.09-3.62-8.09-8.09V17.96H9c-1.12,0-2.02-0.91-2.02-2.02V9.87c0-2.16,0.84-4.19,2.37-5.72
						c1.53-1.53,3.56-2.37,5.72-2.37c4.46,0,8.09,3.63,8.09,8.09v80.95c0,1.08,0.42,2.1,1.19,2.86c0.77,0.76,1.78,1.19,2.86,1.19
						c2.23,0,4.05-1.82,4.05-4.05v-6.07c0-1.12,0.91-2.02,2.02-2.02c1.12,0,2.02,0.91,2.02,2.02v6.07
						C35.31,95.28,31.68,98.91,27.22,98.91z M11.03,13.92h8.09V9.87c0-2.23-1.82-4.05-4.05-4.05c-1.08,0-2.1,0.42-2.86,1.19
						c-0.76,0.76-1.19,1.78-1.19,2.86V13.92z"/>
					<path d="M87.93,86.77c-1.12,0-2.02-0.91-2.02-2.02V13.41c0-4.18-3.4-7.59-7.59-7.59H15.08c-1.12,0-2.02-0.91-2.02-2.02
						c0-1.12,0.91-2.02,2.02-2.02h63.24c6.42,0,11.64,5.22,11.64,11.64v71.34C89.95,85.86,89.05,86.77,87.93,86.77z"/>
					<path d="M79.83,78.68H29.24c-1.12,0-2.02-0.91-2.02-2.02v-34.4c0-1.12,0.91-2.02,2.02-2.02h50.59c1.12,0,2.02,0.91,2.02,2.02
						v34.4C81.86,77.77,80.95,78.68,79.83,78.68z M31.27,74.63h46.54V44.27H31.27V74.63z"/>
					<path d="M39.36,78.68c-1.12,0-2.02-0.91-2.02-2.02v-34.4c0-1.12,0.91-2.02,2.02-2.02c1.12,0,2.02,0.91,2.02,2.02v34.4
						C41.38,77.77,40.48,78.68,39.36,78.68z"/>
					<path d="M69.72,78.68c-1.12,0-2.02-0.91-2.02-2.02v-34.4c0-1.12,0.91-2.02,2.02-2.02c1.12,0,2.02,0.91,2.02,2.02v34.4
						C71.74,77.77,70.83,78.68,69.72,78.68z"/>
					<path d="M79.83,54.39H29.24c-1.12,0-2.02-0.91-2.02-2.02c0-1.12,0.91-2.02,2.02-2.02h50.59c1.12,0,2.02,0.91,2.02,2.02
						C81.86,53.49,80.95,54.39,79.83,54.39z"/>
					<path d="M61.62,62.49H47.46c-1.12,0-2.02-0.91-2.02-2.02c0-1.12,0.91-2.02,2.02-2.02h14.17c1.12,0,2.02,0.91,2.02,2.02
						C63.64,61.58,62.74,62.49,61.62,62.49z"/>
					<path d="M61.62,70.58H47.46c-1.12,0-2.02-0.91-2.02-2.02c0-1.12,0.91-2.02,2.02-2.02h14.17c1.12,0,2.02,0.91,2.02,2.02
						C63.64,69.67,62.74,70.58,61.62,70.58z"/>
					<path d="M33.29,15.94h-4.05c-1.12,0-2.02-0.91-2.02-2.02c0-1.12,0.91-2.02,2.02-2.02h4.05c1.12,0,2.02,0.91,2.02,2.02
						C35.31,15.04,34.41,15.94,33.29,15.94z"/>
					<path d="M59.6,15.94H41.38c-1.12,0-2.02-0.91-2.02-2.02c0-1.12,0.91-2.02,2.02-2.02H59.6c1.12,0,2.02,0.91,2.02,2.02
						C61.62,15.04,60.71,15.94,59.6,15.94z"/>
					<path d="M33.29,24.04h-4.05c-1.12,0-2.02-0.91-2.02-2.02c0-1.12,0.91-2.02,2.02-2.02h4.05c1.12,0,2.02,0.91,2.02,2.02
						C35.31,23.13,34.41,24.04,33.29,24.04z"/>
					<path d="M59.6,24.04H41.38c-1.12,0-2.02-0.91-2.02-2.02c0-1.12,0.91-2.02,2.02-2.02H59.6c1.12,0,2.02,0.91,2.02,2.02
						C61.62,23.13,60.71,24.04,59.6,24.04z"/>
					<path d="M33.29,32.13h-4.05c-1.12,0-2.02-0.91-2.02-2.02c0-1.12,0.91-2.02,2.02-2.02h4.05c1.12,0,2.02,0.91,2.02,2.02
						C35.31,31.22,34.41,32.13,33.29,32.13z"/>
					<path d="M59.6,32.13H41.38c-1.12,0-2.02-0.91-2.02-2.02c0-1.12,0.91-2.02,2.02-2.02H59.6c1.12,0,2.02,0.91,2.02,2.02
						C61.62,31.22,60.71,32.13,59.6,32.13z"/>
				</g>
			</g>
		</g>
	</g>
</g>
</svg>
