<?xml version="1.0" encoding="UTF-8"?>
<svg id="Layer_1" data-name="Layer 1" xmlns="http://www.w3.org/2000/svg" version="1.1" viewBox="0 0 100 100">
  <defs>
    <style>
      .cls-1 {
        fill: #08416b;
      }

      .cls-1, .cls-2, .cls-3 {
        stroke-width: 0px;
      }

      .cls-2 {
        fill: #fff;
      }

      .cls-3 {
        fill: #b53569;
      }
    </style>
  </defs>
  <rect class="cls-1" x="14.3" y="4.16" width="2.53" height="8.44"/>
  <rect class="cls-1" x="14.3" y="43.79" width="2.53" height="8.44"/>
  <rect class="cls-1" x="14.3" y="70.21" width="2.53" height="8.44"/>
  <path class="cls-3" d="M15.56,17.37c-2.35,0-4.26,1.91-4.26,4.26s1.91,4.25,4.26,4.25c2.35,0,4.25-1.91,4.25-4.25s-1.91-4.26-4.25-4.26ZM15.56,23.86c-1.24,0-2.24-1-2.24-2.23s1-2.24,2.24-2.24,2.23,1,2.23,2.24-1,2.23-2.23,2.23Z"/>
  <path class="cls-3" d="M15.56,30.58c-2.35,0-4.26,1.91-4.26,4.26s1.91,4.25,4.26,4.26c2.35,0,4.25-1.91,4.25-4.26s-1.91-4.26-4.25-4.26ZM15.56,37.07c-1.24,0-2.24-1-2.24-2.23s1-2.24,2.24-2.24,2.23,1,2.23,2.24-1,2.23-2.23,2.23Z"/>
  <path class="cls-3" d="M15.56,57c-2.35,0-4.26,1.91-4.26,4.26s1.91,4.25,4.26,4.25c2.35,0,4.25-1.91,4.25-4.25s-1.91-4.26-4.25-4.26ZM15.56,63.49c-1.24,0-2.24-1-2.24-2.23s1-2.24,2.24-2.24,2.23,1,2.23,2.24-1,2.23-2.23,2.23Z"/>
  <path class="cls-3" d="M15.56,83.42c-2.35,0-4.26,1.91-4.26,4.25s1.91,4.25,4.26,4.26c2.35,0,4.25-1.91,4.25-4.26s-1.91-4.25-4.25-4.25ZM15.56,89.91c-1.24,0-2.24-1-2.24-2.23s1-2.24,2.24-2.24,2.23,1,2.23,2.24-1,2.23-2.23,2.23Z"/>
  <rect class="cls-1" x="82.27" y="83.48" width="2.53" height="8.45"/>
  <rect class="cls-1" x="82.27" y="43.84" width="2.53" height="8.45"/>
  <rect class="cls-1" x="82.27" y="17.4" width="2.53" height="8.45"/>
  <rect class="cls-1" x="82.27" y="57.05" width="2.53" height="8.44"/>
  <path class="cls-3" d="M87.79,74.49c0-2.35-1.91-4.26-4.25-4.26-2.35,0-4.26,1.91-4.26,4.26s1.91,4.25,4.26,4.25,4.25-1.9,4.25-4.25ZM85.77,74.49c0,1.24-1,2.24-2.23,2.24s-2.23-1-2.23-2.24,1-2.23,2.23-2.23,2.23,1,2.23,2.23Z"/>
  <path class="cls-3" d="M87.79,34.85c0-2.35-1.91-4.26-4.25-4.26-2.35,0-4.26,1.91-4.26,4.26s1.91,4.25,4.26,4.25,4.25-1.91,4.25-4.25ZM85.77,34.85c0,1.23-1,2.24-2.23,2.24s-2.23-1-2.23-2.24,1-2.23,2.23-2.23,2.23,1,2.23,2.23Z"/>
  <path class="cls-3" d="M87.79,8.41c0-2.35-1.91-4.26-4.25-4.26-2.35,0-4.26,1.91-4.26,4.26s1.91,4.26,4.26,4.26,4.25-1.91,4.25-4.26ZM85.77,8.41c0,1.24-1,2.24-2.23,2.24s-2.23-1-2.23-2.24,1-2.23,2.23-2.23,2.23,1,2.23,2.23Z"/>
  <rect class="cls-2" x="29.73" y="46.45" width="39.96" height="3.18"/>
  <rect class="cls-2" x="31.77" y="36.54" width="35.23" height="3.18"/>
  <rect class="cls-2" x="32.31" y="16.72" width="34.7" height="3.18"/>
  <rect class="cls-2" x="32.31" y="76.19" width="34.7" height="3.18"/>
  <rect class="cls-2" x="32.31" y="56.36" width="34.7" height="3.18"/>
  <rect class="cls-2" x="29.73" y="6.81" width="37.28" height="3.18"/>
  <rect class="cls-2" x="30.05" y="86.1" width="37.28" height="3.19"/>
  <path class="cls-3" d="M56.33,28.22c8.21-3.63,15.75-9.33,15.75-19.82h-4.78c0,7.71-5.29,12.91-17.59,17.28.26.09.51.19.78.28,2.11.7,4.04,1.45,5.84,2.25Z"/>
  <path class="cls-1" d="M43.1,67.86c-10.58,4.72-15.76,11.23-15.76,19.83h4.78c0-7.67,5.6-13.18,17.59-17.29-.25-.09-.49-.18-.75-.26-1.93-.67-3.92-1.41-5.86-2.27Z"/>
  <path class="cls-1" d="M56.33,28.22c-1.79-.8-3.73-1.56-5.84-2.25-.27-.09-.52-.19-.78-.28-12.31-4.38-17.59-9.58-17.59-17.28h-4.78c0,10.49,7.54,16.18,15.76,19.82,1.95.86,3.93,1.61,5.86,2.27.26.08.5.18.75.26,11.99,4.11,17.59,9.61,17.59,17.29s-5.29,12.91-17.59,17.28c.26.09.51.19.78.28,2.11.7,4.04,1.45,5.84,2.25,8.21-3.63,15.75-9.33,15.75-19.82,0-8.6-5.19-15.12-15.75-19.83Z"/>
  <path class="cls-3" d="M56.33,67.86c-1.79-.8-3.73-1.55-5.84-2.25-.27-.09-.52-.19-.78-.28-12.31-4.38-17.59-9.58-17.59-17.28s5.6-13.18,17.59-17.29c-.25-.09-.49-.18-.75-.26-1.93-.67-3.92-1.41-5.86-2.27-10.58,4.71-15.76,11.23-15.76,19.83,0,10.48,7.54,16.18,15.76,19.82,1.95.86,3.93,1.61,5.86,2.27.26.09.5.18.75.26,11.99,4.11,17.59,9.61,17.59,17.29h4.78c0-8.6-5.19-15.12-15.75-19.83Z"/>
  <path class="cls-1" d="M35.1,48.04c0,2.97-2.41,5.38-5.37,5.38s-5.37-2.41-5.37-5.38,2.41-5.37,5.37-5.37,5.37,2.41,5.37,5.37Z"/>
  <circle class="cls-3" cx="29.73" cy="8.4" r="5.37"/>
  <path class="cls-3" d="M35.43,87.69c0,2.97-2.41,5.38-5.38,5.38s-5.37-2.41-5.37-5.38,2.41-5.37,5.37-5.37,5.38,2.41,5.38,5.37Z"/>
  <path class="cls-1" d="M74.74,87.69c0,2.97-2.41,5.38-5.37,5.38s-5.38-2.41-5.38-5.38,2.41-5.37,5.38-5.37,5.37,2.41,5.37,5.37Z"/>
  <path class="cls-3" d="M74.42,48.04c0,2.97-2.41,5.38-5.37,5.38s-5.37-2.41-5.37-5.38,2.41-5.37,5.37-5.37,5.37,2.41,5.37,5.37Z"/>
  <circle class="cls-1" cx="69.04" cy="8.4" r="5.37"/>
</svg>