<?xml version="1.0" encoding="utf-8"?>
<!-- Generator: Adobe Illustrator 28.3.0, SVG Export Plug-In . SVG Version: 6.00 Build 0)  -->
<svg version="1.1" id="Layer_1" xmlns="http://www.w3.org/2000/svg" xmlns:xlink="http://www.w3.org/1999/xlink" x="0px" y="0px"
	 viewBox="0 0 100 100" style="enable-background:new 0 0 100 100;" xml:space="preserve">
<style type="text/css">
	.st0{fill:#76E7FC;}
	.st1{fill:#FBF3F3;}
	.st2{fill:#FF415B;}
	.st3{fill:#FF884D;}
	.st4{fill:#FFBB33;}
	.st5{fill:#FFDD33;}
	.st6{fill:#6680FF;}
	.st7{fill:#80AAFF;}
	.st8{fill:#E8E3F0;}
	.st9{fill:#53E261;}
</style>
<g>
	<g>
		<g id="_x31_7_x2C__Reliable_x2C__report_x2C__spreadsheet_x2C__business_and_finance_x2C__data_analytics_x2C__information">
			<g>
				<g>
					<path class="st0" d="M83.33,9.19v75.13h-6.68c-0.02-0.03-48.4-68.43-48.42-68.45V9.19H83.33z"/>
					<path class="st1" d="M76.65,91h-55.1c0-0.02,0-75.1,0-75.13c1.92,0,39.7,0,41.74,0l4.42,9.27l8.93,4.09
						C76.65,32.41,76.65,86.2,76.65,91z"/>
					<rect x="62.88" y="74.3" class="st2" width="7.1" height="10.02"/>
					<polygon class="st3" points="62.88,74.3 62.88,84.32 55.78,84.32 55.78,69.29 62.88,69.29 					"/>
					<polygon class="st4" points="55.78,69.29 55.78,84.32 48.69,84.32 48.69,64.28 55.78,64.28 					"/>
					<polygon class="st5" points="48.69,64.28 48.69,84.32 41.59,84.32 41.59,59.28 48.69,59.28 					"/>
					<rect x="48.27" y="42.58" class="st6" width="21.7" height="10.02"/>
					<rect x="48.27" y="35.9" class="st7" width="21.7" height="6.68"/>
					<polygon class="st2" points="48.27,42.58 48.27,52.6 38.25,52.6 38.25,35.9 48.27,35.9 					"/>
					<rect x="28.24" y="35.9" class="st3" width="10.02" height="16.7"/>
					<rect x="28.24" y="22.55" class="st0" width="28.38" height="6.68"/>
					<polygon class="st8" points="76.65,29.22 63.3,29.22 63.3,15.87 					"/>
					<path class="st9" d="M34.91,59.61v5.2c0,8.69-5.29,16.5-13.36,19.73C13.49,81.32,8.2,73.5,8.2,64.81v-5.2
						c2.33,0,4.65-0.3,6.89-0.9c2.24-0.59,4.4-1.48,6.42-2.64l0.05-0.03l0.05,0.03C25.66,58.39,30.25,59.61,34.91,59.61z"/>
					<g>
						<path d="M83.33,7.52h-55.1c-0.92,0-1.67,0.75-1.67,1.67v5.01h-5.01c-0.92,0-1.67,0.75-1.67,1.67v39.19
							c-3.6,1.89-7.62,2.88-11.69,2.88c-0.92,0-1.67,0.75-1.67,1.67v5.2c0,8.99,5.24,17.11,13.36,20.82V91
							c0,0.92,0.75,1.67,1.67,1.67h55.1c0.92,0,1.67-0.75,1.67-1.67v-5.01h5.01c0.92,0,1.67-0.75,1.67-1.67V9.19
							C85,8.27,84.25,7.52,83.33,7.52z M9.87,64.81v-3.58c4.08-0.24,8.07-1.36,11.69-3.28c3.61,1.92,7.61,3.03,11.69,3.28v3.58
							c0,7.83-4.56,14.79-11.69,17.92C14.43,79.6,9.87,72.64,9.87,64.81z M23.23,89.33v-3.69c8.11-3.72,13.36-11.83,13.36-20.82
							v-5.2c0-0.92-0.75-1.67-1.67-1.67c-4.07,0-8.09-0.99-11.69-2.88V17.54h38.4v11.69c0,0.92,0.75,1.67,1.67,1.67h11.69v58.43
							L23.23,89.33L23.23,89.33z M72.62,27.55h-7.66V19.9L72.62,27.55z M81.66,82.65h-3.34V29.22c0-0.45-0.18-0.87-0.49-1.18
							L64.48,14.69c-0.3-0.3-0.73-0.49-1.18-0.49H29.91v-3.34h51.76L81.66,82.65L81.66,82.65z"/>
						<path d="M28.15,65.05c-0.65-0.65-1.71-0.65-2.36,0l-6.94,6.94l-1.53-1.53c-0.65-0.65-1.71-0.65-2.36,0
							c-0.65,0.65-0.65,1.71,0,2.36l2.71,2.71c0.65,0.65,1.71,0.65,2.36,0l8.12-8.12C28.8,66.76,28.8,65.71,28.15,65.05z"/>
						<path d="M69.97,72.63h-5.43v-3.34c0-0.92-0.75-1.67-1.67-1.67h-5.43v-3.34c0-0.92-0.75-1.67-1.67-1.67h-5.43v-3.34
							c0-0.92-0.75-1.67-1.67-1.67h-7.1c-0.92,0-1.67,0.75-1.67,1.67v25.04c0,0.92,0.75,1.67,1.67,1.67c6.69,0,22.04,0,28.38,0
							c0.92,0,1.67-0.75,1.67-1.67V74.3C71.64,73.38,70.9,72.63,69.97,72.63z M43.26,60.95h3.76v3.34v18.37h-3.76V60.95z
							 M50.36,65.95h3.76c0,1.65,0,14.8,0,16.7h-3.76V65.95z M57.45,70.96h3.76c0,3.16,0,9.61,0,11.69h-3.76V70.96z M68.3,82.65
							h-3.76v-6.68h3.76V82.65z"/>
						<path d="M69.97,34.23H28.24c-0.92,0-1.67,0.75-1.67,1.67v16.7c0,0.92,0.75,1.67,1.67,1.67h41.74c0.92,0,1.67-0.75,1.67-1.67
							V35.9C71.64,34.98,70.9,34.23,69.97,34.23z M68.3,40.91H49.94v-3.34H68.3V40.91z M46.6,50.93h-6.68V37.57h6.68V50.93z
							 M29.91,37.57h6.68v13.36h-6.68V37.57z M49.94,50.93v-6.68H68.3v6.68H49.94z"/>
						<path d="M28.24,30.89h28.38c0.92,0,1.67-0.75,1.67-1.67v-6.68c0-0.92-0.75-1.67-1.67-1.67H28.24c-0.92,0-1.67,0.75-1.67,1.67
							v6.68C26.57,30.15,27.31,30.89,28.24,30.89z M29.91,24.22h25.04v3.34H29.91V24.22L29.91,24.22z"/>
					</g>
				</g>
			</g>
		</g>
	</g>
	<g>
		
			<g id="_x31_7_x2C__Reliable_x2C__report_x2C__spreadsheet_x2C__business_and_finance_x2C__data_analytics_x2C__information_00000183214240108159583170000008468628145007143853_">
			<g>
				<g>
					<path class="st0" d="M87.16,5.02v82.79H79.8c-0.02-0.03-53.34-75.41-53.35-75.43V5.02H87.16z"/>
					<path class="st1" d="M79.8,95.17H19.09c0-0.02,0-82.76,0-82.79c2.12,0,43.75,0,45.99,0l4.88,10.21l9.84,4.51
						C79.8,30.6,79.8,89.89,79.8,95.17z"/>
					<rect x="64.62" y="76.77" class="st2" width="7.82" height="11.04"/>
					<polygon class="st3" points="64.62,76.77 64.62,87.81 56.8,87.81 56.8,71.25 64.62,71.25 					"/>
					<polygon class="st4" points="56.8,71.25 56.8,87.81 48.99,87.81 48.99,65.73 56.8,65.73 					"/>
					<polygon class="st5" points="48.99,65.73 48.99,87.81 41.17,87.81 41.17,60.21 48.99,60.21 					"/>
					<rect x="48.53" y="41.81" class="st6" width="23.92" height="11.04"/>
					<rect x="48.53" y="34.46" class="st7" width="23.92" height="7.36"/>
					<polygon class="st2" points="48.53,41.81 48.53,52.85 37.49,52.85 37.49,34.46 48.53,34.46 					"/>
					<rect x="26.45" y="34.46" class="st3" width="11.04" height="18.4"/>
					<rect x="26.45" y="19.74" class="st0" width="31.28" height="7.36"/>
					<polygon class="st8" points="79.8,27.1 65.08,27.1 65.08,12.38 					"/>
					<path class="st9" d="M33.81,60.58v5.73c0,9.57-5.83,18.18-14.72,21.74C10.2,84.5,4.37,75.89,4.37,66.31v-5.73
						c2.57,0,5.12-0.33,7.59-0.99c2.47-0.66,4.85-1.63,7.08-2.9l0.05-0.03l0.05,0.03C23.61,59.24,28.66,60.58,33.81,60.58z"/>
					<g>
						<path d="M87.16,3.18H26.45c-1.02,0-1.84,0.82-1.84,1.84v5.52h-5.52c-1.02,0-1.84,0.82-1.84,1.84v43.19
							c-3.96,2.08-8.39,3.18-12.88,3.18c-1.02,0-1.84,0.82-1.84,1.84v5.73c0,9.91,5.78,18.85,14.72,22.95v5.91
							c0,1.02,0.82,1.84,1.84,1.84H79.8c1.02,0,1.84-0.82,1.84-1.84v-5.52h5.52c1.02,0,1.84-0.82,1.84-1.84V5.02
							C89,4,88.18,3.18,87.16,3.18z M6.21,66.32v-3.95c4.5-0.26,8.9-1.5,12.88-3.61c3.98,2.11,8.38,3.34,12.88,3.61v3.95
							c0,8.63-5.03,16.3-12.88,19.74C11.24,82.61,6.21,74.94,6.21,66.32z M20.93,93.33v-4.07c8.94-4.1,14.72-13.04,14.72-22.95
							v-5.73c0-1.02-0.82-1.84-1.84-1.84c-4.48,0-8.91-1.1-12.88-3.17V14.22h42.31V27.1c0,1.02,0.82,1.84,1.84,1.84h12.88v64.39
							L20.93,93.33L20.93,93.33z M75.36,25.26h-8.44v-8.44L75.36,25.26z M85.32,85.97h-3.68V27.1c0-0.49-0.2-0.96-0.54-1.3
							L66.38,11.08c-0.33-0.33-0.8-0.54-1.3-0.54h-36.8V6.86h57.03L85.32,85.97L85.32,85.97z"/>
						<path d="M26.36,66.58c-0.72-0.72-1.88-0.72-2.6,0l-7.65,7.65l-1.68-1.68c-0.72-0.72-1.88-0.72-2.6,0
							c-0.72,0.72-0.72,1.88,0,2.6l2.98,2.98c0.72,0.72,1.88,0.72,2.6,0l8.95-8.95C27.07,68.46,27.07,67.3,26.36,66.58z"/>
						<path d="M72.44,74.93h-5.98v-3.68c0-1.02-0.82-1.84-1.84-1.84h-5.98v-3.68c0-1.02-0.82-1.84-1.84-1.84h-5.98v-3.68
							c0-1.02-0.82-1.84-1.84-1.84h-7.82c-1.02,0-1.84,0.82-1.84,1.84v27.6c0,1.02,0.82,1.84,1.84,1.84c7.37,0,24.28,0,31.28,0
							c1.02,0,1.84-0.82,1.84-1.84V76.77C74.28,75.75,73.46,74.93,72.44,74.93z M43.01,62.05h4.14v3.68v20.24h-4.14V62.05z
							 M50.83,67.57h4.14c0,1.82,0,16.31,0,18.4h-4.14V67.57z M58.64,73.09h4.14c0,3.48,0,10.59,0,12.88h-4.14V73.09z M70.6,85.97
							h-4.14v-7.36h4.14V85.97z"/>
						<path d="M72.44,32.62H26.45c-1.02,0-1.84,0.82-1.84,1.84v18.4c0,1.02,0.82,1.84,1.84,1.84h45.99c1.02,0,1.84-0.82,1.84-1.84
							v-18.4C74.28,33.44,73.46,32.62,72.44,32.62z M70.6,39.97H50.37V36.3H70.6V39.97z M46.69,51.01h-7.36V36.3h7.36V51.01z
							 M28.29,36.3h7.36v14.72h-7.36V36.3z M50.37,51.01v-7.36H70.6v7.36H50.37z"/>
						<path d="M26.45,28.94h31.28c1.02,0,1.84-0.82,1.84-1.84v-7.36c0-1.02-0.82-1.84-1.84-1.84H26.45c-1.02,0-1.84,0.82-1.84,1.84
							v7.36C24.61,28.11,25.43,28.94,26.45,28.94z M28.29,21.58h27.6v3.68h-27.6V21.58L28.29,21.58z"/>
					</g>
				</g>
			</g>
		</g>
	</g>
</g>
</svg>
