<?xml version="1.0" encoding="UTF-8"?>
<svg id="Layer_1" data-name="Layer 1" xmlns="http://www.w3.org/2000/svg" version="1.1" viewBox="0 0 100 100">
  <defs>
    <style>
      .cls-1 {
        fill: #000;
      }

      .cls-1, .cls-2, .cls-3, .cls-4, .cls-5 {
        stroke-width: 0px;
      }

      .cls-2 {
        fill: #e84c3d;
      }

      .cls-3 {
        fill: #fff8d1;
      }

      .cls-4 {
        fill: #00adef;
      }

      .cls-5 {
        fill: #707384;
      }
    </style>
  </defs>
  <g>
    <path class="cls-4" d="M24.99,10.09h48.2v11.99h-2.69v6.45c-2.27.4-4.37,1.29-6.18,2.56l-4.56-4.56-3.8,3.8,4.56,4.56c-1.27,1.82-2.17,3.91-2.56,6.19h-6.45v5.38h6.45c.4,2.27,1.29,4.37,2.56,6.18l-4.56,4.57,3.8,3.8,4.56-4.56c1.82,1.27,3.91,2.16,6.18,2.55v6.46h2.69v9.57c-1.77-1.67-4.16-2.68-6.78-2.68-3.74,0-6.97,2.05-8.68,5.1H24.99V10.09Z"/>
    <path class="cls-1" d="M57.73,78.14H24.99c-.38,0-.69-.31-.69-.69V10.09c0-.38.31-.69.69-.69h48.2c.38,0,.69.31.69.69v11.99c0,.38-.31.69-.69.69h-2.01v5.77c0,.33-.24.62-.57.68-2.13.37-4.12,1.19-5.91,2.45-.27.19-.64.16-.88-.08l-4.07-4.07-2.83,2.83,4.08,4.08c.23.23.27.61.08.88-1.26,1.8-2.08,3.79-2.45,5.91-.06.33-.34.57-.68.57h-5.77v4.01h5.77c.33,0,.62.24.67.56.38,2.12,1.22,4.16,2.45,5.9.19.27.16.64-.08.88l-4.08,4.09,2.83,2.83,4.07-4.08c.24-.23.6-.27.88-.08,1.78,1.25,3.77,2.07,5.91,2.44.33.06.57.34.57.68v5.78h2.01c.38,0,.69.31.69.69v9.57c0,.27-.16.52-.41.63-.25.11-.54.06-.74-.13-1.71-1.61-3.95-2.5-6.31-2.5-3.34,0-6.44,1.82-8.08,4.75-.12.22-.35.35-.6.35ZM25.67,76.77h31.66c1.93-3.15,5.37-5.1,9.07-5.1,2.21,0,4.32.68,6.1,1.92v-7.45h-2.01c-.38,0-.69-.31-.69-.69v-5.9c-1.94-.41-3.75-1.16-5.41-2.24l-4.16,4.16c-.26.26-.71.26-.97,0l-3.8-3.8c-.27-.27-.27-.7,0-.97l4.16-4.17c-1.06-1.63-1.83-3.48-2.24-5.41h-5.89c-.38,0-.69-.31-.69-.69v-5.38c0-.38.31-.69.69-.69h5.89c.4-1.92,1.16-3.74,2.25-5.42l-4.16-4.16c-.13-.13-.2-.3-.2-.48s.07-.36.2-.48l3.8-3.8c.13-.13.3-.2.49-.2h0c.18,0,.36.07.49.2l4.16,4.16c1.67-1.08,3.49-1.84,5.41-2.24v-5.89c0-.38.31-.69.69-.69h2.01v-10.62H25.67v66Z"/>
  </g>
  <g>
    <path class="cls-3" d="M16.15,17.12h8.84v60.34h32.74c-.79,1.43-1.25,3.09-1.25,4.84,0,.76.08,1.48.23,2.19H16.15V17.12Z"/>
    <path class="cls-1" d="M56.73,85.17s-.01,0-.02,0H16.15c-.38,0-.69-.31-.69-.69V17.12c0-.38.31-.69.69-.69h8.84c.38,0,.69.31.69.69v59.65h32.05c.24,0,.47.13.59.34.12.21.13.47.01.68-.76,1.38-1.16,2.94-1.16,4.51,0,.64.06,1.26.19,1.89.04.09.07.19.07.3,0,.38-.31.69-.69.69ZM16.83,83.8h39.06c-.07-.5-.1-1-.1-1.5,0-1.43.29-2.84.84-4.15h-31.65c-.38,0-.69-.31-.69-.69V17.8h-7.47v66Z"/>
  </g>
  <g>
    <path class="cls-5" d="M66.41,72.36c5.48,0,9.93,4.45,9.93,9.93s-4.45,9.93-9.93,9.93-9.93-4.44-9.93-9.93,4.44-9.93,9.93-9.93Z"/>
    <path class="cls-1" d="M66.41,92.92c-5.85,0-10.61-4.76-10.61-10.62s4.76-10.62,10.61-10.62,10.62,4.76,10.62,10.62-4.76,10.62-10.62,10.62ZM66.41,73.05c-5.1,0-9.24,4.15-9.24,9.25s4.15,9.25,9.24,9.25,9.24-4.15,9.24-9.25-4.15-9.25-9.24-9.25Z"/>
  </g>
  <path class="cls-1" d="M63.98,87.14h0c-.2,0-.4-.09-.53-.25l-2.19-2.67c-.24-.29-.2-.73.1-.97.29-.24.72-.2.97.1l1.67,2.04,6.49-7.67c.25-.29.68-.32.97-.08.29.24.33.68.08.97l-7.02,8.3c-.13.15-.32.24-.52.24Z"/>
  <g>
    <path class="cls-2" d="M75.88,28.53c2.26.4,4.37,1.29,6.17,2.56l4.56-4.56,3.81,3.8-4.56,4.56c1.27,1.82,2.16,3.91,2.55,6.19h6.46v5.38h-6.46c-.39,2.27-1.28,4.37-2.55,6.18l4.56,4.57-3.81,3.8-4.56-4.56c-1.82,1.27-3.91,2.16-6.17,2.55v6.46h-5.38v-6.46c-2.27-.4-4.37-1.28-6.18-2.55l-4.56,4.56-3.8-3.8,4.56-4.57c-1.27-1.8-2.17-3.91-2.56-6.18h-6.45v-5.38h6.45c.39-2.27,1.29-4.37,2.56-6.19l-4.56-4.56,3.8-3.8,4.56,4.56c1.82-1.27,3.91-2.17,6.18-2.56v-6.45h5.38v6.45Z"/>
    <path class="cls-1" d="M75.88,66.15h-5.38c-.38,0-.69-.31-.69-.69v-5.9c-1.94-.41-3.75-1.16-5.41-2.24l-4.16,4.16c-.26.26-.71.26-.97,0l-3.8-3.8c-.27-.27-.27-.7,0-.97l4.16-4.17c-1.07-1.65-1.84-3.5-2.24-5.41h-5.89c-.38,0-.69-.31-.69-.69v-5.38c0-.38.31-.69.69-.69h5.89c.4-1.92,1.16-3.74,2.25-5.42l-4.16-4.16c-.13-.13-.2-.3-.2-.48s.07-.36.2-.48l3.8-3.8c.13-.13.3-.2.49-.2h0c.18,0,.36.07.49.2l4.16,4.16c1.67-1.08,3.49-1.84,5.41-2.24v-5.89c0-.38.31-.69.69-.69h5.38c.38,0,.69.31.69.69v5.89c1.92.41,3.77,1.18,5.4,2.24l4.16-4.16c.27-.27.7-.27.97,0l3.81,3.8c.13.13.2.3.2.49,0,.18-.07.36-.2.49l-4.16,4.16c1.08,1.66,1.83,3.48,2.23,5.42h5.9c.38,0,.69.31.69.69v5.38c0,.38-.31.69-.69.69h-5.9c-.41,1.92-1.17,3.77-2.23,5.41l4.16,4.17c.27.27.27.7,0,.97l-3.81,3.8c-.27.27-.7.27-.97,0l-4.16-4.16c-1.66,1.08-3.47,1.83-5.4,2.24v5.9c0,.38-.31.69-.69.69ZM71.18,64.78h4.01v-5.78c0-.33.24-.62.57-.68,2.13-.37,4.12-1.19,5.9-2.44.27-.19.64-.16.88.08l4.07,4.08,2.84-2.84-4.08-4.09c-.24-.24-.27-.61-.08-.88,1.23-1.74,2.07-3.78,2.44-5.9.06-.33.34-.57.68-.57h5.78v-4.01h-5.78c-.33,0-.62-.24-.68-.57-.37-2.14-1.19-4.13-2.44-5.91-.19-.27-.16-.64.08-.88l4.08-4.08-2.84-2.83-4.07,4.08c-.24.24-.61.27-.88.08-1.74-1.22-3.78-2.07-5.9-2.45-.33-.06-.57-.34-.57-.67v-5.77h-4.01v5.77c0,.33-.24.62-.57.68-2.13.37-4.12,1.19-5.91,2.45-.27.19-.64.16-.88-.08l-4.07-4.07-2.83,2.83,4.08,4.08c.23.23.27.61.08.88-1.26,1.8-2.08,3.79-2.45,5.91-.06.33-.34.57-.68.57h-5.77v4.01h5.77c.33,0,.62.24.68.57.36,2.1,1.21,4.14,2.45,5.9.19.27.16.64-.08.88l-4.08,4.09,2.83,2.83,4.07-4.08c.24-.23.6-.27.88-.08,1.78,1.25,3.77,2.07,5.91,2.44.33.06.57.34.57.68v5.78Z"/>
  </g>
  <g>
    <path class="cls-3" d="M73.19,34.3c5.22,0,9.46,4.23,9.46,9.47s-4.24,9.46-9.46,9.46-9.46-4.24-9.46-9.46,4.23-9.47,9.46-9.47Z"/>
    <path class="cls-1" d="M73.19,53.92c-5.59,0-10.15-4.55-10.15-10.15s4.55-10.15,10.15-10.15,10.15,4.55,10.15,10.15-4.55,10.15-10.15,10.15ZM73.19,34.99c-4.84,0-8.78,3.94-8.78,8.78s3.94,8.78,8.78,8.78,8.77-3.94,8.77-8.78-3.94-8.78-8.77-8.78Z"/>
  </g>
  <path class="cls-1" d="M73.19,48.46c-2.59,0-4.69-2.1-4.69-4.69s2.1-4.69,4.69-4.69,4.69,2.1,4.69,4.69-2.1,4.69-4.69,4.69ZM73.19,40.45c-1.83,0-3.32,1.49-3.32,3.32s1.49,3.32,3.32,3.32,3.32-1.49,3.32-3.32-1.49-3.32-3.32-3.32Z"/>
  <path class="cls-1" d="M46.89,37.27h-13.08c-.38,0-.69-.31-.69-.69s.31-.69.69-.69h13.08c.38,0,.69.31.69.69s-.31.69-.69.69Z"/>
  <path class="cls-1" d="M46.89,41.37h-8.98c-.38,0-.69-.31-.69-.69s.31-.69.69-.69h8.98c.38,0,.69.31.69.69s-.31.69-.69.69Z"/>
  <path class="cls-1" d="M49.45,58.84h-13.08c-.38,0-.69-.31-.69-.69s.31-.69.69-.69h13.08c.38,0,.69.31.69.69s-.31.69-.69.69Z"/>
  <path class="cls-1" d="M49.45,62.94h-8.98c-.38,0-.69-.31-.69-.69s.31-.69.69-.69h8.98c.38,0,.69.31.69.69s-.31.69-.69.69Z"/>
</svg>