<?xml version="1.0" encoding="utf-8"?>
<!-- Generator: Adobe Illustrator 28.3.0, SVG Export Plug-In . SVG Version: 6.00 Build 0)  -->
<svg version="1.1" id="Layer_1" xmlns="http://www.w3.org/2000/svg" xmlns:xlink="http://www.w3.org/1999/xlink" x="0px" y="0px"
	 viewBox="0 0 100 100" style="enable-background:new 0 0 100 100;" xml:space="preserve">
<style type="text/css">
	.st0{fill:#76E7FC;}
	.st1{fill:#FBF3F3;}
	.st2{fill:#FF415B;}
	.st3{fill:#FF884D;}
	.st4{fill:#FFBB33;}
	.st5{fill:#FFDD33;}
	.st6{fill:#6680FF;}
	.st7{fill:#80AAFF;}
	.st8{fill:#E8E3F0;}
	.st9{fill:#53E261;}
	.st10{fill:#FFBB00;}
	.st11{fill:#7CBB00;}
	.st12{fill:#00A1F1;}
	.st13{fill:#F65314;}
	.st14{fill:#1A171B;}
	.st15{fill:#A8796F;}
	.st16{fill:#DCEEF4;}
	.st17{fill:#6BDF1E;}
	.st18{fill:#FFD92C;}
	.st19{fill:#00D9FF;}
	.st20{fill:#09BEEF;}
	.st21{fill:#2AD7F6;}
	.st22{fill:#FD641A;}
	.st23{fill:#FDCBBC;}
	.st24{fill:#EDEBFD;}
	.st25{fill:#D1D1EF;}
	.st26{fill:#FADE65;}
	.st27{fill:#615285;}
	.st28{fill:#59D5FF;}
	.st29{fill:#FF8C8A;}
	.st30{fill:#09D069;}
	.st31{fill:#10AF58;}
	.st32{fill:#FEE700;}
	.st33{fill:#FECC00;}
	.st34{fill:#4BF7FF;}
	.st35{fill:#62CAF1;}
	.st36{fill:#FE2640;}
	.st37{fill:#070606;}
	.st38{fill:#445F80;}
	.st39{fill:#01E68E;}
	.st40{fill:#FDB42D;}
	.st41{fill:#06C27A;}
	.st42{fill:#FDD92E;}
	.st43{fill:#D9E4FE;}
	.st44{fill:#E8F0FE;}
	.st45{fill:#ABCAF2;}
</style>
<g>
	<g>
		<g id="_x34_5_x2C__Video_Card_x2C__digital_art_x2C__graphic_card_x2C__gpu_x2C__vga_card">
			<g>
				<polygon class="st38" points="14.82,63.49 17.34,73.73 14.82,84.87 5.92,84.87 5.92,63.49 				"/>
				<polygon class="st38" points="14.82,40.33 17.34,46.56 14.82,52.8 5.92,52.8 5.92,40.33 				"/>
				<path class="st39" d="M21.95,29.64v55.23h8.91l7.1,2.21l8.94-2.21h10.69l16.95,2.92l11.56-2.92h7.13V29.64
					C89.02,29.64,25.32,29.64,21.95,29.64z"/>
				<path class="st40" d="M93.22,13.04v16.58c-16.48,9.39-14.5,8.26-14.66,8.35c-0.27-0.15,2.22,1.26-14.66-8.35V13.04l14.66-8.35
					L93.22,13.04z"/>
				<rect x="57.58" y="84.87" class="st41" width="28.51" height="7.13"/>
				<polygon class="st42" points="86.09,17.19 86.09,25.48 78.56,29.77 71.03,25.48 71.03,17.19 78.56,12.9 				"/>
				<path class="st43" d="M54.47,55.47l-3.16-9.66l-10.73,1.64l0,0c-1.67,2.88-2.62,6.23-2.62,9.8c0,3.57,0.95,6.92,2.62,9.8l0,0
					l13.89-8.02h0L54.47,55.47L54.47,55.47L54.47,55.47L54.47,55.47z"/>
				<rect x="30.86" y="84.87" class="st41" width="16.04" height="7.13"/>
				<path class="st42" d="M21.95,92h-7.13c0-19.04,0-43.36,0-62.36H5.92v-7.13h16.04v7.13h-0.06C21.89,29.66,21.95,91.98,21.95,92z"
					/>
				<path class="st44" d="M54.47,59.03c-0.03,0-0.32-0.02-0.3-0.02c-5.74-0.31-11.1,2.86-13.59,8.03l0,0
					c3.39,5.86,9.72,9.8,16.98,9.8V60.82L54.47,59.03z"/>
				<path class="st43" d="M74.53,67.05l-13.89-8.02h0l-3.08,1.78l-0.16,0.25c-3.14,4.81-3.07,11.04,0.16,15.79
					C64.81,76.85,71.14,72.91,74.53,67.05L74.53,67.05z"/>
				<path class="st44" d="M74.53,47.45L74.53,47.45l-13.89,8.02h0v3.56h0l0.14,0.26c2.6,5.12,8.02,8.18,13.75,7.75l0,0
					C78.03,61.01,78.03,53.51,74.53,47.45z"/>
				<path class="st43" d="M57.55,37.65v16.04l3.08,1.78c0.03,0,0.32,0.02,0.3,0.02c5.74,0.31,11.1-2.86,13.59-8.03l0,0
					C71.14,41.6,64.81,37.65,57.55,37.65z"/>
				<path class="st44" d="M57.55,37.65c3.24,4.75,3.3,10.98,0.16,15.79l-0.16,0.25c-1.32,0-2.47,0.72-3.08,1.78h0l-0.13-0.26
					c-2.6-5.12-8.02-8.18-13.75-7.75l0,0C43.97,41.6,50.3,37.65,57.55,37.65z"/>
				<path class="st45" d="M60.64,59.03c-0.61,1.07-1.77,1.78-3.08,1.78c-1.98,0-3.56-1.62-3.56-3.56c0-1.94,1.58-3.56,3.56-3.56
					C60.31,53.69,62,56.69,60.64,59.03z"/>
				<g>
					<path d="M78.94,57.25c0-3.85-1.03-7.47-2.82-10.6c-0.04-0.07-0.07-0.14-0.12-0.2c-3.96-6.74-11.25-10.68-18.46-10.58
						c-11.74,0.01-21.36,9.56-21.36,21.38c0,3.85,1.03,7.47,2.82,10.6c0.04,0.07,0.07,0.14,0.12,0.2
						c3.72,6.32,10.59,10.58,18.44,10.58c8.11-0.08,14.79-4.37,18.44-10.57c0.05-0.07,0.09-0.14,0.12-0.21
						C77.91,64.73,78.94,61.11,78.94,57.25z M40.81,63.34c-1.62-4.45-1.45-9.6,0.86-14.14c4.49,0,8.62,2.41,10.83,6.35
						c-0.19,0.56-0.28,1.13-0.28,1.72C47.7,57.59,43.57,59.81,40.81,63.34z M55.77,57.25c0-0.98,0.8-1.78,1.78-1.78
						c0.98,0,1.78,0.8,1.78,1.78c0,0.98-0.8,1.78-1.78,1.78C56.57,59.03,55.77,58.24,55.77,57.25z M62.9,57.24
						c4.52-0.33,8.64-2.55,11.4-6.08c0.69,1.9,1.07,3.95,1.07,6.08c0,2.9-0.7,5.64-1.93,8.06c-4.49,0-8.62-2.41-10.83-6.35
						C62.81,58.41,62.9,57.84,62.9,57.24z M72.47,47.53c-2.25,3.88-6.4,6.26-10.91,6.2c-0.38-0.44-0.84-0.81-1.35-1.1
						c1.97-4.08,2.12-8.76,0.44-12.91C65.59,40.58,69.83,43.48,72.47,47.53z M56.59,39.46c2.24,3.89,2.22,8.67-0.08,12.55
						c-0.58,0.12-1.13,0.33-1.63,0.62c-2.54-3.74-6.52-6.21-10.95-6.84C47,42.14,51.52,39.74,56.59,39.46z M42.63,66.98
						c2.25-3.88,6.4-6.25,10.91-6.2c0.38,0.44,0.84,0.81,1.35,1.1c-1.97,4.08-2.11,8.76-0.44,12.92
						C49.52,73.93,45.28,71.02,42.63,66.98z M58.52,75.04c-2.24-3.89-2.22-8.67,0.08-12.55c0.58-0.12,1.13-0.33,1.63-0.62
						c2.54,3.74,6.52,6.21,10.95,6.84C68.11,72.37,63.59,74.77,58.52,75.04z"/>
					<path d="M95,13.04c0-0.64-0.34-1.23-0.9-1.55L79.44,3.14c-0.55-0.31-1.22-0.31-1.76,0L63.02,11.5c-0.56,0.32-0.9,0.91-0.9,1.55
						v14.81H23.73v-5.35c0-0.98-0.8-1.78-1.78-1.78H5.92c-0.98,0-1.78,0.8-1.78,1.78v7.13c0,0.98,0.8,1.78,1.78,1.78h7.13v7.13H5.92
						c-0.98,0-1.78,0.8-1.78,1.78V52.8c0,0.98,0.8,1.78,1.78,1.78h7.13v7.13H5.92c-0.98,0-1.78,0.8-1.78,1.78v21.38
						c0,0.98,0.8,1.78,1.78,1.78h7.13V92c0,0.98,0.8,1.78,1.78,1.78h7.13c0.98,0,1.78-0.8,1.78-1.78v-5.34h5.34V92
						c0,0.98,0.8,1.78,1.78,1.78h16.04c0.98,0,1.78-0.8,1.78-1.78v-5.34h7.13V92c0,0.98,0.8,1.78,1.78,1.78h28.51
						c0.98,0,1.78-0.8,1.78-1.78v-5.34h5.35c0.98,0,1.78-0.8,1.78-1.78C95,83.03,95,14.54,95,13.04z M65.68,14.08l12.88-7.34
						l12.88,7.34v14.5l-12.88,7.34l-12.88-7.34V14.08z M7.7,51.02v-8.91h5.34v8.91H7.7z M7.7,83.09V65.27h5.34v17.82H7.7z
						 M20.17,90.21h-3.56c0-11.4,0-46.96,0-60.58c0-0.98-0.8-1.78-1.78-1.78H7.7v-3.56h12.47C20.09,28.04,20.17,90.19,20.17,90.21z
						 M45.11,90.21H32.64v-3.56h12.47V90.21z M84.31,90.21H59.37v-3.56h24.94V90.21z M23.73,83.09V31.42h39.73l14.22,8.1
						c0.55,0.31,1.22,0.31,1.76,0l11.99-6.83v50.4C83.23,83.09,31.02,83.09,23.73,83.09z"/>
					<path d="M79.44,31.32l7.53-4.29c0.56-0.32,0.9-0.91,0.9-1.55v-8.29c0-0.64-0.34-1.23-0.9-1.55l-7.53-4.29
						c-0.55-0.31-1.22-0.31-1.76,0l-7.53,4.29c-0.56,0.32-0.9,0.91-0.9,1.55v8.29c0,0.64,0.34,1.23,0.9,1.55l7.53,4.29
						C78.23,31.63,78.9,31.63,79.44,31.32z M72.81,24.44v-6.22l5.75-3.28l5.75,3.28v6.22l-5.75,3.28L72.81,24.44z"/>
					<path d="M30.86,74.18c-0.98,0-1.77,0.79-1.77,1.77c0,0.98,0.79,1.77,1.77,1.77c0.98,0,1.77-0.79,1.77-1.77
						C32.63,74.97,31.84,74.18,30.86,74.18z"/>
					<path d="M84.31,74.18c0.98,0,1.77,0.79,1.77,1.77c0,0.98-0.79,1.77-1.77,1.77s-1.77-0.79-1.77-1.77
						C82.54,74.97,83.33,74.18,84.31,74.18z"/>
					<path d="M30.86,36.77c-0.98,0-1.77,0.79-1.77,1.77c0,0.98,0.79,1.77,1.77,1.77c0.98,0,1.77-0.79,1.77-1.77
						C32.63,37.57,31.84,36.77,30.86,36.77z"/>
				</g>
			</g>
		</g>
	</g>
</g>
</svg>
