<?xml version="1.0" encoding="UTF-8"?>
<svg id="Layer_1" data-name="Layer 1" xmlns="http://www.w3.org/2000/svg" version="1.1" viewBox="0 0 100 100">
  <defs>
    <style>
      .cls-1 {
        fill: #e84c3d;
      }

      .cls-1, .cls-2, .cls-3, .cls-4 {
        stroke: #000;
        stroke-linecap: round;
        stroke-linejoin: round;
        stroke-width: 1.3px;
      }

      .cls-2 {
        fill: #faca44;
      }

      .cls-3 {
        fill: none;
      }

      .cls-4 {
        fill: #00adef;
      }
    </style>
  </defs>
  <g>
    <path class="cls-4" d="M97.97,59.15c0,2.17-1.75,3.92-3.93,3.92s-3.93-1.75-3.93-3.92,1.76-3.94,3.93-3.94,3.93,1.76,3.93,3.94Z"/>
    <path class="cls-4" d="M79.98,26.61c0-2.17,1.76-3.92,3.94-3.92s3.92,1.75,3.92,3.92-1.75,3.94-3.92,3.94-3.94-1.76-3.94-3.94Z"/>
    <path class="cls-2" d="M75.57,87.8c2.17,0,3.92,1.75,3.92,3.93s-1.75,3.93-3.92,3.93-3.94-1.76-3.94-3.93,1.76-3.93,3.94-3.93Z"/>
    <path class="cls-2" d="M53.56,3.62c2.15,0,3.92,1.76,3.92,3.93s-1.76,3.93-3.92,3.93-3.94-1.75-3.94-3.93,1.75-3.93,3.94-3.93Z"/>
    <path class="cls-1" d="M26.14,69.23c0-1.01-.82-1.83-1.83-1.83s-1.84.82-1.84,1.83.82,1.85,1.84,1.85,1.83-.83,1.83-1.85ZM30.25,40.93c0-1.01-.82-1.85-1.83-1.85s-1.85.83-1.85,1.85.83,1.83,1.85,1.83,1.83-.82,1.83-1.83ZM15.05,47.49c0-1.01-.82-1.83-1.83-1.83s-1.85.82-1.85,1.83c0,.02,0,.06.01.08.04.98.85,1.75,1.84,1.75s1.83-.82,1.83-1.84ZM24.27,30.87c0-1.01-.82-1.84-1.83-1.84s-1.84.82-1.84,1.84.82,1.82,1.84,1.82,1.83-.81,1.83-1.82ZM20.22,58.57c0-1-.82-1.84-1.83-1.84s-1.82.83-1.82,1.84.81,1.83,1.82,1.83,1.83-.81,1.83-1.83ZM15.44,29.97c.11-5.9,4.94-10.65,10.85-10.65,1.33,0,2.61.24,3.78.68v.07c.41-.07.8-.1,1.2-.1,2.38,0,4.56.98,6.13,2.55,1.57,1.58,2.55,3.75,2.55,6.15v47.83c0,4.78-3.91,8.69-8.68,8.69-1.14,0-2.24-.21-3.24-.62-1.24.8-2.74,1.26-4.32,1.26-3.62,0-6.68-2.39-7.68-5.68-5.99,0-9.78-4.84-9.78-10.82,0-1.12.17-2.21.49-3.22l-.24-.07c-2.11-1.99-3.43-4.8-3.43-7.91s1.31-5.92,3.4-7.9l-.1-.1c-.97-1.63-1.55-3.52-1.55-5.57,0-4.22,2.4-7.87,5.9-9.66l.23.03c.65-2.22,2.24-4.01,4.3-4.97h.19ZM20.06,44.76c0,1.01.82,1.85,1.84,1.85s1.84-.83,1.84-1.85-.83-1.83-1.84-1.83-1.84.82-1.84,1.83Z"/>
  </g>
  <g>
    <path class="cls-3" d="M43.27,22.24h3.52v9.38c3.3.58,6.34,1.88,8.97,3.72l6.64-6.63,5.52,5.53-6.62,6.65c1.84,2.62,3.13,5.67,3.71,8.97h9.37v7.83h-9.37c-.59,3.3-1.87,6.35-3.71,8.98l6.62,6.62-2.76,2.76-2.76,2.77-6.64-6.64c-2.63,1.86-5.67,3.13-8.98,3.73v9.38h-3.51"/>
    <path class="cls-3" d="M43.27,40.02c7.41.22,13.36,6.29,13.36,13.76s-5.95,13.54-13.36,13.74"/>
    <path class="cls-3" d="M43.27,47.96c3.02.19,5.42,2.73,5.42,5.81s-2.39,5.6-5.42,5.8"/>
    <path class="cls-3" d="M39.95,76.51c0,4.78-3.91,8.69-8.68,8.69-1.14,0-2.24-.21-3.24-.62-1.24.8-2.74,1.26-4.32,1.26-3.62,0-6.68-2.39-7.68-5.68-.23-.72-.35-1.51-.35-2.32,0-4.05,3-7.4,6.9-7.95"/>
    <path class="cls-3" d="M22.58,28.67c0-4.38,3.27-8.03,7.5-8.6.39-.07.79-.1,1.19-.1,2.38,0,4.56.98,6.13,2.55,1.57,1.58,2.55,3.75,2.55,6.15"/>
    <path class="cls-3" d="M16.03,80.15c-5.99,0-9.78-4.84-9.78-10.82,0-1.12.17-2.21.49-3.22,1.32-4.25,5.19-7.4,9.82-7.63"/>
    <path class="cls-3" d="M6.5,66.05c-2.11-1.99-3.43-4.8-3.43-7.91s1.31-5.92,3.4-7.9c1.35-1.27,3.04-2.22,4.91-2.67"/>
    <path class="cls-3" d="M6.38,50.14c-.97-1.63-1.55-3.52-1.55-5.57,0-4.22,2.4-7.87,5.9-9.66"/>
    <path class="cls-3" d="M26.29,41.03c-5.98,0-10.85-4.86-10.85-10.85v-.2c.11-5.9,4.94-10.65,10.85-10.65,1.33,0,2.61.24,3.78.68"/>
    <path class="cls-3" d="M19.56,44.01c-4.43,0-8.95-2.32-8.95-6.76,0-.8.12-1.58.35-2.31.65-2.22,2.24-4.01,4.3-4.97"/>
    <line class="cls-3" x1="39.95" y1="28.67" x2="39.95" y2="76.51"/>
    <path class="cls-3" d="M28.42,39.09c-1.01,0-1.85.83-1.85,1.85s.83,1.83,1.85,1.83,1.83-.82,1.83-1.83-.82-1.85-1.83-1.85Z"/>
    <path class="cls-3" d="M22.43,29.03c-1.01,0-1.84.82-1.84,1.84s.82,1.82,1.84,1.82,1.83-.81,1.83-1.82-.82-1.84-1.83-1.84Z"/>
    <path class="cls-3" d="M21.9,42.92c-1.02,0-1.84.82-1.84,1.83s.82,1.85,1.84,1.85,1.84-.83,1.84-1.85-.83-1.83-1.84-1.83Z"/>
    <path class="cls-3" d="M13.22,45.65c-1.01,0-1.85.82-1.85,1.83,0,.02,0,.06.01.08.04.98.85,1.75,1.84,1.75s1.83-.82,1.83-1.84-.82-1.83-1.83-1.83Z"/>
    <path class="cls-3" d="M18.39,56.73c-1.01,0-1.82.83-1.82,1.84s.81,1.83,1.82,1.83,1.83-.81,1.83-1.83-.82-1.84-1.83-1.84Z"/>
    <path class="cls-3" d="M24.3,67.39c-1.01,0-1.84.82-1.84,1.83s.82,1.85,1.84,1.85,1.83-.83,1.83-1.85-.82-1.83-1.83-1.83Z"/>
    <polyline class="cls-3" points="49.75 9.91 44.95 12.4 45.03 22.24"/>
    <path class="cls-3" d="M53.56,3.62c2.15,0,3.92,1.76,3.92,3.93s-1.76,3.93-3.92,3.93-3.94-1.75-3.94-3.93,1.75-3.93,3.94-3.93Z"/>
    <polyline class="cls-3" points="79.65 27.78 75.89 28.14 71.53 34.23 67.92 34.24"/>
    <path class="cls-3" d="M83.93,22.69c2.17,0,3.92,1.75,3.92,3.92s-1.75,3.94-3.92,3.94-3.94-1.76-3.94-3.94,1.76-3.92,3.94-3.92Z"/>
    <polyline class="cls-3" points="90.25 60.22 84.89 60.39 79.26 53.41 74.39 53.78"/>
    <path class="cls-3" d="M94.04,55.21c2.18,0,3.93,1.76,3.93,3.94s-1.75,3.92-3.93,3.92-3.93-1.75-3.93-3.92,1.76-3.94,3.93-3.94Z"/>
    <polyline class="cls-3" points="65.16 76.06 65.24 87.3 71.68 89.51"/>
    <path class="cls-3" d="M75.57,87.8c2.17,0,3.92,1.75,3.92,3.93s-1.75,3.93-3.92,3.93-3.94-1.76-3.94-3.93,1.76-3.93,3.94-3.93Z"/>
  </g>
</svg>