<?xml version="1.0" encoding="UTF-8"?>
<svg id="Layer_1" data-name="Layer 1" xmlns="http://www.w3.org/2000/svg" version="1.1" viewBox="0 0 100 100">
  <defs>
    <style>
      .cls-1 {
        fill: #062244;
      }

      .cls-1, .cls-2, .cls-3, .cls-4, .cls-5, .cls-6, .cls-7, .cls-8, .cls-9 {
        stroke-width: 0px;
      }

      .cls-2 {
        fill: #d390a8;
      }

      .cls-3 {
        fill: #08416b;
      }

      .cls-4 {
        fill: #eddfe9;
      }

      .cls-5 {
        fill: #fff;
      }

      .cls-6 {
        fill: #35966a;
      }

      .cls-7 {
        fill: #b53569;
      }

      .cls-8 {
        fill: #e6c0d4;
      }

      .cls-9 {
        fill: #b66b86;
      }
    </style>
  </defs>
  <path class="cls-9" d="M15.88,73.98v3.7c0,.9.73,1.64,1.64,1.64s1.64-.73,1.64-1.64v-.25h.69v2.97c0,.9.73,1.64,1.64,1.64s1.64-.73,1.63-1.64v-2.97h.69v2.02s0,3.7,0,3.7c0,.9.73,1.64,1.63,1.64s1.64-.73,1.64-1.64v-3.73s0-2,0-2v-2.18l.58.54c.64.64,1.67.64,2.31,0,.64-.64.64-1.67,0-2.31l-2.9-2.86v-2.38h-11.2v5.73Z"/>
  <rect class="cls-3" x="15.88" y="64.98" width="11.2" height="3.27"/>
  <polygon class="cls-3" points="35.62 40.61 43.54 48.53 27.08 64.99 27.08 49.15 35.62 40.61"/>
  <path class="cls-6" d="M27.08,49.15v15.83h-11.2v-4.62l11.2-11.21Z"/>
  <rect class="cls-1" x="63.39" y="37.2" width="11.2" height="27.92" transform="translate(-15.97 63.77) rotate(-45)"/>
  <rect class="cls-4" x="51.04" y="38.56" width="15.56" height="31.94"/>
  <rect class="cls-5" x="35.47" y="38.56" width="15.57" height="31.94"/>
  <rect class="cls-6" x="35.47" y="14.95" width="31.13" height="23.61"/>
  <path class="cls-1" d="M69.81,14.95c2.16,2.58,3.41,5.64,3.41,8.92,0,3.28-1.25,6.34-3.41,8.92h-3.21V14.95h3.21Z"/>
  <path class="cls-3" d="M32.26,14.95h3.21v17.85h-3.21c-2.15-2.58-3.41-5.64-3.41-8.92,0-3.28,1.25-6.34,3.41-8.92Z"/>
  <path class="cls-5" d="M51.04,4.57c-6.07,0-11.56,2.44-15.56,6.38v27.61h15.56V4.57Z"/>
  <path class="cls-4" d="M66.6,10.96c-4-3.94-9.5-6.38-15.56-6.38v33.99h15.56V10.96Z"/>
  <path class="cls-1" d="M54.14,23.92c0,2.33,1.89,4.21,4.21,4.21s4.21-1.89,4.21-4.21-1.89-4.21-4.21-4.21-4.21,1.89-4.21,4.21Z"/>
  <path class="cls-2" d="M56.45,23.92c0,1.05.85,1.9,1.9,1.9s1.9-.85,1.9-1.9-.85-1.9-1.9-1.9-1.9.85-1.9,1.9Z"/>
  <path class="cls-3" d="M39.51,23.92c0,2.33,1.89,4.21,4.21,4.21s4.21-1.89,4.21-4.21-1.89-4.21-4.21-4.21-4.21,1.89-4.21,4.21Z"/>
  <path class="cls-8" d="M41.82,23.92c0,1.05.85,1.9,1.9,1.9s1.9-.85,1.9-1.9-.85-1.9-1.9-1.9-1.9.85-1.9,1.9Z"/>
  <path class="cls-7" d="M86.2,40.07v-9.1c0-.9-.73-1.64-1.64-1.64s-1.64.73-1.64,1.64v5.64h-.69v-8.36c0-.9-.73-1.64-1.63-1.64s-1.64.73-1.64,1.64v8.36s-.69,0-.69,0v-2.02s0-5.37,0-5.37v-3.73c0-.9-.73-1.64-1.64-1.64s-1.64.73-1.64,1.64v13.29l-3.21-3.21c-.64-.64-1.67-.64-2.31,0-.64.64-.64,1.68,0,2.31l5.52,5.52v2.38h11.2v-5.73Z"/>
  <rect class="cls-1" x="74.99" y="45.81" width="11.2" height="3.27"/>
  <path class="cls-4" d="M86.2,57.07v-7.92h-11.2v15.85h4.3c3.09,0,6.9-3.55,6.9-7.92Z"/>
  <rect class="cls-1" x="54.13" y="70.51" width="12.46" height="23.06"/>
  <rect class="cls-3" x="35.47" y="70.51" width="12.46" height="23.06"/>
  <path class="cls-7" d="M60.31,89.11c-4.14,0-7.5,3.36-7.5,7.51h15.01c0-4.15-3.36-7.51-7.51-7.51Z"/>
  <path class="cls-9" d="M41.76,89.11c-4.15,0-7.5,3.36-7.51,7.51h15.01c0-4.15-3.36-7.51-7.5-7.51Z"/>
  <path class="cls-7" d="M57.52,58.86c0,3.58-2.9,6.48-6.48,6.48v-12.96c3.58,0,6.48,2.9,6.48,6.48Z"/>
  <path class="cls-9" d="M44.56,58.86c0-3.58,2.9-6.48,6.48-6.48v12.96c-3.58,0-6.48-2.9-6.48-6.48Z"/>
  <path class="cls-5" d="M23.14,49.15c-3.09,0-7.26,3.54-7.26,7.91v7.91h11.2v-15.83h-3.94Z"/>
  <path class="cls-3" d="M41.44,38.67c0,5.22,4.29,9.44,9.59,9.44v-9.44h-9.59Z"/>
  <path class="cls-1" d="M60.63,38.67h-9.59v9.44c5.3,0,9.59-4.23,9.59-9.44Z"/>
  <rect class="cls-9" x="35.47" y="35.66" width="15.57" height="2.9"/>
  <rect class="cls-7" x="51.04" y="35.66" width="15.56" height="2.9"/>
</svg>