<svg xmlns="http://www.w3.org/2000/svg" xmlns:xlink="http://www.w3.org/1999/xlink" width="120" zoomAndPan="magnify" viewBox="0 0 90 89.999999" height="120" preserveAspectRatio="xMidYMid meet" version="1.0"><defs><clipPath id="219e7c7d60"><path d="M 7.820312 81 L 15 81 L 15 82.195312 L 7.820312 82.195312 Z M 7.820312 81 " clip-rule="nonzero"/></clipPath><clipPath id="9a1628e323"><path d="M 74 81 L 81.320312 81 L 81.320312 82.195312 L 74 82.195312 Z M 74 81 " clip-rule="nonzero"/></clipPath><clipPath id="de04f616ca"><path d="M 16 81 L 73 81 L 73 82.195312 L 16 82.195312 Z M 16 81 " clip-rule="nonzero"/></clipPath><clipPath id="30b412573e"><path d="M 7.820312 49 L 81.320312 49 L 81.320312 79 L 7.820312 79 Z M 7.820312 49 " clip-rule="nonzero"/></clipPath></defs><path fill="#63bce7" d="M 48.625 14.003906 L 43.753906 9.144531 C 42.859375 8.25 41.40625 8.25 40.511719 9.144531 C 39.617188 10.039062 39.617188 11.488281 40.511719 12.378906 L 41.617188 13.484375 C 29.878906 14.625 19.792969 22.515625 15.988281 33.839844 C 15.585938 35.039062 16.234375 36.335938 17.433594 36.734375 C 17.675781 36.816406 17.921875 36.855469 18.164062 36.855469 C 19.121094 36.855469 20.015625 36.25 20.335938 35.292969 C 23.472656 25.957031 31.648438 19.375 41.25 18.128906 L 40.511719 18.863281 C 39.617188 19.757812 39.617188 21.207031 40.511719 22.097656 C 40.960938 22.542969 41.546875 22.769531 42.132812 22.769531 C 42.71875 22.769531 43.308594 22.546875 43.753906 22.097656 L 48.625 17.238281 C 49.054688 16.808594 49.296875 16.226562 49.296875 15.621094 C 49.296875 15.015625 49.054688 14.433594 48.625 14.003906 Z M 48.625 14.003906 " fill-opacity="1" fill-rule="nonzero"/><path fill="#9e9e9e" d="M 36.449219 67.574219 C 27.085938 64.445312 20.484375 56.289062 19.238281 46.707031 L 19.976562 47.445312 C 20.871094 48.339844 22.324219 48.339844 23.21875 47.445312 C 24.113281 46.550781 24.113281 45.101562 23.21875 44.210938 L 18.347656 39.351562 C 17.917969 38.921875 17.332031 38.679688 16.726562 38.679688 C 16.117188 38.679688 15.535156 38.921875 15.105469 39.351562 L 10.234375 44.210938 C 9.335938 45.105469 9.335938 46.550781 10.234375 47.445312 C 10.679688 47.890625 11.269531 48.113281 11.855469 48.113281 C 12.441406 48.113281 13.027344 47.890625 13.476562 47.445312 L 14.582031 46.34375 C 15.726562 58.054688 23.636719 68.117188 34.992188 71.910156 C 35.234375 71.992188 35.480469 72.03125 35.71875 72.03125 C 36.679688 72.03125 37.574219 71.425781 37.894531 70.46875 C 38.296875 69.269531 37.648438 67.972656 36.449219 67.574219 Z M 36.449219 67.574219 " fill-opacity="1" fill-rule="nonzero"/><path fill="#f8af23" d="M 71.703125 50.058594 C 70.503906 49.65625 69.203125 50.304688 68.800781 51.503906 C 65.664062 60.839844 57.488281 67.421875 47.886719 68.667969 L 48.625 67.933594 C 49.519531 67.039062 49.519531 65.589844 48.625 64.699219 C 47.730469 63.804688 46.277344 63.804688 45.382812 64.699219 L 40.511719 69.558594 C 40.082031 69.984375 39.839844 70.566406 39.839844 71.175781 C 39.839844 71.78125 40.082031 72.363281 40.511719 72.792969 L 45.382812 77.652344 C 45.832031 78.097656 46.417969 78.320312 47.003906 78.320312 C 47.589844 78.320312 48.179688 78.097656 48.625 77.652344 C 49.519531 76.757812 49.519531 75.308594 48.625 74.417969 L 47.519531 73.3125 C 59.257812 72.171875 69.34375 64.28125 73.148438 52.957031 C 73.550781 51.757812 72.90625 50.460938 71.703125 50.058594 Z M 71.703125 50.058594 " fill-opacity="1" fill-rule="nonzero"/><path fill="#cecece" d="M 78.90625 39.351562 C 78.007812 38.457031 76.558594 38.457031 75.660156 39.351562 L 74.554688 40.453125 C 73.410156 28.742188 65.503906 18.683594 54.148438 14.886719 C 52.949219 14.484375 51.648438 15.128906 51.246094 16.328125 C 50.84375 17.527344 51.492188 18.824219 52.691406 19.222656 C 62.054688 22.355469 68.652344 30.507812 69.902344 40.085938 L 69.164062 39.351562 C 68.269531 38.457031 66.816406 38.457031 65.921875 39.351562 C 65.023438 40.246094 65.023438 41.691406 65.921875 42.585938 L 70.792969 47.445312 C 71.222656 47.875 71.804688 48.113281 72.414062 48.113281 C 73.019531 48.113281 73.605469 47.875 74.035156 47.445312 L 78.90625 42.585938 C 79.800781 41.691406 79.800781 40.242188 78.90625 39.351562 Z M 78.90625 39.351562 " fill-opacity="1" fill-rule="nonzero"/><path fill="#f46275" d="M 60.503906 43.398438 C 60.503906 43.917969 60.476562 44.4375 60.425781 44.957031 C 60.375 45.472656 60.296875 45.988281 60.195312 46.5 C 60.09375 47.007812 59.96875 47.515625 59.816406 48.011719 C 59.664062 48.511719 59.488281 49 59.289062 49.480469 C 59.089844 49.960938 58.867188 50.429688 58.621094 50.890625 C 58.375 51.351562 58.105469 51.796875 57.816406 52.230469 C 57.527344 52.660156 57.214844 53.078125 56.886719 53.480469 C 56.554688 53.882812 56.203125 54.269531 55.835938 54.636719 C 55.464844 55.003906 55.082031 55.355469 54.675781 55.683594 C 54.273438 56.015625 53.855469 56.324219 53.421875 56.613281 C 52.988281 56.902344 52.539062 57.171875 52.078125 57.414062 C 51.621094 57.660156 51.148438 57.882812 50.667969 58.082031 C 50.183594 58.28125 49.695312 58.457031 49.195312 58.609375 C 48.695312 58.757812 48.1875 58.886719 47.675781 58.988281 C 47.164062 59.089844 46.648438 59.164062 46.128906 59.214844 C 45.609375 59.265625 45.089844 59.292969 44.570312 59.292969 C 44.046875 59.292969 43.527344 59.265625 43.007812 59.214844 C 42.488281 59.164062 41.972656 59.089844 41.460938 58.988281 C 40.949219 58.886719 40.441406 58.757812 39.945312 58.609375 C 39.445312 58.457031 38.953125 58.28125 38.472656 58.082031 C 37.988281 57.882812 37.519531 57.660156 37.058594 57.414062 C 36.597656 57.171875 36.152344 56.902344 35.71875 56.613281 C 35.28125 56.324219 34.863281 56.015625 34.460938 55.683594 C 34.058594 55.355469 33.671875 55.003906 33.300781 54.636719 C 32.933594 54.269531 32.582031 53.882812 32.253906 53.480469 C 31.921875 53.078125 31.609375 52.660156 31.320312 52.230469 C 31.03125 51.796875 30.761719 51.351562 30.515625 50.890625 C 30.269531 50.429688 30.046875 49.960938 29.847656 49.480469 C 29.648438 49 29.472656 48.511719 29.320312 48.011719 C 29.171875 47.515625 29.042969 47.007812 28.941406 46.5 C 28.839844 45.988281 28.765625 45.472656 28.710938 44.957031 C 28.660156 44.4375 28.636719 43.917969 28.636719 43.398438 C 28.636719 42.878906 28.660156 42.359375 28.710938 41.839844 C 28.765625 41.320312 28.839844 40.808594 28.941406 40.296875 C 29.042969 39.785156 29.171875 39.28125 29.320312 38.785156 C 29.472656 38.285156 29.648438 37.796875 29.847656 37.316406 C 30.046875 36.835938 30.269531 36.363281 30.515625 35.90625 C 30.761719 35.445312 31.03125 35 31.320312 34.566406 C 31.609375 34.132812 31.921875 33.71875 32.253906 33.316406 C 32.582031 32.914062 32.933594 32.527344 33.300781 32.160156 C 33.671875 31.789062 34.058594 31.441406 34.460938 31.113281 C 34.863281 30.78125 35.28125 30.472656 35.71875 30.183594 C 36.152344 29.894531 36.597656 29.625 37.058594 29.378906 C 37.519531 29.136719 37.988281 28.914062 38.472656 28.714844 C 38.953125 28.515625 39.445312 28.339844 39.945312 28.1875 C 40.441406 28.035156 40.949219 27.910156 41.460938 27.808594 C 41.972656 27.707031 42.488281 27.632812 43.007812 27.578125 C 43.527344 27.527344 44.046875 27.503906 44.570312 27.503906 C 45.089844 27.503906 45.609375 27.527344 46.128906 27.578125 C 46.648438 27.632812 47.164062 27.707031 47.675781 27.808594 C 48.1875 27.910156 48.695312 28.035156 49.195312 28.1875 C 49.695312 28.339844 50.183594 28.515625 50.667969 28.714844 C 51.148438 28.914062 51.621094 29.136719 52.078125 29.378906 C 52.539062 29.625 52.988281 29.894531 53.421875 30.183594 C 53.855469 30.472656 54.273438 30.78125 54.675781 31.113281 C 55.082031 31.441406 55.464844 31.789062 55.835938 32.160156 C 56.203125 32.527344 56.554688 32.914062 56.886719 33.316406 C 57.214844 33.71875 57.527344 34.132812 57.816406 34.566406 C 58.105469 35 58.375 35.445312 58.621094 35.90625 C 58.867188 36.363281 59.089844 36.835938 59.289062 37.316406 C 59.488281 37.796875 59.664062 38.285156 59.816406 38.785156 C 59.96875 39.28125 60.09375 39.785156 60.195312 40.296875 C 60.296875 40.808594 60.375 41.320312 60.425781 41.839844 C 60.476562 42.359375 60.503906 42.878906 60.503906 43.398438 Z M 60.503906 43.398438 " fill-opacity="1" fill-rule="nonzero"/><path fill="#f43075" d="M 33.121094 43.398438 C 33.121094 35.378906 39.074219 28.75 46.8125 27.664062 C 46.078125 27.558594 45.332031 27.503906 44.570312 27.503906 C 35.769531 27.503906 28.636719 34.621094 28.636719 43.398438 C 28.636719 52.175781 35.769531 59.292969 44.570312 59.292969 C 45.332031 59.292969 46.078125 59.234375 46.8125 59.132812 C 39.074219 58.046875 33.121094 51.417969 33.121094 43.398438 Z M 33.121094 43.398438 " fill-opacity="1" fill-rule="nonzero"/><path fill="#f48875" d="M 56.019531 43.398438 C 56.019531 35.378906 50.0625 28.75 42.328125 27.664062 C 43.058594 27.558594 43.808594 27.503906 44.570312 27.503906 C 53.367188 27.503906 60.5 34.621094 60.5 43.398438 C 60.5 52.175781 53.367188 59.292969 44.570312 59.292969 C 43.808594 59.292969 43.058594 59.234375 42.328125 59.132812 C 50.0625 58.046875 56.019531 51.417969 56.019531 43.398438 Z M 56.019531 43.398438 " fill-opacity="1" fill-rule="nonzero"/><path fill="#f8af23" d="M 54.878906 42.648438 C 54.878906 43.023438 54.804688 43.382812 54.660156 43.730469 C 54.519531 44.074219 54.3125 44.378906 54.046875 44.644531 C 53.78125 44.910156 53.476562 45.113281 53.128906 45.257812 C 52.78125 45.402344 52.421875 45.472656 52.046875 45.472656 C 51.671875 45.472656 51.308594 45.402344 50.960938 45.257812 C 50.613281 45.113281 50.308594 44.910156 50.042969 44.644531 C 49.777344 44.378906 49.574219 44.074219 49.429688 43.730469 C 49.285156 43.382812 49.214844 43.023438 49.214844 42.648438 C 49.214844 42.273438 49.285156 41.914062 49.429688 41.566406 C 49.574219 41.21875 49.777344 40.914062 50.042969 40.648438 C 50.308594 40.386719 50.613281 40.179688 50.960938 40.039062 C 51.308594 39.894531 51.671875 39.824219 52.046875 39.824219 C 52.421875 39.824219 52.78125 39.894531 53.128906 40.039062 C 53.476562 40.179688 53.78125 40.386719 54.046875 40.648438 C 54.3125 40.914062 54.519531 41.21875 54.660156 41.566406 C 54.804688 41.914062 54.878906 42.273438 54.878906 42.648438 Z M 54.878906 42.648438 " fill-opacity="1" fill-rule="nonzero"/><path fill="#cecece" d="M 49.398438 49.289062 L 42.773438 45.820312 L 42.773438 39.472656 L 49.398438 36.003906 Z M 49.398438 49.289062 " fill-opacity="1" fill-rule="nonzero"/><path fill="#63bce7" d="M 49.398438 36.003906 L 52.046875 36.003906 L 52.046875 49.289062 L 49.398438 49.289062 Z M 49.398438 36.003906 " fill-opacity="1" fill-rule="nonzero"/><path fill="#f8af23" d="M 37.203125 39.472656 L 42.773438 39.472656 L 42.773438 45.824219 L 37.203125 45.824219 Z M 37.203125 39.472656 " fill-opacity="1" fill-rule="nonzero"/><path fill="#63bce7" d="M 34.261719 41.058594 L 37.203125 41.058594 L 37.203125 44.234375 L 34.261719 44.234375 Z M 34.261719 41.058594 " fill-opacity="1" fill-rule="nonzero"/><path fill="#cecece" d="M 38.761719 45.824219 L 41.21875 45.824219 L 41.21875 50.789062 L 38.761719 50.789062 Z M 38.761719 45.824219 " fill-opacity="1" fill-rule="nonzero"/><g clip-path="url(#219e7c7d60)"><path fill="#3f3679" d="M 13.789062 81.210938 L 8.285156 81.210938 C 8.03125 81.210938 7.824219 81.414062 7.824219 81.667969 C 7.824219 81.921875 8.03125 82.125 8.285156 82.125 L 13.789062 82.125 C 14.042969 82.125 14.246094 81.921875 14.246094 81.667969 C 14.246094 81.414062 14.042969 81.210938 13.789062 81.210938 Z M 13.789062 81.210938 " fill-opacity="1" fill-rule="nonzero"/></g><g clip-path="url(#9a1628e323)"><path fill="#3f3679" d="M 80.855469 81.210938 L 75.351562 81.210938 C 75.097656 81.210938 74.890625 81.414062 74.890625 81.667969 C 74.890625 81.921875 75.097656 82.125 75.351562 82.125 L 80.855469 82.125 C 81.105469 82.125 81.3125 81.921875 81.3125 81.667969 C 81.3125 81.414062 81.105469 81.210938 80.855469 81.210938 Z M 80.855469 81.210938 " fill-opacity="1" fill-rule="nonzero"/></g><g clip-path="url(#de04f616ca)"><path fill="#3f3679" d="M 72.230469 81.210938 L 16.90625 81.210938 C 16.652344 81.210938 16.445312 81.414062 16.445312 81.667969 C 16.445312 81.921875 16.652344 82.125 16.90625 82.125 L 72.230469 82.125 C 72.484375 82.125 72.691406 81.921875 72.691406 81.667969 C 72.691406 81.414062 72.484375 81.210938 72.230469 81.210938 Z M 72.230469 81.210938 " fill-opacity="1" fill-rule="nonzero"/></g><g clip-path="url(#30b412573e)"><path fill="#3f3679" d="M 8.285156 78.777344 L 80.855469 78.777344 C 81.105469 78.777344 81.3125 78.574219 81.3125 78.320312 C 81.3125 78.066406 81.105469 77.863281 80.855469 77.863281 L 49.050781 77.863281 C 50.019531 76.785156 49.988281 75.125 48.949219 74.09375 L 48.515625 73.660156 C 60.085938 72.167969 69.859375 64.1875 73.585938 53.101562 C 73.816406 52.40625 73.765625 51.660156 73.4375 51.003906 C 73.109375 50.347656 72.546875 49.859375 71.851562 49.625 C 71.152344 49.394531 70.40625 49.445312 69.75 49.773438 C 69.089844 50.097656 68.601562 50.660156 68.367188 51.355469 C 65.484375 59.941406 58.035156 66.351562 49.175781 68.003906 C 50.015625 66.925781 49.941406 65.363281 48.949219 64.375 C 47.875 63.304688 46.132812 63.304688 45.058594 64.375 L 40.1875 69.234375 C 39.667969 69.75 39.382812 70.441406 39.382812 71.171875 C 39.382812 71.90625 39.667969 72.597656 40.1875 73.113281 L 44.945312 77.863281 L 8.285156 77.863281 C 8.03125 77.863281 7.824219 78.066406 7.824219 78.320312 C 7.824219 78.574219 8.03125 78.777344 8.285156 78.777344 Z M 45.707031 77.328125 L 40.835938 72.46875 C 40.488281 72.121094 40.300781 71.664062 40.300781 71.175781 C 40.300781 70.683594 40.488281 70.226562 40.835938 69.878906 L 45.707031 65.019531 C 46.066406 64.664062 46.535156 64.484375 47.003906 64.484375 C 47.472656 64.484375 47.945312 64.664062 48.300781 65.019531 C 49.015625 65.734375 49.015625 66.894531 48.300781 67.609375 L 47.5625 68.34375 C 47.425781 68.484375 47.390625 68.695312 47.476562 68.871094 C 47.5625 69.046875 47.753906 69.148438 47.945312 69.121094 C 57.742188 67.851562 66.097656 60.992188 69.234375 51.648438 C 69.390625 51.183594 69.71875 50.808594 70.15625 50.589844 C 70.597656 50.375 71.09375 50.339844 71.558594 50.496094 C 72.023438 50.648438 72.398438 50.976562 72.617188 51.414062 C 72.835938 51.851562 72.871094 52.347656 72.714844 52.8125 C 69.003906 63.855469 59.097656 71.726562 47.476562 72.859375 C 47.300781 72.875 47.148438 72.992188 47.089844 73.160156 C 47.027344 73.324219 47.070312 73.511719 47.195312 73.636719 L 48.300781 74.738281 C 49.015625 75.453125 49.015625 76.613281 48.300781 77.328125 C 47.953125 77.671875 47.496094 77.863281 47.003906 77.863281 C 46.515625 77.863281 46.054688 77.671875 45.707031 77.328125 Z M 45.707031 77.328125 " fill-opacity="1" fill-rule="nonzero"/></g><path fill="#3f3679" d="M 17.289062 37.167969 C 17.570312 37.265625 17.867188 37.3125 18.164062 37.3125 C 19.347656 37.3125 20.394531 36.558594 20.773438 35.4375 C 23.65625 26.855469 31.101562 20.445312 39.964844 18.792969 C 39.585938 19.273438 39.382812 19.863281 39.382812 20.480469 C 39.382812 21.214844 39.667969 21.902344 40.1875 22.421875 C 40.707031 22.941406 41.398438 23.226562 42.132812 23.226562 C 42.867188 23.226562 43.558594 22.941406 44.078125 22.421875 L 48.949219 17.5625 C 49.46875 17.042969 49.757812 16.355469 49.757812 15.621094 C 49.757812 14.886719 49.46875 14.199219 48.949219 13.679688 L 44.078125 8.820312 C 43.558594 8.304688 42.867188 8.019531 42.132812 8.019531 C 41.398438 8.019531 40.707031 8.304688 40.1875 8.820312 C 39.667969 9.339844 39.382812 10.03125 39.382812 10.761719 C 39.382812 11.496094 39.667969 12.183594 40.1875 12.703125 L 40.621094 13.136719 C 29.054688 14.628906 19.277344 22.609375 15.554688 33.695312 C 15.320312 34.390625 15.371094 35.132812 15.699219 35.789062 C 16.027344 36.445312 16.589844 36.9375 17.289062 37.167969 Z M 16.421875 33.984375 C 20.132812 22.9375 30.039062 15.070312 41.664062 13.9375 C 41.839844 13.921875 41.988281 13.804688 42.050781 13.636719 C 42.109375 13.472656 42.066406 13.285156 41.941406 13.160156 L 40.835938 12.058594 C 40.488281 11.710938 40.300781 11.25 40.300781 10.761719 C 40.300781 10.273438 40.488281 9.8125 40.835938 9.46875 C 41.183594 9.121094 41.644531 8.933594 42.132812 8.933594 C 42.625 8.933594 43.085938 9.121094 43.429688 9.46875 L 48.300781 14.328125 C 48.648438 14.671875 48.839844 15.132812 48.839844 15.621094 C 48.839844 16.109375 48.648438 16.570312 48.300781 16.914062 L 43.429688 21.773438 C 43.085938 22.121094 42.625 22.3125 42.132812 22.3125 C 41.644531 22.3125 41.183594 22.121094 40.835938 21.773438 C 40.488281 21.429688 40.300781 20.96875 40.300781 20.480469 C 40.300781 19.992188 40.488281 19.53125 40.835938 19.1875 L 41.574219 18.449219 C 41.714844 18.3125 41.75 18.101562 41.660156 17.925781 C 41.574219 17.75 41.386719 17.648438 41.191406 17.671875 C 31.398438 18.945312 23.039062 25.804688 19.902344 35.148438 C 19.652344 35.894531 18.953125 36.398438 18.164062 36.398438 C 17.964844 36.398438 17.769531 36.367188 17.578125 36.300781 C 17.113281 36.148438 16.738281 35.820312 16.519531 35.382812 C 16.300781 34.945312 16.265625 34.449219 16.421875 33.984375 Z M 16.421875 33.984375 " fill-opacity="1" fill-rule="nonzero"/><path fill="#3f3679" d="M 11.855469 48.574219 C 12.589844 48.574219 13.28125 48.285156 13.800781 47.769531 L 14.234375 47.335938 C 15.730469 58.878906 23.730469 68.632812 34.847656 72.34375 C 35.128906 72.441406 35.425781 72.488281 35.71875 72.488281 C 36.90625 72.488281 37.953125 71.734375 38.328125 70.613281 C 38.5625 69.917969 38.511719 69.175781 38.183594 68.519531 C 37.855469 67.863281 37.289062 67.371094 36.59375 67.140625 C 27.988281 64.261719 21.5625 56.832031 19.90625 47.992188 C 20.984375 48.832031 22.550781 48.757812 23.542969 47.769531 C 24.0625 47.25 24.347656 46.5625 24.347656 45.828125 C 24.347656 45.09375 24.0625 44.40625 23.542969 43.886719 L 18.671875 39.027344 C 18.152344 38.507812 17.460938 38.222656 16.726562 38.222656 C 15.992188 38.222656 15.300781 38.507812 14.78125 39.027344 L 9.910156 43.886719 C 9.390625 44.40625 9.101562 45.09375 9.101562 45.828125 C 9.101562 46.5625 9.390625 47.25 9.910156 47.769531 C 10.429688 48.285156 11.121094 48.574219 11.855469 48.574219 Z M 10.558594 44.535156 L 15.429688 39.675781 C 15.773438 39.328125 16.234375 39.136719 16.726562 39.136719 C 17.214844 39.136719 17.675781 39.328125 18.023438 39.675781 L 22.894531 44.535156 C 23.238281 44.878906 23.429688 45.339844 23.429688 45.828125 C 23.429688 46.316406 23.238281 46.777344 22.894531 47.121094 C 22.546875 47.46875 22.085938 47.65625 21.597656 47.65625 C 21.105469 47.65625 20.644531 47.46875 20.300781 47.121094 L 19.5625 46.386719 C 19.421875 46.246094 19.210938 46.210938 19.035156 46.296875 C 18.859375 46.386719 18.757812 46.574219 18.78125 46.769531 C 20.054688 56.539062 26.933594 64.875 36.300781 68.007812 C 36.765625 68.160156 37.144531 68.488281 37.363281 68.925781 C 37.582031 69.363281 37.613281 69.859375 37.460938 70.324219 C 37.207031 71.070312 36.511719 71.574219 35.71875 71.574219 C 35.523438 71.574219 35.328125 71.539062 35.136719 71.476562 C 24.0625 67.777344 16.171875 57.894531 15.039062 46.296875 C 15.019531 46.121094 14.902344 45.972656 14.734375 45.910156 C 14.6875 45.894531 14.632812 45.882812 14.582031 45.882812 C 14.460938 45.882812 14.34375 45.929688 14.257812 46.019531 L 13.152344 47.121094 C 12.804688 47.464844 12.34375 47.65625 11.855469 47.65625 C 11.363281 47.65625 10.902344 47.464844 10.558594 47.121094 C 10.210938 46.777344 10.019531 46.316406 10.019531 45.828125 C 10.019531 45.339844 10.210938 44.878906 10.558594 44.535156 Z M 10.558594 44.535156 " fill-opacity="1" fill-rule="nonzero"/><path fill="#3f3679" d="M 52.546875 19.65625 C 61.152344 22.535156 67.578125 29.960938 69.234375 38.804688 C 68.15625 37.964844 66.585938 38.039062 65.597656 39.027344 C 65.074219 39.546875 64.789062 40.234375 64.789062 40.96875 C 64.789062 41.703125 65.074219 42.390625 65.597656 42.910156 L 70.46875 47.769531 C 70.988281 48.289062 71.675781 48.574219 72.414062 48.574219 C 73.148438 48.574219 73.839844 48.289062 74.359375 47.769531 L 79.230469 42.910156 C 79.75 42.390625 80.035156 41.703125 80.035156 40.96875 C 80.035156 40.234375 79.75 39.546875 79.230469 39.027344 C 78.710938 38.507812 78.019531 38.222656 77.285156 38.222656 C 76.546875 38.222656 75.859375 38.507812 75.339844 39.027344 L 74.90625 39.460938 C 73.410156 27.917969 65.40625 18.167969 54.296875 14.453125 C 53.597656 14.21875 52.855469 14.269531 52.195312 14.597656 C 51.539062 14.925781 51.046875 15.488281 50.8125 16.183594 C 50.578125 16.878906 50.632812 17.621094 50.957031 18.277344 C 51.285156 18.933594 51.851562 19.425781 52.546875 19.65625 Z M 51.683594 16.472656 C 51.839844 16.011719 52.164062 15.632812 52.605469 15.417969 C 53.042969 15.199219 53.539062 15.164062 54.003906 15.320312 C 65.078125 19.023438 72.964844 28.90625 74.101562 40.5 C 74.117188 40.675781 74.234375 40.824219 74.402344 40.886719 C 74.566406 40.945312 74.753906 40.902344 74.878906 40.777344 L 75.984375 39.675781 C 76.332031 39.328125 76.792969 39.140625 77.28125 39.140625 C 77.773438 39.140625 78.234375 39.328125 78.582031 39.675781 C 78.925781 40.019531 79.117188 40.480469 79.117188 40.96875 C 79.117188 41.457031 78.925781 41.917969 78.582031 42.261719 L 73.710938 47.121094 C 73.363281 47.46875 72.902344 47.65625 72.410156 47.65625 C 71.929688 47.65625 71.457031 47.460938 71.113281 47.121094 L 66.242188 42.261719 C 65.898438 41.917969 65.707031 41.457031 65.707031 40.96875 C 65.707031 40.480469 65.898438 40.019531 66.242188 39.675781 C 66.601562 39.316406 67.070312 39.140625 67.542969 39.140625 C 68.011719 39.140625 68.480469 39.316406 68.839844 39.675781 L 69.578125 40.410156 C 69.714844 40.550781 69.925781 40.585938 70.101562 40.5 C 70.277344 40.410156 70.378906 40.222656 70.355469 40.027344 C 69.082031 30.257812 62.207031 21.921875 52.839844 18.792969 C 52.375 18.636719 51.996094 18.308594 51.777344 17.871094 C 51.5625 17.433594 51.527344 16.9375 51.683594 16.472656 Z M 51.683594 16.472656 " fill-opacity="1" fill-rule="nonzero"/><path fill="#3f3679" d="M 28.175781 43.398438 C 28.175781 52.414062 35.53125 59.75 44.570312 59.75 C 53.605469 59.75 60.960938 52.414062 60.960938 43.398438 C 60.960938 34.382812 53.605469 27.046875 44.570312 27.046875 C 35.53125 27.046875 28.175781 34.382812 28.175781 43.398438 Z M 60.042969 43.398438 C 60.042969 51.910156 53.101562 58.835938 44.570312 58.835938 C 36.035156 58.835938 29.09375 51.910156 29.09375 43.398438 C 29.09375 34.886719 36.035156 27.960938 44.570312 27.960938 C 53.101562 27.960938 60.042969 34.886719 60.042969 43.398438 Z M 60.042969 43.398438 " fill-opacity="1" fill-rule="nonzero"/><path fill="#3f3679" d="M 42.660156 39.015625 L 37.203125 39.015625 C 36.949219 39.015625 36.746094 39.21875 36.746094 39.472656 L 36.746094 40.601562 L 34.261719 40.601562 C 34.007812 40.601562 33.800781 40.804688 33.800781 41.058594 L 33.800781 44.234375 C 33.800781 44.488281 34.007812 44.691406 34.261719 44.691406 L 36.746094 44.691406 L 36.746094 45.824219 C 36.746094 46.074219 36.949219 46.28125 37.203125 46.28125 L 38.300781 46.28125 L 38.300781 50.789062 C 38.300781 51.042969 38.507812 51.25 38.761719 51.25 L 41.21875 51.25 C 41.472656 51.25 41.675781 51.042969 41.675781 50.789062 L 41.675781 46.28125 L 42.667969 46.28125 L 49.183594 49.691406 C 49.25 49.722656 49.320312 49.746094 49.398438 49.746094 L 52.046875 49.746094 C 52.296875 49.746094 52.503906 49.539062 52.503906 49.289062 L 52.503906 45.894531 C 54.101562 45.671875 55.335938 44.300781 55.335938 42.648438 C 55.335938 40.992188 54.101562 39.625 52.503906 39.402344 L 52.503906 36.003906 C 52.503906 35.753906 52.296875 35.546875 52.046875 35.546875 L 49.398438 35.546875 C 49.320312 35.546875 49.25 35.570312 49.183594 35.601562 L 49.183594 35.597656 Z M 54.417969 42.648438 C 54.417969 43.796875 53.59375 44.757812 52.503906 44.96875 L 52.503906 40.324219 C 53.59375 40.539062 54.417969 41.5 54.417969 42.648438 Z M 49.855469 36.460938 L 51.585938 36.460938 L 51.585938 48.832031 L 49.855469 48.832031 Z M 34.71875 43.777344 L 34.71875 41.515625 L 36.746094 41.515625 L 36.746094 43.777344 Z M 37.664062 44.234375 L 37.664062 39.929688 L 42.316406 39.929688 L 42.316406 45.367188 L 37.664062 45.367188 Z M 40.757812 50.332031 L 39.21875 50.332031 L 39.21875 46.28125 L 40.757812 46.28125 Z M 43.234375 39.75 L 48.941406 36.761719 L 48.941406 48.53125 L 43.234375 45.542969 Z M 43.234375 39.75 " fill-opacity="1" fill-rule="nonzero"/></svg>