<svg xmlns="http://www.w3.org/2000/svg" xmlns:xlink="http://www.w3.org/1999/xlink" width="120" zoomAndPan="magnify" viewBox="0 0 90 89.999999" height="120" preserveAspectRatio="xMidYMid meet" version="1.0"><defs><clipPath id="0a5389061e"><path d="M 7.054688 9.386719 L 79 9.386719 L 79 80.636719 L 7.054688 80.636719 Z M 7.054688 9.386719 " clip-rule="nonzero"/></clipPath><clipPath id="8d5e340545"><path d="M 7.054688 57 L 29 57 L 29 80 L 7.054688 80 Z M 7.054688 57 " clip-rule="nonzero"/></clipPath></defs><g clip-path="url(#0a5389061e)"><path fill="#e2ece1" d="M 24.214844 9.386719 L 24.214844 33.664062 L 24.21875 33.664062 C 22.167969 38.570312 22.191406 44.09375 24.214844 48.960938 L 24.214844 58.042969 C 23.710938 57.804688 23.09375 57.90625 22.703125 58.335938 L 8.429688 74.007812 C 7.121094 75.441406 7.238281 77.660156 8.695312 78.960938 C 9.371094 79.5625 10.222656 79.855469 11.066406 79.855469 C 12.035156 79.855469 13.003906 79.472656 13.707031 78.703125 L 24.214844 67.15625 L 24.214844 80.636719 L 78.996094 80.636719 L 78.996094 9.386719 Z M 24.214844 9.386719 " fill-opacity="1" fill-rule="nonzero"/></g><path fill="#e2ece1" d="M 28.230469 55.097656 L 24.984375 58.660156 L 24.523438 58.246094 C 24.425781 58.160156 24.324219 58.097656 24.214844 58.042969 L 24.214844 48.960938 C 25.136719 51.179688 26.476562 53.265625 28.230469 55.097656 Z M 28.230469 55.097656 " fill-opacity="1" fill-rule="nonzero"/><path fill="#e15c63" d="M 66.917969 55.5625 L 70.273438 55.5625 L 70.273438 75.300781 L 66.917969 75.300781 Z M 66.917969 55.5625 " fill-opacity="1" fill-rule="nonzero"/><path fill="#ffc05a" d="M 60.121094 60.652344 L 63.484375 60.652344 L 63.484375 75.300781 L 60.121094 75.300781 Z M 60.121094 60.652344 " fill-opacity="1" fill-rule="nonzero"/><path fill="#e15c63" d="M 57.511719 41.3125 C 57.511719 42.761719 57.292969 44.15625 56.894531 45.472656 L 45.59375 39.738281 L 45.59375 27.183594 C 52.371094 28.402344 57.511719 34.261719 57.511719 41.3125 Z M 57.511719 41.3125 " fill-opacity="1" fill-rule="nonzero"/><path fill="#8bcb8f" d="M 53.332031 64.820312 L 56.691406 64.820312 L 56.691406 75.300781 L 53.332031 75.300781 Z M 53.332031 64.820312 " fill-opacity="1" fill-rule="nonzero"/><path fill="#c2e6f9" d="M 31.585938 39.132812 C 31.441406 39.839844 31.371094 40.566406 31.371094 41.3125 C 31.371094 43.507812 31.996094 45.5625 33.078125 47.304688 L 42.980469 41.3125 L 42.980469 52.792969 C 47.378906 52.792969 51.199219 50.378906 53.171875 46.828125 L 42.980469 41.3125 L 42.980469 29.832031 C 40.582031 29.832031 38.351562 30.550781 36.503906 31.785156 C 33.988281 33.464844 32.171875 36.082031 31.585938 39.132812 Z M 42.980469 24.039062 C 52.636719 24.039062 60.457031 31.773438 60.457031 41.3125 C 60.457031 50.855469 52.636719 58.589844 42.980469 58.589844 C 33.332031 58.589844 25.511719 50.855469 25.511719 41.3125 C 25.511719 31.773438 33.332031 24.039062 42.980469 24.039062 Z M 56.894531 45.472656 C 57.292969 44.15625 57.511719 42.761719 57.511719 41.3125 C 57.511719 34.261719 52.371094 28.402344 45.59375 27.183594 L 45.59375 39.738281 Z M 40.3125 55.429688 L 40.664062 45.667969 L 32.347656 51.09375 C 34.421875 53.296875 37.1875 54.855469 40.3125 55.429688 Z M 40.3125 55.429688 " fill-opacity="1" fill-rule="nonzero"/><path fill="#8bcb8f" d="M 42.980469 41.3125 L 53.171875 46.828125 C 51.199219 50.378906 47.378906 52.792969 42.980469 52.792969 Z M 42.980469 41.3125 " fill-opacity="1" fill-rule="nonzero"/><path fill="#52a7d7" d="M 46.542969 71.3125 L 49.898438 71.3125 L 49.898438 75.300781 L 46.542969 75.300781 Z M 46.542969 71.3125 " fill-opacity="1" fill-rule="nonzero"/><path fill="#f48ca7" d="M 43.109375 61.378906 L 43.109375 75.300781 L 39.746094 75.300781 L 39.746094 61.117188 C 40.859375 61.296875 41.984375 61.382812 43.109375 61.378906 Z M 43.109375 61.378906 " fill-opacity="1" fill-rule="nonzero"/><path fill="#ffa25a" d="M 42.980469 29.832031 L 42.980469 41.3125 L 36.503906 31.785156 C 38.351562 30.550781 40.582031 29.832031 42.980469 29.832031 Z M 42.980469 29.832031 " fill-opacity="1" fill-rule="nonzero"/><path fill="#52a7d7" d="M 36.503906 31.785156 L 42.980469 41.3125 L 31.585938 39.132812 C 32.171875 36.082031 33.988281 33.464844 36.503906 31.785156 Z M 36.503906 31.785156 " fill-opacity="1" fill-rule="nonzero"/><path fill="#f48ca7" d="M 42.980469 41.3125 L 33.078125 47.304688 C 31.996094 45.5625 31.371094 43.507812 31.371094 41.3125 C 31.371094 40.566406 31.441406 39.839844 31.585938 39.132812 Z M 42.980469 41.3125 " fill-opacity="1" fill-rule="nonzero"/><path fill="#ffc05a" d="M 40.664062 45.667969 L 40.3125 55.429688 C 37.1875 54.855469 34.421875 53.296875 32.347656 51.09375 Z M 40.664062 45.667969 " fill-opacity="1" fill-rule="nonzero"/><path fill="#ffa25a" d="M 32.957031 64.820312 L 36.316406 64.820312 L 36.316406 75.300781 L 32.957031 75.300781 Z M 32.957031 64.820312 " fill-opacity="1" fill-rule="nonzero"/><path fill="#93b2b8" d="M 30.664062 57.257812 L 27.417969 60.820312 L 24.984375 58.660156 L 28.230469 55.097656 C 28.597656 55.480469 28.992188 55.859375 29.402344 56.222656 C 29.808594 56.585938 30.230469 56.9375 30.664062 57.257812 Z M 30.664062 57.257812 " fill-opacity="1" fill-rule="nonzero"/><g clip-path="url(#8d5e340545)"><path fill="#e15c63" d="M 27.878906 61.234375 C 28.410156 61.703125 28.449219 62.507812 27.972656 63.03125 L 24.214844 67.15625 L 13.707031 78.703125 C 13.003906 79.472656 12.035156 79.855469 11.066406 79.855469 C 10.222656 79.855469 9.371094 79.5625 8.695312 78.960938 C 7.238281 77.660156 7.121094 75.441406 8.429688 74.007812 L 22.703125 58.335938 C 23.09375 57.90625 23.710938 57.804688 24.214844 58.042969 C 24.324219 58.097656 24.425781 58.160156 24.523438 58.246094 L 24.984375 58.660156 L 27.417969 60.820312 Z M 27.878906 61.234375 " fill-opacity="1" fill-rule="nonzero"/></g><path fill="#4d727a" d="M 72.40625 74.726562 L 29.507812 74.726562 C 29.191406 74.726562 28.933594 74.984375 28.933594 75.300781 C 28.933594 75.617188 29.191406 75.875 29.507812 75.875 L 72.40625 75.875 C 72.722656 75.875 72.980469 75.617188 72.980469 75.300781 C 72.980469 74.984375 72.722656 74.726562 72.40625 74.726562 Z M 72.40625 74.726562 " fill-opacity="1" fill-rule="nonzero"/><path fill="#93b2b8" d="M 70.289062 18.148438 L 35.839844 18.148438 C 35.519531 18.148438 35.261719 17.894531 35.261719 17.574219 C 35.261719 17.257812 35.519531 17 35.839844 17 L 70.289062 17 C 70.609375 17 70.867188 17.257812 70.867188 17.574219 C 70.867188 17.894531 70.609375 18.148438 70.289062 18.148438 Z M 70.289062 18.148438 " fill-opacity="1" fill-rule="nonzero"/><path fill="#93b2b8" d="M 70.289062 25.121094 L 54.132812 25.121094 C 53.816406 25.121094 53.558594 24.863281 53.558594 24.546875 C 53.558594 24.226562 53.816406 23.972656 54.132812 23.972656 L 70.289062 23.972656 C 70.609375 23.972656 70.867188 24.226562 70.867188 24.546875 C 70.867188 24.863281 70.609375 25.121094 70.289062 25.121094 Z M 70.289062 25.121094 " fill-opacity="1" fill-rule="nonzero"/><path fill="#93b2b8" d="M 70.289062 30.40625 L 59.632812 30.40625 C 59.3125 30.40625 59.054688 30.148438 59.054688 29.832031 C 59.054688 29.515625 59.3125 29.257812 59.632812 29.257812 L 70.289062 29.257812 C 70.609375 29.257812 70.867188 29.515625 70.867188 29.832031 C 70.867188 30.148438 70.609375 30.40625 70.289062 30.40625 Z M 70.289062 30.40625 " fill-opacity="1" fill-rule="nonzero"/><path fill="#93b2b8" d="M 70.289062 34.898438 L 62.019531 34.898438 C 61.699219 34.898438 61.4375 34.640625 61.4375 34.324219 C 61.4375 34.007812 61.695312 33.75 62.011719 33.75 L 70.289062 33.75 C 70.609375 33.75 70.867188 34.007812 70.867188 34.324219 C 70.867188 34.640625 70.609375 34.898438 70.289062 34.898438 Z M 70.289062 34.898438 " fill-opacity="1" fill-rule="nonzero"/><path fill="#93b2b8" d="M 70.289062 39.386719 L 63.121094 39.386719 C 62.800781 39.386719 62.542969 39.128906 62.542969 38.8125 C 62.542969 38.496094 62.800781 38.238281 63.121094 38.238281 L 70.289062 38.238281 C 70.609375 38.238281 70.867188 38.496094 70.867188 38.8125 C 70.867188 39.128906 70.609375 39.386719 70.289062 39.386719 Z M 70.289062 39.386719 " fill-opacity="1" fill-rule="nonzero"/><path fill="#93b2b8" d="M 70.289062 43.875 L 63.183594 43.875 C 62.863281 43.875 62.605469 43.617188 62.605469 43.300781 C 62.605469 42.984375 62.863281 42.726562 63.183594 42.726562 L 70.289062 42.726562 C 70.609375 42.726562 70.867188 42.984375 70.867188 43.300781 C 70.867188 43.617188 70.609375 43.875 70.289062 43.875 Z M 70.289062 43.875 " fill-opacity="1" fill-rule="nonzero"/><path fill="#4d727a" d="M 63.121094 38.8125 C 63.828125 44.390625 62.175781 50.234375 58.066406 54.742188 C 54.089844 59.109375 48.617188 61.34375 43.109375 61.378906 C 41.984375 61.382812 40.859375 61.296875 39.746094 61.117188 C 36.523438 60.613281 33.402344 59.324219 30.664062 57.257812 C 30.230469 56.9375 29.808594 56.585938 29.402344 56.222656 C 28.992188 55.859375 28.597656 55.480469 28.230469 55.097656 C 26.476562 53.265625 25.136719 51.179688 24.214844 48.960938 C 22.191406 44.09375 22.167969 38.570312 24.21875 33.664062 C 25.078125 31.597656 26.304688 29.640625 27.902344 27.890625 C 34.703125 20.421875 45.890625 19.179688 54.132812 24.546875 C 54.980469 25.089844 55.792969 25.710938 56.566406 26.402344 C 57.742188 27.445312 58.769531 28.601562 59.632812 29.832031 C 60.628906 31.246094 61.425781 32.757812 62.011719 34.324219 L 62.019531 34.324219 C 62.5625 35.777344 62.929688 37.285156 63.121094 38.8125 Z M 60.457031 41.3125 C 60.457031 31.773438 52.636719 24.039062 42.980469 24.039062 C 33.332031 24.039062 25.511719 31.773438 25.511719 41.3125 C 25.511719 50.855469 33.332031 58.589844 42.980469 58.589844 C 52.636719 58.589844 60.457031 50.855469 60.457031 41.3125 Z M 60.457031 41.3125 " fill-opacity="1" fill-rule="nonzero"/></svg>