<svg xmlns="http://www.w3.org/2000/svg" xmlns:xlink="http://www.w3.org/1999/xlink" width="120" zoomAndPan="magnify" viewBox="0 0 90 89.999999" height="120" preserveAspectRatio="xMidYMid meet" version="1.0"><defs><clipPath id="0fe77393a7"><path d="M 10.230469 52 L 12 52 L 12 55 L 10.230469 55 Z M 10.230469 52 " clip-rule="nonzero"/></clipPath><clipPath id="c367d087dc"><path d="M 73 52 L 80.730469 52 L 80.730469 58 L 73 58 Z M 73 52 " clip-rule="nonzero"/></clipPath><clipPath id="dbab9db611"><path d="M 72 49 L 80.730469 49 L 80.730469 58 L 72 58 Z M 72 49 " clip-rule="nonzero"/></clipPath></defs><path fill="#41464b" d="M 71.222656 36.585938 C 71.183594 36.332031 71.144531 36.082031 71.097656 35.832031 L 71.859375 35.691406 C 71.90625 35.949219 71.949219 36.210938 71.988281 36.472656 Z M 70.953125 35.078125 C 70.898438 34.828125 70.839844 34.582031 70.78125 34.332031 L 71.53125 34.144531 C 71.59375 34.402344 71.652344 34.65625 71.707031 34.917969 Z M 70.585938 33.59375 C 70.515625 33.347656 70.441406 33.101562 70.367188 32.859375 L 71.105469 32.625 C 71.183594 32.875 71.257812 33.125 71.328125 33.378906 Z M 70.125 32.132812 C 70.039062 31.890625 69.953125 31.652344 69.859375 31.414062 L 70.582031 31.132812 C 70.675781 31.378906 70.765625 31.625 70.855469 31.875 Z M 69.574219 30.707031 C 69.472656 30.472656 69.371094 30.242188 69.265625 30.011719 L 69.964844 29.679688 C 70.074219 29.917969 70.183594 30.160156 70.285156 30.402344 Z M 68.933594 29.320312 C 68.820312 29.09375 68.703125 28.867188 68.582031 28.644531 L 69.261719 28.273438 C 69.386719 28.503906 69.507812 28.738281 69.625 28.972656 Z M 68.207031 27.980469 C 68.078125 27.757812 67.949219 27.542969 67.8125 27.328125 L 68.464844 26.910156 C 68.605469 27.132812 68.742188 27.359375 68.875 27.585938 Z M 67.398438 26.6875 C 67.253906 26.476562 67.109375 26.265625 66.960938 26.058594 L 67.589844 25.601562 C 67.742188 25.816406 67.890625 26.03125 68.039062 26.25 Z M 66.507812 25.445312 C 66.351562 25.242188 66.195312 25.042969 66.035156 24.847656 L 66.628906 24.351562 C 66.796875 24.554688 66.960938 24.761719 67.121094 24.96875 Z M 65.539062 24.265625 C 65.371094 24.074219 65.203125 23.882812 65.027344 23.695312 L 65.59375 23.164062 C 65.773438 23.355469 65.949219 23.550781 66.121094 23.75 Z M 64.5 23.144531 C 64.320312 22.964844 64.140625 22.785156 63.953125 22.613281 L 64.484375 22.042969 C 64.675781 22.226562 64.863281 22.410156 65.046875 22.597656 Z M 63.394531 22.097656 C 63.203125 21.925781 63.011719 21.761719 62.816406 21.597656 L 63.308594 20.996094 C 63.507812 21.167969 63.707031 21.335938 63.90625 21.511719 Z M 62.21875 21.117188 C 62.019531 20.960938 61.816406 20.808594 61.613281 20.65625 L 62.066406 20.027344 C 62.277344 20.183594 62.488281 20.339844 62.695312 20.503906 Z M 60.988281 20.214844 C 60.777344 20.074219 60.566406 19.933594 60.351562 19.796875 L 60.765625 19.136719 C 60.988281 19.277344 61.207031 19.421875 61.421875 19.574219 Z M 59.703125 19.394531 C 59.484375 19.265625 59.261719 19.140625 59.039062 19.015625 L 59.410156 18.332031 C 59.640625 18.460938 59.871094 18.589844 60.09375 18.722656 Z M 58.367188 18.65625 C 58.140625 18.542969 57.910156 18.429688 57.679688 18.320312 L 58.007812 17.617188 C 58.246094 17.726562 58.480469 17.84375 58.714844 17.964844 Z M 56.984375 18.007812 C 56.75 17.90625 56.515625 17.808594 56.28125 17.714844 L 56.5625 16.992188 C 56.804688 17.089844 57.050781 17.1875 57.289062 17.292969 Z M 55.5625 17.449219 C 55.324219 17.363281 55.085938 17.28125 54.839844 17.203125 L 55.078125 16.460938 C 55.328125 16.542969 55.574219 16.625 55.824219 16.714844 Z M 54.113281 16.980469 C 53.871094 16.910156 53.625 16.847656 53.378906 16.785156 L 53.566406 16.027344 C 53.820312 16.09375 54.074219 16.160156 54.324219 16.230469 Z M 52.636719 16.609375 C 52.390625 16.558594 52.140625 16.507812 51.890625 16.460938 L 52.03125 15.695312 C 52.289062 15.742188 52.546875 15.792969 52.800781 15.847656 Z M 51.140625 16.335938 C 50.890625 16.296875 50.640625 16.261719 50.386719 16.234375 L 50.476562 15.460938 C 50.738281 15.492188 50.996094 15.527344 51.253906 15.566406 Z M 49.628906 16.15625 C 49.378906 16.136719 49.125 16.117188 48.871094 16.101562 L 48.914062 15.324219 C 49.175781 15.339844 49.4375 15.359375 49.695312 15.378906 Z M 48.109375 16.074219 C 47.929688 16.070312 47.75 16.066406 47.566406 16.066406 L 47.347656 16.066406 L 47.347656 15.289062 L 47.566406 15.289062 C 47.753906 15.289062 47.941406 15.292969 48.128906 15.296875 Z M 48.109375 16.074219 " fill-opacity="1" fill-rule="nonzero"/><path fill="#41464b" d="M 37.128906 62.683594 C 36.890625 62.574219 36.652344 62.457031 36.417969 62.339844 L 36.769531 61.644531 C 36.996094 61.757812 37.222656 61.871094 37.453125 61.980469 Z M 35.722656 61.96875 C 35.492188 61.84375 35.265625 61.710938 35.039062 61.578125 L 35.433594 60.90625 C 35.652344 61.035156 35.871094 61.164062 36.09375 61.285156 Z M 34.371094 61.164062 C 34.148438 61.023438 33.929688 60.878906 33.710938 60.730469 L 34.148438 60.085938 C 34.355469 60.230469 34.570312 60.367188 34.785156 60.507812 Z M 33.070312 60.273438 C 32.855469 60.117188 32.648438 59.960938 32.441406 59.796875 L 32.914062 59.183594 C 33.117188 59.339844 33.316406 59.492188 33.523438 59.644531 Z M 31.828125 59.304688 C 31.625 59.136719 31.425781 58.964844 31.230469 58.789062 L 31.742188 58.207031 C 31.933594 58.375 32.125 58.539062 32.320312 58.703125 Z M 30.652344 58.257812 C 30.460938 58.074219 30.273438 57.890625 30.089844 57.707031 L 30.636719 57.15625 C 30.8125 57.335938 30.996094 57.515625 31.179688 57.6875 Z M 29.542969 57.136719 C 29.363281 56.945312 29.1875 56.75 29.015625 56.550781 L 29.597656 56.039062 C 29.761719 56.230469 29.933594 56.417969 30.105469 56.605469 Z M 28.507812 55.949219 C 28.339844 55.746094 28.175781 55.539062 28.015625 55.332031 L 28.628906 54.855469 C 28.785156 55.058594 28.941406 55.257812 29.101562 55.453125 Z M 27.546875 54.699219 C 27.394531 54.484375 27.246094 54.269531 27.097656 54.050781 L 27.738281 53.613281 C 27.878906 53.828125 28.027344 54.035156 28.175781 54.242188 Z M 26.667969 53.390625 C 26.53125 53.167969 26.394531 52.941406 26.261719 52.714844 L 26.929688 52.320312 C 27.058594 52.542969 27.1875 52.757812 27.324219 52.972656 Z M 25.875 52.027344 C 25.75 51.796875 25.628906 51.566406 25.511719 51.328125 L 26.203125 50.980469 C 26.316406 51.207031 26.433594 51.433594 26.554688 51.65625 Z M 25.171875 50.621094 C 25.0625 50.382812 24.953125 50.140625 24.851562 49.898438 L 25.5625 49.59375 C 25.664062 49.828125 25.765625 50.058594 25.871094 50.289062 Z M 24.554688 49.167969 C 24.460938 48.921875 24.371094 48.675781 24.28125 48.425781 L 25.011719 48.167969 C 25.097656 48.410156 25.183594 48.648438 25.277344 48.886719 Z M 24.035156 47.675781 C 23.953125 47.425781 23.878906 47.175781 23.808594 46.921875 L 24.550781 46.707031 C 24.621094 46.953125 24.695312 47.199219 24.769531 47.441406 Z M 23.605469 46.15625 C 23.542969 45.898438 23.484375 45.644531 23.429688 45.386719 L 24.1875 45.222656 C 24.238281 45.472656 24.296875 45.71875 24.355469 45.96875 Z M 23.277344 44.609375 C 23.230469 44.351562 23.1875 44.089844 23.148438 43.828125 L 23.914062 43.714844 C 23.953125 43.96875 23.992188 44.21875 24.039062 44.46875 Z M 23.277344 44.609375 " fill-opacity="1" fill-rule="nonzero"/><path fill="#ff7443" d="M 74.632812 40.152344 C 74.632812 40.519531 74.5625 40.875 74.421875 41.214844 C 74.28125 41.554688 74.082031 41.855469 73.824219 42.117188 C 73.5625 42.378906 73.265625 42.578125 72.925781 42.71875 C 72.589844 42.863281 72.234375 42.933594 71.871094 42.933594 C 71.503906 42.933594 71.152344 42.863281 70.8125 42.71875 C 70.472656 42.578125 70.175781 42.378906 69.917969 42.117188 C 69.65625 41.855469 69.457031 41.554688 69.320312 41.214844 C 69.179688 40.875 69.109375 40.519531 69.109375 40.152344 C 69.109375 39.78125 69.179688 39.425781 69.320312 39.085938 C 69.457031 38.746094 69.65625 38.445312 69.917969 38.183594 C 70.175781 37.925781 70.472656 37.722656 70.8125 37.582031 C 71.152344 37.441406 71.503906 37.371094 71.871094 37.371094 C 72.234375 37.371094 72.589844 37.441406 72.925781 37.582031 C 73.265625 37.722656 73.5625 37.925781 73.824219 38.183594 C 74.082031 38.445312 74.28125 38.746094 74.421875 39.085938 C 74.5625 39.425781 74.632812 39.78125 74.632812 40.152344 Z M 74.632812 40.152344 " fill-opacity="1" fill-rule="nonzero"/><path fill="#ff7443" d="M 26.03125 40.152344 C 26.03125 40.519531 25.960938 40.875 25.820312 41.214844 C 25.679688 41.554688 25.480469 41.855469 25.21875 42.117188 C 24.960938 42.378906 24.664062 42.578125 24.324219 42.71875 C 23.984375 42.863281 23.632812 42.933594 23.269531 42.933594 C 22.902344 42.933594 22.550781 42.863281 22.210938 42.71875 C 21.871094 42.578125 21.574219 42.378906 21.316406 42.117188 C 21.054688 41.855469 20.855469 41.554688 20.714844 41.214844 C 20.578125 40.875 20.507812 40.519531 20.507812 40.152344 C 20.507812 39.78125 20.578125 39.425781 20.714844 39.085938 C 20.855469 38.746094 21.054688 38.445312 21.316406 38.183594 C 21.574219 37.925781 21.871094 37.722656 22.210938 37.582031 C 22.550781 37.441406 22.902344 37.371094 23.269531 37.371094 C 23.632812 37.371094 23.984375 37.441406 24.324219 37.582031 C 24.664062 37.722656 24.960938 37.925781 25.21875 38.183594 C 25.480469 38.445312 25.679688 38.746094 25.820312 39.085938 C 25.960938 39.425781 26.03125 39.78125 26.03125 40.152344 Z M 26.03125 40.152344 " fill-opacity="1" fill-rule="nonzero"/><path fill="#fed65c" d="M 47.570312 20.460938 C 36.773438 20.464844 28.019531 29.277344 28.019531 40.152344 C 28.019531 45.914062 30.480469 51.09375 34.394531 54.695312 C 34.578125 54.855469 34.765625 55.019531 34.953125 55.179688 C 38.011719 57.988281 39.929688 62.023438 39.929688 66.515625 L 39.929688 69.074219 L 55.207031 69.074219 L 55.207031 66.515625 C 55.207031 62.023438 57.128906 57.988281 60.183594 55.179688 C 60.371094 55.019531 60.554688 54.855469 60.742188 54.695312 C 64.65625 51.09375 67.117188 45.914062 67.117188 40.152344 C 67.117188 29.277344 58.367188 20.464844 47.570312 20.460938 Z M 47.570312 20.460938 " fill-opacity="1" fill-rule="nonzero"/><path fill="#ffffff" d="M 45.359375 57.640625 L 49.777344 57.640625 L 49.777344 69.074219 L 45.359375 69.074219 Z M 45.359375 57.640625 " fill-opacity="1" fill-rule="nonzero"/><path fill="#41464b" d="M 44.253906 57.273438 L 50.882812 57.273438 L 50.882812 58.011719 L 44.253906 58.011719 Z M 44.253906 57.273438 " fill-opacity="1" fill-rule="nonzero"/><path fill="#41464b" d="M 44.253906 58.878906 L 50.882812 58.878906 L 50.882812 59.613281 L 44.253906 59.613281 Z M 44.253906 58.878906 " fill-opacity="1" fill-rule="nonzero"/><path fill="#ffffff" d="M 47.570312 54.609375 C 39.621094 54.609375 33.210938 48.144531 33.210938 40.152344 C 33.210938 32.160156 39.621094 25.691406 47.570312 25.691406 C 55.492188 25.691406 61.929688 32.160156 61.929688 40.152344 C 61.929688 48.144531 55.492188 54.609375 47.570312 54.609375 Z M 47.570312 54.609375 " fill-opacity="1" fill-rule="nonzero"/><path fill="#4cbed8" d="M 47.570312 48.777344 C 42.828125 48.777344 39.003906 44.921875 39.003906 40.152344 C 39.003906 35.382812 42.828125 31.523438 47.570312 31.523438 C 52.296875 31.523438 56.136719 35.382812 56.136719 40.152344 C 56.136719 44.921875 52.296875 48.777344 47.570312 48.777344 Z M 47.570312 48.777344 " fill-opacity="1" fill-rule="nonzero"/><path fill="#ffffff" d="M 47.570312 42.597656 C 46.226562 42.597656 45.140625 41.503906 45.140625 40.148438 C 45.140625 38.796875 46.226562 37.703125 47.570312 37.703125 C 48.910156 37.703125 50 38.796875 50 40.148438 C 50 41.503906 48.910156 42.597656 47.570312 42.597656 Z M 47.570312 42.597656 " fill-opacity="1" fill-rule="nonzero"/><path fill="#41464b" d="M 47.566406 54.980469 C 39.449219 54.980469 32.84375 48.328125 32.84375 40.152344 C 32.84375 31.972656 39.449219 25.320312 47.566406 25.320312 C 55.6875 25.320312 62.292969 31.972656 62.292969 40.152344 C 62.292969 48.328125 55.6875 54.980469 47.566406 54.980469 Z M 47.566406 26.058594 C 39.851562 26.058594 33.574219 32.378906 33.574219 40.152344 C 33.574219 47.921875 39.851562 54.242188 47.566406 54.242188 C 55.285156 54.242188 61.5625 47.921875 61.5625 40.152344 C 61.5625 32.378906 55.285156 26.058594 47.566406 26.058594 Z M 47.566406 26.058594 " fill-opacity="1" fill-rule="nonzero"/><path fill="#41464b" d="M 47.203125 54.609375 L 47.933594 54.609375 L 47.933594 57.640625 L 47.203125 57.640625 Z M 47.203125 54.609375 " fill-opacity="1" fill-rule="nonzero"/><path fill="#41464b" d="M 47.566406 52.984375 C 44.390625 52.984375 41.898438 47.347656 41.898438 40.152344 C 41.898438 32.953125 44.390625 27.316406 47.566406 27.316406 C 50.75 27.316406 53.238281 32.953125 53.238281 40.152344 C 53.238281 47.347656 50.75 52.984375 47.566406 52.984375 Z M 47.566406 28.054688 C 44.890625 28.054688 42.628906 33.59375 42.628906 40.152344 C 42.628906 46.710938 44.890625 52.25 47.566406 52.25 C 50.246094 52.25 52.507812 46.710938 52.507812 40.152344 C 52.507812 33.59375 50.246094 28.054688 47.566406 28.054688 Z M 47.566406 28.054688 " fill-opacity="1" fill-rule="nonzero"/><path fill="#41464b" d="M 40.535156 48.28125 C 38.558594 48.28125 37.171875 47.6875 36.53125 46.566406 C 34.941406 43.792969 38.542969 38.804688 44.734375 35.203125 C 48.214844 33.179688 51.8125 32.019531 54.601562 32.019531 C 56.578125 32.019531 57.960938 32.613281 58.605469 33.734375 C 59.390625 35.101562 58.933594 37.058594 57.316406 39.234375 C 55.765625 41.324219 53.308594 43.40625 50.40625 45.097656 C 46.921875 47.121094 43.328125 48.28125 40.535156 48.28125 Z M 54.601562 32.757812 C 51.976562 32.757812 48.421875 33.910156 45.097656 35.84375 C 39.460938 39.121094 35.828125 43.863281 37.164062 46.199219 C 37.800781 47.3125 39.347656 47.542969 40.535156 47.542969 C 43.164062 47.542969 46.714844 46.390625 50.039062 44.457031 C 52.859375 42.820312 55.234375 40.804688 56.730469 38.792969 C 58.140625 36.894531 58.59375 35.183594 57.972656 34.101562 C 57.335938 32.988281 55.789062 32.757812 54.601562 32.757812 Z M 54.601562 32.757812 " fill-opacity="1" fill-rule="nonzero"/><path fill="#41464b" d="M 54.605469 48.28125 C 51.8125 48.28125 48.214844 47.121094 44.734375 45.097656 C 38.542969 41.5 34.941406 36.507812 36.53125 33.734375 C 37.175781 32.613281 38.558594 32.019531 40.535156 32.019531 C 43.328125 32.019531 46.921875 33.179688 50.402344 35.207031 C 53.308594 36.894531 55.761719 38.976562 57.316406 41.066406 C 58.933594 43.246094 59.390625 45.199219 58.605469 46.570312 C 57.964844 47.691406 56.578125 48.28125 54.605469 48.28125 Z M 40.535156 32.757812 C 39.351562 32.757812 37.800781 32.992188 37.164062 34.101562 C 35.828125 36.4375 39.460938 41.179688 45.097656 44.460938 C 48.421875 46.390625 51.976562 47.546875 54.605469 47.546875 C 55.789062 47.546875 57.335938 47.3125 57.972656 46.203125 C 58.59375 45.117188 58.140625 43.40625 56.730469 41.507812 C 55.234375 39.496094 52.859375 37.484375 50.039062 35.84375 C 46.714844 33.910156 43.164062 32.757812 40.535156 32.757812 Z M 40.535156 32.757812 " fill-opacity="1" fill-rule="nonzero"/><path fill="#ff7443" d="M 39.929688 69.074219 L 55.207031 69.074219 L 55.207031 77.230469 L 39.929688 77.230469 Z M 39.929688 69.074219 " fill-opacity="1" fill-rule="nonzero"/><path fill="#41464b" d="M 42.933594 68.707031 L 56.632812 68.707031 L 56.632812 69.445312 L 42.933594 69.445312 Z M 42.933594 68.707031 " fill-opacity="1" fill-rule="nonzero"/><path fill="#41464b" d="M 42.933594 70.308594 L 56.632812 70.308594 L 56.632812 71.046875 L 42.933594 71.046875 Z M 42.933594 70.308594 " fill-opacity="1" fill-rule="nonzero"/><path fill="#41464b" d="M 42.933594 71.914062 L 56.632812 71.914062 L 56.632812 72.652344 L 42.933594 72.652344 Z M 42.933594 71.914062 " fill-opacity="1" fill-rule="nonzero"/><path fill="#41464b" d="M 38.507812 68.707031 L 41.820312 68.707031 L 41.820312 69.445312 L 38.507812 69.445312 Z M 38.507812 68.707031 " fill-opacity="1" fill-rule="nonzero"/><path fill="#41464b" d="M 38.507812 70.308594 L 41.820312 70.308594 L 41.820312 71.046875 L 38.507812 71.046875 Z M 38.507812 70.308594 " fill-opacity="1" fill-rule="nonzero"/><path fill="#41464b" d="M 38.507812 71.914062 L 41.820312 71.914062 L 41.820312 72.652344 L 38.507812 72.652344 Z M 38.507812 71.914062 " fill-opacity="1" fill-rule="nonzero"/><path fill="#41464b" d="M 49.628906 80.964844 L 45.507812 80.964844 C 44.929688 80.964844 44.382812 80.738281 43.972656 80.328125 C 43.5625 79.910156 43.335938 79.363281 43.335938 78.78125 L 43.335938 76.863281 L 51.800781 76.863281 L 51.800781 78.78125 C 51.800781 79.363281 51.574219 79.914062 51.164062 80.324219 C 50.753906 80.738281 50.207031 80.964844 49.628906 80.964844 Z M 44.070312 77.601562 L 44.070312 78.78125 C 44.070312 79.167969 44.21875 79.53125 44.488281 79.804688 C 44.761719 80.078125 45.125 80.230469 45.507812 80.230469 L 49.628906 80.230469 C 50.011719 80.230469 50.375 80.078125 50.648438 79.804688 C 50.917969 79.53125 51.070312 79.167969 51.070312 78.78125 L 51.070312 77.601562 Z M 44.070312 77.601562 " fill-opacity="1" fill-rule="nonzero"/><path fill="#41464b" d="M 65.132812 72.769531 C 64.015625 72.769531 63.109375 71.855469 63.109375 70.730469 C 63.109375 69.609375 64.015625 68.695312 65.132812 68.695312 C 66.246094 68.695312 67.152344 69.609375 67.152344 70.730469 C 67.152344 71.855469 66.246094 72.769531 65.132812 72.769531 Z M 65.132812 69.433594 C 64.417969 69.433594 63.839844 70.015625 63.839844 70.730469 C 63.839844 71.449219 64.417969 72.03125 65.132812 72.03125 C 65.84375 72.03125 66.421875 71.449219 66.421875 70.730469 C 66.421875 70.015625 65.84375 69.433594 65.132812 69.433594 Z M 65.132812 69.433594 " fill-opacity="1" fill-rule="nonzero"/><path fill="#41464b" d="M 13.558594 38.726562 C 12.324219 38.726562 11.316406 37.714844 11.316406 36.46875 C 11.316406 35.222656 12.324219 34.210938 13.558594 34.210938 C 14.796875 34.210938 15.804688 35.222656 15.804688 36.46875 C 15.804688 37.714844 14.796875 38.726562 13.558594 38.726562 Z M 13.558594 34.945312 C 12.726562 34.945312 12.046875 35.628906 12.046875 36.46875 C 12.046875 37.308594 12.726562 37.992188 13.558594 37.992188 C 14.394531 37.992188 15.074219 37.308594 15.074219 36.46875 C 15.074219 35.628906 14.394531 34.945312 13.558594 34.945312 Z M 13.558594 34.945312 " fill-opacity="1" fill-rule="nonzero"/><path fill="#41464b" d="M 72.007812 23.707031 C 70.652344 23.707031 69.546875 22.589844 69.546875 21.222656 C 69.546875 19.855469 70.652344 18.742188 72.007812 18.742188 C 73.367188 18.742188 74.472656 19.855469 74.472656 21.222656 C 74.472656 22.589844 73.367188 23.707031 72.007812 23.707031 Z M 72.007812 19.476562 C 71.054688 19.476562 70.277344 20.261719 70.277344 21.222656 C 70.277344 22.183594 71.054688 22.96875 72.007812 22.96875 C 72.964844 22.96875 73.742188 22.183594 73.742188 21.222656 C 73.742188 20.261719 72.964844 19.476562 72.007812 19.476562 Z M 72.007812 19.476562 " fill-opacity="1" fill-rule="nonzero"/><path fill="#4cbed8" d="M 76.175781 14.992188 C 76.175781 15.855469 75.484375 16.546875 74.632812 16.546875 C 73.777344 16.546875 73.085938 15.855469 73.085938 14.992188 C 73.085938 14.132812 73.777344 13.433594 74.632812 13.433594 C 75.484375 13.433594 76.175781 14.132812 76.175781 14.992188 Z M 76.175781 14.992188 " fill-opacity="1" fill-rule="nonzero"/><path fill="#afafaf" d="M 47.125 9.921875 C 47.125 10.414062 46.730469 10.8125 46.242188 10.8125 C 45.753906 10.8125 45.359375 10.414062 45.359375 9.921875 C 45.359375 9.429688 45.753906 9.035156 46.242188 9.035156 C 46.730469 9.035156 47.125 9.429688 47.125 9.921875 Z M 47.125 9.921875 " fill-opacity="1" fill-rule="nonzero"/><path fill="#afafaf" d="M 70.113281 76.550781 C 70.113281 77.019531 69.730469 77.40625 69.261719 77.40625 C 68.792969 77.40625 68.414062 77.019531 68.414062 76.550781 C 68.414062 76.074219 68.792969 75.695312 69.261719 75.695312 C 69.730469 75.695312 70.113281 76.074219 70.113281 76.550781 Z M 70.113281 76.550781 " fill-opacity="1" fill-rule="nonzero"/><g clip-path="url(#0fe77393a7)"><path fill="#afafaf" d="M 11.996094 53.167969 C 11.996094 53.414062 11.910156 53.621094 11.738281 53.796875 C 11.566406 53.96875 11.355469 54.058594 11.113281 54.058594 C 10.867188 54.058594 10.660156 53.96875 10.488281 53.796875 C 10.316406 53.621094 10.230469 53.414062 10.230469 53.167969 C 10.230469 52.921875 10.316406 52.710938 10.488281 52.539062 C 10.660156 52.363281 10.867188 52.277344 11.113281 52.277344 C 11.355469 52.277344 11.566406 52.363281 11.738281 52.539062 C 11.910156 52.710938 11.996094 52.921875 11.996094 53.167969 Z M 11.996094 53.167969 " fill-opacity="1" fill-rule="nonzero"/></g><path fill="#41464b" d="M 77.734375 32.84375 C 77.105469 32.84375 76.589844 32.328125 76.589844 31.691406 C 76.589844 31.054688 77.105469 30.539062 77.734375 30.539062 C 78.367188 30.539062 78.878906 31.054688 78.878906 31.691406 C 78.878906 32.328125 78.367188 32.84375 77.734375 32.84375 Z M 77.734375 31.273438 C 77.507812 31.273438 77.324219 31.460938 77.324219 31.691406 C 77.324219 31.921875 77.507812 32.109375 77.734375 32.109375 C 77.964844 32.109375 78.148438 31.921875 78.148438 31.691406 C 78.148438 31.460938 77.964844 31.273438 77.734375 31.273438 Z M 77.734375 31.273438 " fill-opacity="1" fill-rule="nonzero"/><path fill="#41464b" d="M 18.355469 57.722656 C 17.628906 57.722656 17.035156 57.125 17.035156 56.390625 C 17.035156 55.660156 17.628906 55.0625 18.355469 55.0625 C 19.085938 55.0625 19.675781 55.660156 19.675781 56.390625 C 19.675781 57.125 19.085938 57.722656 18.355469 57.722656 Z M 18.355469 55.796875 C 18.03125 55.796875 17.765625 56.066406 17.765625 56.390625 C 17.765625 56.71875 18.03125 56.984375 18.355469 56.984375 C 18.679688 56.984375 18.945312 56.71875 18.945312 56.390625 C 18.945312 56.066406 18.679688 55.796875 18.355469 55.796875 Z M 18.355469 55.796875 " fill-opacity="1" fill-rule="nonzero"/><path fill="#4cbed8" d="M 78.863281 58.972656 C 78.863281 62.976562 75.640625 66.226562 71.664062 66.226562 C 67.6875 66.226562 64.460938 62.976562 64.460938 58.972656 C 64.460938 56.96875 65.269531 55.15625 66.570312 53.847656 L 71.664062 58.972656 Z M 78.863281 58.972656 " fill-opacity="1" fill-rule="nonzero"/><g clip-path="url(#c367d087dc)"><path fill="#ff7443" d="M 73.164062 57.460938 L 80.367188 57.460938 C 80.367188 55.457031 79.5625 53.644531 78.257812 52.332031 Z M 73.164062 57.460938 " fill-opacity="1" fill-rule="nonzero"/></g><g clip-path="url(#dbab9db611)"><path fill="#41464b" d="M 80.734375 57.828125 L 72.800781 57.828125 L 72.800781 49.839844 L 73.164062 49.839844 C 77.339844 49.839844 80.734375 53.257812 80.734375 57.460938 Z M 73.53125 57.09375 L 79.992188 57.09375 C 79.808594 53.589844 77.011719 50.773438 73.53125 50.585938 Z M 73.53125 57.09375 " fill-opacity="1" fill-rule="nonzero"/></g><path fill="#41464b" d="M 71.664062 66.59375 C 67.492188 66.59375 64.097656 63.175781 64.097656 58.972656 C 64.097656 54.773438 67.492188 51.351562 71.664062 51.351562 L 71.976562 51.351562 L 71.976562 52.089844 L 71.664062 52.089844 C 67.894531 52.089844 64.828125 55.179688 64.828125 58.972656 C 64.828125 62.769531 67.894531 65.859375 71.664062 65.859375 C 73.488281 65.859375 75.207031 65.140625 76.496094 63.84375 L 77.015625 64.363281 C 75.585938 65.800781 73.683594 66.59375 71.664062 66.59375 Z M 71.664062 66.59375 " fill-opacity="1" fill-rule="nonzero"/><path fill="#41464b" d="M 78.863281 59.339844 L 71.296875 59.339844 L 71.296875 57.507812 L 72.03125 57.507812 L 72.03125 58.605469 L 78.863281 58.605469 Z M 78.863281 59.339844 " fill-opacity="1" fill-rule="nonzero"/><path fill="#41464b" d="M 71.402344 58.710938 L 71.917969 59.234375 L 69.519531 61.652344 L 69 61.128906 Z M 71.402344 58.710938 " fill-opacity="1" fill-rule="nonzero"/><path fill="#41464b" d="M 71.296875 55.945312 L 72.03125 55.945312 L 72.03125 56.726562 L 71.296875 56.726562 Z M 71.296875 55.945312 " fill-opacity="1" fill-rule="nonzero"/><path fill="#41464b" d="M 71.296875 54.390625 L 72.03125 54.390625 L 72.03125 55.167969 L 71.296875 55.167969 Z M 71.296875 54.390625 " fill-opacity="1" fill-rule="nonzero"/><path fill="#41464b" d="M 71.296875 52.832031 L 72.03125 52.832031 L 72.03125 53.613281 L 71.296875 53.613281 Z M 71.296875 52.832031 " fill-opacity="1" fill-rule="nonzero"/><path fill="#41464b" d="M 29.988281 68.707031 L 30.71875 68.707031 L 30.71875 69.445312 L 29.988281 69.445312 Z M 29.988281 68.707031 " fill-opacity="1" fill-rule="nonzero"/><path fill="#41464b" d="M 31.449219 68.707031 L 32.183594 68.707031 L 32.183594 69.445312 L 31.449219 69.445312 Z M 31.449219 68.707031 " fill-opacity="1" fill-rule="nonzero"/><path fill="#41464b" d="M 32.914062 68.707031 L 33.644531 68.707031 L 33.644531 69.445312 L 32.914062 69.445312 Z M 32.914062 68.707031 " fill-opacity="1" fill-rule="nonzero"/><path fill="#41464b" d="M 14.4375 68.707031 L 15.167969 68.707031 L 15.167969 69.445312 L 14.4375 69.445312 Z M 14.4375 68.707031 " fill-opacity="1" fill-rule="nonzero"/><path fill="#41464b" d="M 15.902344 68.707031 L 16.632812 68.707031 L 16.632812 69.445312 L 15.902344 69.445312 Z M 15.902344 68.707031 " fill-opacity="1" fill-rule="nonzero"/><path fill="#41464b" d="M 17.363281 68.707031 L 18.09375 68.707031 L 18.09375 69.445312 L 17.363281 69.445312 Z M 17.363281 68.707031 " fill-opacity="1" fill-rule="nonzero"/><path fill="#4cbed8" d="M 28.804688 69.074219 C 29.273438 69.890625 29.539062 70.835938 29.539062 71.84375 C 29.539062 74.902344 27.078125 77.382812 24.042969 77.382812 C 21.003906 77.382812 18.542969 74.902344 18.542969 71.84375 C 18.542969 70.835938 18.8125 69.890625 19.277344 69.074219 C 20.230469 70.730469 22.007812 71.84375 24.042969 71.84375 C 26.078125 71.84375 27.855469 70.730469 28.804688 69.074219 Z M 28.804688 69.074219 " fill-opacity="1" fill-rule="nonzero"/><path fill="#ff7443" d="M 24.042969 60.769531 C 27.078125 60.769531 29.539062 63.25 29.539062 66.308594 C 29.539062 67.316406 29.273438 68.261719 28.804688 69.074219 C 27.855469 67.421875 26.078125 66.308594 24.042969 66.308594 C 22.007812 66.308594 20.230469 67.421875 19.277344 69.074219 C 18.808594 68.261719 18.542969 67.316406 18.542969 66.308594 C 18.542969 63.25 21.003906 60.769531 24.042969 60.769531 Z M 24.042969 60.769531 " fill-opacity="1" fill-rule="nonzero"/><path fill="#41464b" d="M 24.042969 72.210938 C 21.953125 72.210938 20.007812 71.082031 18.960938 69.261719 L 18.855469 69.074219 L 18.960938 68.890625 C 20.007812 67.070312 21.953125 65.9375 24.042969 65.9375 C 26.128906 65.9375 28.074219 67.070312 29.121094 68.890625 L 29.226562 69.074219 L 29.121094 69.261719 C 28.074219 71.082031 26.128906 72.210938 24.042969 72.210938 Z M 19.707031 69.074219 C 20.644531 70.5625 22.285156 71.476562 24.042969 71.476562 C 25.796875 71.476562 27.4375 70.5625 28.375 69.074219 C 27.4375 67.589844 25.796875 66.675781 24.042969 66.675781 C 22.285156 66.675781 20.644531 67.589844 19.707031 69.074219 Z M 19.707031 69.074219 " fill-opacity="1" fill-rule="nonzero"/><path fill="#41464b" d="M 24.042969 70.675781 C 23.167969 70.675781 22.453125 69.957031 22.453125 69.074219 C 22.453125 68.195312 23.167969 67.476562 24.042969 67.476562 C 24.917969 67.476562 25.628906 68.195312 25.628906 69.074219 C 25.628906 69.957031 24.917969 70.675781 24.042969 70.675781 Z M 24.042969 68.214844 C 23.570312 68.214844 23.1875 68.601562 23.1875 69.074219 C 23.1875 69.550781 23.570312 69.9375 24.042969 69.9375 C 24.511719 69.9375 24.898438 69.550781 24.898438 69.074219 C 24.898438 68.601562 24.515625 68.214844 24.042969 68.214844 Z M 24.042969 68.214844 " fill-opacity="1" fill-rule="nonzero"/><path fill="#41464b" d="M 30.660156 76.667969 L 33.75 76.667969 L 33.75 77.402344 L 30.660156 77.402344 Z M 30.660156 76.667969 " fill-opacity="1" fill-rule="nonzero"/><path fill="#41464b" d="M 33.75 76.0625 L 30.511719 76.0625 L 27.886719 73.421875 L 28.40625 72.902344 L 30.8125 75.328125 L 33.75 75.328125 Z M 33.75 76.0625 " fill-opacity="1" fill-rule="nonzero"/><path fill="#41464b" d="M 14.332031 60.746094 L 17.421875 60.746094 L 17.421875 61.484375 L 14.332031 61.484375 Z M 14.332031 60.746094 " fill-opacity="1" fill-rule="nonzero"/><path fill="#41464b" d="M 19.675781 65.25 L 17.269531 62.824219 L 14.332031 62.824219 L 14.332031 62.089844 L 17.574219 62.089844 L 20.195312 64.730469 Z M 19.675781 65.25 " fill-opacity="1" fill-rule="nonzero"/><path fill="#afafaf" d="M 25.609375 24.109375 C 26.074219 23.277344 25.957031 22.203125 25.25 21.496094 C 24.546875 20.785156 23.484375 20.667969 22.65625 21.132812 C 22.398438 20.214844 21.5625 19.542969 20.566406 19.542969 C 19.570312 19.542969 18.730469 20.214844 18.472656 21.132812 C 17.648438 20.667969 16.582031 20.785156 15.878906 21.496094 C 15.175781 22.203125 15.054688 23.277344 15.519531 24.109375 C 14.605469 24.371094 13.9375 25.214844 13.9375 26.214844 C 13.9375 27.421875 14.910156 28.402344 16.113281 28.402344 L 19.726562 28.402344 C 20.925781 28.402344 21.898438 29.382812 21.898438 30.59375 L 21.898438 32.058594 L 22.847656 32.058594 L 22.847656 30.59375 C 22.847656 29.382812 23.820312 28.402344 25.019531 28.402344 C 25.621094 28.402344 26.164062 28.15625 26.554688 27.761719 C 26.949219 27.367188 27.191406 26.816406 27.191406 26.214844 C 27.191406 25.214844 26.523438 24.371094 25.609375 24.109375 Z M 25.609375 24.109375 " fill-opacity="1" fill-rule="nonzero"/><path fill="#ffffff" d="M 18.632812 25.816406 L 19.40625 25.816406 L 19.40625 26.550781 L 18.632812 26.550781 Z M 18.632812 25.816406 " fill-opacity="1" fill-rule="nonzero"/><path fill="#ffffff" d="M 20.179688 25.816406 L 20.953125 25.816406 L 20.953125 26.550781 L 20.179688 26.550781 Z M 20.179688 25.816406 " fill-opacity="1" fill-rule="nonzero"/><path fill="#ffffff" d="M 21.726562 25.816406 L 22.496094 25.816406 L 22.496094 26.550781 L 21.726562 26.550781 Z M 21.726562 25.816406 " fill-opacity="1" fill-rule="nonzero"/><path fill="#41464b" d="M 32.644531 19.699219 C 31.226562 19.699219 30.070312 18.535156 30.070312 17.105469 C 30.070312 15.675781 31.226562 14.511719 32.644531 14.511719 C 34.066406 14.511719 35.21875 15.675781 35.21875 17.105469 C 35.21875 18.535156 34.066406 19.699219 32.644531 19.699219 Z M 32.644531 15.25 C 31.628906 15.25 30.800781 16.082031 30.800781 17.105469 C 30.800781 18.128906 31.628906 18.964844 32.644531 18.964844 C 33.660156 18.964844 34.488281 18.128906 34.488281 17.105469 C 34.488281 16.082031 33.660156 15.25 32.644531 15.25 Z M 32.644531 15.25 " fill-opacity="1" fill-rule="nonzero"/><path fill="#41464b" d="M 39.273438 19.699219 C 37.851562 19.699219 36.699219 18.535156 36.699219 17.105469 C 36.699219 15.675781 37.851562 14.511719 39.273438 14.511719 C 40.691406 14.511719 41.847656 15.675781 41.847656 17.105469 C 41.847656 18.535156 40.691406 19.699219 39.273438 19.699219 Z M 39.273438 15.25 C 38.257812 15.25 37.429688 16.082031 37.429688 17.105469 C 37.429688 18.128906 38.257812 18.964844 39.273438 18.964844 C 40.289062 18.964844 41.117188 18.128906 41.117188 17.105469 C 41.117188 16.082031 40.289062 15.25 39.273438 15.25 Z M 39.273438 15.25 " fill-opacity="1" fill-rule="nonzero"/><path fill="#41464b" d="M 37.429688 17.105469 L 36.699219 17.105469 C 36.699219 16.695312 36.367188 16.359375 35.957031 16.359375 C 35.550781 16.359375 35.21875 16.695312 35.21875 17.105469 L 34.488281 17.105469 C 34.488281 16.289062 35.148438 15.625 35.957031 15.625 C 36.769531 15.625 37.429688 16.289062 37.429688 17.105469 Z M 37.429688 17.105469 " fill-opacity="1" fill-rule="nonzero"/><path fill="#41464b" d="M 41.847656 17.105469 L 41.117188 17.105469 L 41.117188 11.542969 C 41.117188 11.132812 40.785156 10.800781 40.378906 10.800781 L 40.378906 10.0625 C 41.1875 10.0625 41.847656 10.726562 41.847656 11.542969 Z M 41.847656 17.105469 " fill-opacity="1" fill-rule="nonzero"/><path fill="#41464b" d="M 30.800781 17.105469 L 30.070312 17.105469 L 30.070312 11.542969 C 30.070312 11.132812 29.738281 10.800781 29.332031 10.800781 L 29.332031 10.0625 C 30.140625 10.0625 30.800781 10.726562 30.800781 11.542969 Z M 30.800781 17.105469 " fill-opacity="1" fill-rule="nonzero"/></svg>