<?xml version="1.0" encoding="utf-8"?>
<!-- Generator: Adobe Illustrator 28.3.0, SVG Export Plug-In . SVG Version: 6.00 Build 0)  -->
<svg version="1.1" id="Layer_1" xmlns="http://www.w3.org/2000/svg" xmlns:xlink="http://www.w3.org/1999/xlink" x="0px" y="0px"
	 viewBox="0 0 120 120" style="enable-background:new 0 0 120 120;" xml:space="preserve">
<style type="text/css">
	.st0{fill:#00DA77;}
	.st1{fill:#EDEBFD;}
	.st2{fill:#615285;}
</style>
<g>
	<g>
		<g id="_x30_7_x2C__audit_x2C__business_and_finance_x2C__inspection_x2C__loupe_x2C__money">
			<g>
				<g>
					<path class="st0" d="M92.4,53.41c10.11,0,18.31,8.2,18.31,18.31c0,10.11-8.2,18.31-18.31,18.31c-5.78,0-10.94-2.68-14.29-6.87
						c-2.51-3.13-4.02-7.11-4.02-11.44C74.09,61.61,82.29,53.41,92.4,53.41z"/>
					<path class="st1" d="M78.11,83.17c3.36,4.19,8.51,6.87,14.29,6.87v12.74c0,4.34-3.52,7.86-7.86,7.86H31.59
						c-4.34,0-7.86-3.52-7.86-7.86V22.36c0-4.34,3.52-7.86,7.86-7.86h10.45v6.87h32.05V14.5h10.45c4.34,0,7.86,3.52,7.86,7.86v31.05
						c-10.11,0-18.31,8.2-18.31,18.31C74.09,76.06,75.59,80.04,78.11,83.17z"/>
					<path class="st2" d="M74.09,14.5v6.87H42.04V14.5v-2.52c0-3.67,2.97-6.64,6.64-6.64h18.77c3.67,0,6.64,2.97,6.64,6.64V14.5
						L74.09,14.5z"/>
					<path d="M58.97,56.37h-6.34c-1.26,0-2.29-1.02-2.29-2.29c0-1.26,1.02-2.29,2.29-2.29h6.34c0.6,0,1.16-0.23,1.58-0.66
						c0.42-0.42,0.66-0.98,0.66-1.58c0-1.24-1.01-2.24-2.24-2.24h-1.81c-1.82,0-3.54-0.71-4.82-2c-1.29-1.28-2-2.99-2-4.82
						c0-3.76,3.06-6.82,6.82-6.82h6.34c1.26,0,2.29,1.02,2.29,2.29c0,1.26-1.02,2.29-2.29,2.29h-6.34c-1.24,0-2.24,1.01-2.24,2.24
						c0,0.6,0.23,1.16,0.65,1.58c0.43,0.43,0.99,0.66,1.59,0.66h1.81c3.76,0,6.82,3.06,6.82,6.82c0,1.82-0.71,3.54-2,4.82
						C62.5,55.66,60.79,56.37,58.97,56.37z"/>
					<path d="M58.07,38.25c-1.26,0-2.29-1.03-2.29-2.29v-5.44c0-1.26,1.02-2.29,2.29-2.29s2.29,1.02,2.29,2.29v5.44
						C60.35,37.23,59.33,38.25,58.07,38.25z"/>
					<path d="M58.07,61.81c-1.26,0-2.29-1.02-2.29-2.29v-5.44c0-1.26,1.02-2.29,2.29-2.29s2.29,1.02,2.29,2.29v5.44
						C60.35,60.78,59.33,61.81,58.07,61.81z"/>
					<path d="M84.54,112.93H31.59c-5.59,0-10.15-4.55-10.15-10.15V22.36c0-5.59,4.55-10.15,10.15-10.15h10.45
						c1.26,0,2.29,1.02,2.29,2.29c0,1.26-1.02,2.29-2.29,2.29H31.59c-3.07,0-5.57,2.5-5.57,5.57v80.42c0,3.07,2.5,5.57,5.57,5.57
						h52.95c3.07,0,5.57-2.5,5.57-5.57V90.04c0-1.26,1.02-2.29,2.29-2.29s2.29,1.03,2.29,2.29v12.74
						C94.69,108.37,90.14,112.93,84.54,112.93z"/>
					<path d="M92.4,55.7c-1.26,0-2.29-1.02-2.29-2.29V22.36c0-3.07-2.5-5.57-5.57-5.57H74.09c-1.26,0-2.29-1.02-2.29-2.29
						c0-1.26,1.02-2.29,2.29-2.29h10.45c5.59,0,10.15,4.55,10.15,10.15v31.05C94.69,54.68,93.66,55.7,92.4,55.7z"/>
					<path d="M74.09,23.66H42.04c-1.26,0-2.29-1.02-2.29-2.29v-9.38c0-4.92,4-8.93,8.93-8.93h18.77c4.92,0,8.93,4,8.93,8.93v9.38
						C76.38,22.63,75.35,23.66,74.09,23.66z M44.33,19.08H71.8v-7.1c0-2.4-1.95-4.35-4.35-4.35H48.68c-2.4,0-4.35,1.95-4.35,4.35
						L44.33,19.08L44.33,19.08z"/>
					<path d="M92.4,92.33c-6.28,0-12.15-2.82-16.08-7.72c-2.91-3.63-4.52-8.21-4.52-12.88c0-11.36,9.24-20.6,20.6-20.6
						c11.36,0,20.6,9.24,20.6,20.6C113,83.08,103.76,92.33,92.4,92.33z M92.4,55.7c-8.84,0-16.02,7.19-16.02,16.02
						c0,3.68,1.21,7.15,3.51,10.01c3.06,3.82,7.62,6.01,12.51,6.01c8.83,0,16.02-7.19,16.02-16.02
						C108.42,62.89,101.23,55.7,92.4,55.7z"/>
					<path d="M88.49,77.92l-4.58-4.58c-0.89-0.89-0.89-2.34,0-3.24c0.89-0.89,2.34-0.89,3.24,0l2.96,2.96l7.54-7.54
						c0.89-0.89,2.34-0.89,3.24,0c0.89,0.89,0.89,2.34,0,3.24l-9.16,9.16C90.84,78.82,89.39,78.82,88.49,77.92z"/>
					<path d="M74.09,74.01H35.18c-1.26,0-2.29-1.02-2.29-2.29c0-1.26,1.02-2.29,2.29-2.29h38.91c1.26,0,2.29,1.03,2.29,2.29
						C76.38,72.99,75.35,74.01,74.09,74.01z"/>
					<path d="M78.11,85.46H35.18c-1.26,0-2.29-1.02-2.29-2.29c0-1.26,1.02-2.29,2.29-2.29h42.93c1.26,0,2.29,1.03,2.29,2.29
						C80.39,84.43,79.37,85.46,78.11,85.46z"/>
					<path d="M74.09,96.9H35.18c-1.26,0-2.29-1.02-2.29-2.29c0-1.26,1.02-2.29,2.29-2.29h38.91c1.26,0,2.29,1.03,2.29,2.29
						C76.38,95.88,75.35,96.9,74.09,96.9z"/>
				</g>
			</g>
		</g>
	</g>
</g>
</svg>
