<?xml version="1.0" encoding="utf-8"?>
<!-- Generator: Adobe Illustrator 28.3.0, SVG Export Plug-In . SVG Version: 6.00 Build 0)  -->
<svg version="1.1" id="Layer_1" xmlns="http://www.w3.org/2000/svg" xmlns:xlink="http://www.w3.org/1999/xlink" x="0px" y="0px"
	 viewBox="0 0 100 100" style="enable-background:new 0 0 100 100;" xml:space="preserve">
<style type="text/css">
	.st0{fill:#76E7FC;}
	.st1{fill:#FBF3F3;}
	.st2{fill:#FF415B;}
	.st3{fill:#FF884D;}
	.st4{fill:#FFBB33;}
	.st5{fill:#FFDD33;}
	.st6{fill:#6680FF;}
	.st7{fill:#80AAFF;}
	.st8{fill:#E8E3F0;}
	.st9{fill:#53E261;}
	.st10{fill:#FFBB00;}
	.st11{fill:#7CBB00;}
	.st12{fill:#00A1F1;}
	.st13{fill:#F65314;}
	.st14{fill:#1A171B;}
	.st15{fill:#A8796F;}
	.st16{fill:#DCEEF4;}
	.st17{fill:#6BDF1E;}
	.st18{fill:#FFD92C;}
	.st19{fill:#00D9FF;}
	.st20{fill:#09BEEF;}
	.st21{fill:#2AD7F6;}
	.st22{fill:#FD641A;}
	.st23{fill:#FDCBBC;}
</style>
<g>
	<g>
		<g id="_x35_1_x2C__Funnel_x2C__purchase_x2C_filter_x2C__sales_funnel_x2C__user">
			<g>
				<g>
					<polygon class="st20" points="72.08,47.06 57.2,70.86 57.2,83.67 42.56,92.82 42.56,70.86 27.68,47.06 					"/>
					<path class="st21" d="M79.17,36.07l-7.09,10.98H27.68l-7.09-10.98C23,36.07,75.73,36.07,79.17,36.07z"/>
					<path class="st22" d="M64.52,36.07H35.23c0-8.09,6.56-14.65,14.65-14.65C57.97,21.43,64.52,27.98,64.52,36.07z"/>
					<path class="st23" d="M42.65,12.93c0.65-3.99,4.41-6.7,8.4-6.06c3.99,0.65,6.7,4.41,6.06,8.4c-0.65,3.99-4.41,6.7-8.4,6.06
						C44.72,20.68,42,16.92,42.65,12.93z"/>
					<path d="M64.52,37.9c-1.01,0-1.83-0.82-1.83-1.83c0-7.07-5.75-12.81-12.81-12.81c-7.07,0-12.81,5.75-12.81,12.81
						c0,1.01-0.82,1.83-1.83,1.83c-1.01,0-1.83-0.82-1.83-1.83c0-9.08,7.39-16.48,16.48-16.48s16.48,7.39,16.48,16.48
						C66.35,37.08,65.53,37.9,64.52,37.9z"/>
					<path d="M49.88,23.26c-5.05,0-9.15-4.11-9.15-9.15s4.11-9.15,9.15-9.15c5.05,0,9.15,4.11,9.15,9.15
						C59.03,19.15,54.93,23.26,49.88,23.26z M49.88,8.61c-3.03,0-5.49,2.46-5.49,5.49s2.46,5.49,5.49,5.49
						c3.03,0,5.49-2.46,5.49-5.49S52.91,8.61,49.88,8.61z"/>
					<path d="M42.56,94.65c-0.31,0-0.61-0.08-0.89-0.23c-0.58-0.32-0.94-0.94-0.94-1.6V71.38l-14.6-23.35
						c-0.54-0.86-0.28-1.99,0.58-2.52c0.86-0.54,1.99-0.28,2.52,0.58l14.88,23.8c0.18,0.29,0.28,0.63,0.28,0.97v18.66l10.98-6.87
						v-11.8c0-0.34,0.1-0.68,0.28-0.97l14.88-23.8c0.54-0.86,1.67-1.12,2.52-0.58c0.86,0.54,1.12,1.67,0.58,2.52l-14.6,23.35v12.29
						c0,0.63-0.33,1.22-0.86,1.55l-14.64,9.15C43.23,94.56,42.89,94.65,42.56,94.65z"/>
					<path d="M72.08,48.89H27.68c-0.62,0-1.2-0.32-1.54-0.84l-7.09-10.98c-0.36-0.56-0.39-1.28-0.07-1.87
						c0.32-0.59,0.94-0.95,1.61-0.95h58.58c0.67,0,1.29,0.37,1.61,0.95c0.32,0.59,0.29,1.31-0.07,1.87l-7.09,10.98
						C73.28,48.57,72.7,48.89,72.08,48.89z M28.67,45.23h42.41l4.72-7.32H23.95L28.67,45.23z"/>
				</g>
			</g>
		</g>
	</g>
</g>
</svg>
