<?xml version="1.0" encoding="utf-8"?>
<!-- Generator: Adobe Illustrator 28.3.0, SVG Export Plug-In . SVG Version: 6.00 Build 0)  -->
<svg version="1.1" id="Layer_1" xmlns="http://www.w3.org/2000/svg" xmlns:xlink="http://www.w3.org/1999/xlink" x="0px" y="0px"
	 viewBox="0 0 100 100" style="enable-background:new 0 0 100 100;" xml:space="preserve">
<style type="text/css">
	.st0{fill:#76E7FC;}
	.st1{fill:#FBF3F3;}
	.st2{fill:#FF415B;}
	.st3{fill:#FF884D;}
	.st4{fill:#FFBB33;}
	.st5{fill:#FFDD33;}
	.st6{fill:#6680FF;}
	.st7{fill:#80AAFF;}
	.st8{fill:#E8E3F0;}
	.st9{fill:#53E261;}
	.st10{fill:#FFBB00;}
	.st11{fill:#7CBB00;}
	.st12{fill:#00A1F1;}
	.st13{fill:#F65314;}
	.st14{fill:#1A171B;}
	.st15{fill:#A8796F;}
	.st16{fill:#DCEEF4;}
	.st17{fill:#6BDF1E;}
	.st18{fill:#FFD92C;}
	.st19{fill:#00D9FF;}
</style>
<g>
	<g>
		<g id="_x33__x2C__Presentation_x2C__diagram_x2C__analytics_x2C__planning_x2C__data_x2C__infographic">
			<g>
				<g>
					<path class="st15" d="M82.31,64.9c0,4.06-3.29,7.34-7.34,7.34h-24.6H25.4c-4.06,0-7.34-3.29-7.34-7.34l30.7-2.94
						C48.76,61.96,82.17,64.9,82.31,64.9z"/>
				</g>
				<path class="st16" d="M10.71,12.4V57.1c0,4.31,3.49,7.8,7.8,7.8c13.38,0,54.76,0,63.34,0c4.31,0,7.8-3.49,7.8-7.8V12.4H10.71z"
					/>
				<g>
					<path class="st17" d="M82.31,39.93l-14.46,2.63l1.61-15.48C76.56,27.08,82.31,32.84,82.31,39.93z"/>
				</g>
				<g>
					<path class="st18" d="M69.46,39.93h12.85c0,7.2-5.92,13.02-13.16,12.85c-6.82-0.16-12.38-5.72-12.54-12.54
						c-0.17-7.24,5.65-13.16,12.85-13.16V39.93L69.46,39.93z"/>
				</g>
				<g>
					<circle class="st15" cx="50.37" cy="90.24" r="4.77"/>
				</g>
				<g>
					<path class="st15" d="M95.17,9.64c0,2.54-2.06,4.59-4.59,4.59c-4.17,0-76.6,0-80.78,0c-2.54,0-4.59-2.06-4.59-4.59
						c0-2.54,2.05-4.59,4.59-4.59h80.78C93.11,5.05,95.17,7.11,95.17,9.64z"/>
				</g>
				<g>
					<polygon class="st18" points="43.76,45.44 43.76,52.79 36.42,52.79 34.84,49.45 36.42,45.44 					"/>
				</g>
				<g>
					<path class="st17" d="M36.42,52.79h-7.34l-2.01-5.2l2.01-7.65h7.34C36.42,42.55,36.42,50.16,36.42,52.79z"/>
				</g>
				<g>
					<polygon class="st19" points="29.07,39.93 29.07,52.79 21.73,52.79 21.73,34.43 29.07,34.43 					"/>
				</g>
				<g>
					<path d="M97,9.64c0-3.54-2.88-6.43-6.43-6.43H9.8c-3.54,0-6.43,2.88-6.43,6.43c0,3.23,2.4,5.91,5.51,6.36v41.1
						c0,4.57,3.2,8.41,7.48,9.39c0.76,4.31,4.52,7.59,9.04,7.59h23.13v9.81c-2.75,0.8-4.77,3.34-4.77,6.35
						c0,3.64,2.96,6.61,6.61,6.61c3.64,0,6.61-2.96,6.61-6.61c0-3.01-2.02-5.55-4.77-6.35v-9.81h22.77c4.52,0,8.28-3.28,9.04-7.59
						c4.28-0.98,7.48-4.82,7.48-9.39V16C94.6,15.55,97,12.87,97,9.64z M53.31,90.24c0,1.62-1.32,2.94-2.94,2.94
						c-1.62,0-2.94-1.32-2.94-2.94s1.32-2.94,2.94-2.94C51.99,87.3,53.31,88.62,53.31,90.24z M74.97,70.41H25.4
						c-2.39,0-4.44-1.53-5.19-3.67h59.96C79.41,68.88,77.36,70.41,74.97,70.41z M87.82,57.1c0,3.29-2.68,5.97-5.97,5.97H18.52
						c-3.29,0-5.97-2.68-5.97-5.97V16.07h75.27V57.1L87.82,57.1z M90.57,12.4c-4.17,0-76.6,0-80.78,0c-1.52,0-2.75-1.24-2.75-2.75
						c0-1.52,1.24-2.75,2.75-2.75h80.78c1.52,0,2.75,1.24,2.75,2.75C93.33,11.16,92.09,12.4,90.57,12.4z"/>
					<path d="M18.06,54.62c4.38,0,26.03,0,29.37,0c1.01,0,1.84-0.82,1.84-1.84c0-1.01-0.82-1.84-1.84-1.84H45.6v-5.51
						c0-1.01-0.82-1.84-1.84-1.84h-5.51v-3.67c0-1.01-0.82-1.84-1.84-1.84h-5.51v-3.67c0-1.01-0.82-1.84-1.84-1.84h-7.34
						c-1.01,0-1.84,0.82-1.84,1.84v16.52h-1.84c-1.01,0-1.84,0.82-1.84,1.84C16.22,53.8,17.04,54.62,18.06,54.62z M41.92,47.28v3.67
						h-3.67v-3.67H41.92z M34.58,41.77c0,3.94,0,4.88,0,9.18h-3.67v-9.18H34.58z M23.57,36.26h3.67c0,1.31,0,12.7,0,14.69h-3.67
						V36.26z"/>
					<path d="M69.46,54.62c8.1,0,14.69-6.59,14.69-14.69c0-8.1-6.59-14.69-14.69-14.69c-8.1,0-14.69,6.59-14.69,14.69
						C54.78,48.03,61.36,54.62,69.46,54.62z M80.32,38.1H71.3v-9.02C75.9,29.85,79.55,33.49,80.32,38.1z M67.63,29.08v10.86
						c0,1.01,0.82,1.84,1.84,1.84h10.86c-0.88,5.2-5.41,9.18-10.86,9.18c-6.07,0-11.02-4.94-11.02-11.02
						C58.45,34.49,62.42,29.95,67.63,29.08z"/>
					<path d="M40.09,23.41h9.18c1.01,0,1.84-0.82,1.84-1.84c0-1.01-0.82-1.84-1.84-1.84h-9.18c-1.01,0-1.84,0.82-1.84,1.84
						C38.25,22.59,39.07,23.41,40.09,23.41z"/>
					<path d="M40.09,30.75h9.18c1.01,0,1.84-0.82,1.84-1.84c0-1.01-0.82-1.84-1.84-1.84h-9.18c-1.01,0-1.84,0.82-1.84,1.84
						C38.25,29.93,39.07,30.75,40.09,30.75z"/>
				</g>
			</g>
		</g>
	</g>
</g>
</svg>
