<?xml version="1.0" encoding="utf-8"?>
<!-- Generator: Adobe Illustrator 28.3.0, SVG Export Plug-In . SVG Version: 6.00 Build 0)  -->
<svg version="1.1" id="Layer_1" xmlns="http://www.w3.org/2000/svg" xmlns:xlink="http://www.w3.org/1999/xlink" x="0px" y="0px"
	 viewBox="0 0 120 120" style="enable-background:new 0 0 120 120;" xml:space="preserve">
<style type="text/css">
	.st0{fill:#FD641A;}
	.st1{fill:#D1D1D6;}
	.st2{fill:#EAEAEF;}
	.st3{fill:#ED3800;}
</style>
<g>
	<g>
		<g id="_x31_7_x2C__Arrow_x2C__objective_x2C__target_x2C__goal_x2C__aim">
			<g>
				<g>
					<path class="st0" d="M79.36,61.58c0,10.65-8.63,19.28-19.28,19.28c-10.64,0-19.28-8.63-19.28-19.28
						c0-10.27,8.03-18.66,18.15-19.25C69.95,41.66,79.36,50.44,79.36,61.58z M68.02,61.58c0-4.39-3.55-7.94-7.94-7.94
						s-7.94,3.55-7.94,7.94c0,4.39,3.55,7.94,7.94,7.94S68.02,65.97,68.02,61.58z"/>
					<path class="st1" d="M58.94,42.3V28.71c0.38-0.01,0.76-0.02,1.13-0.02c18.17,0,32.89,14.73,32.89,32.89H79.36
						c0-10.65-8.63-19.28-19.28-19.28c-0.38,0-0.76,0.01-1.13,0.03L58.94,42.3z"/>
					<path class="st1" d="M58.94,80.83l0,0.03v13.59c-17.64-0.6-31.76-15.09-31.76-32.87h13.61C40.79,71.85,48.82,80.24,58.94,80.83
						z"/>
					<path class="st2" d="M60.08,80.86c10.65,0,19.28-8.63,19.28-19.28h13.61c0,18.17-14.73,32.89-32.89,32.89
						c-0.38,0-0.76-0.01-1.13-0.02V80.86l0-0.03C59.32,80.85,59.69,80.86,60.08,80.86z"/>
					<path class="st2" d="M58.94,42.3l0,0.03c-10.12,0.59-18.15,8.98-18.15,19.25H27.18c0-17.79,14.12-32.28,31.76-32.87L58.94,42.3
						L58.94,42.3z"/>
					<path class="st3" d="M58.94,94.45v13.62c-25.16-0.6-45.37-21.19-45.37-46.49h13.61C27.18,79.37,41.3,93.86,58.94,94.45z"/>
					<path class="st3" d="M106.58,61.58H92.97c0-18.75-15.61-33.54-34.03-32.87V15.09c0.38-0.01,0.76-0.01,1.13-0.01
						C85.76,15.07,106.58,35.9,106.58,61.58z"/>
					<path class="st0" d="M92.97,61.58h13.61c0,25.68-20.82,46.51-46.51,46.51c-0.38,0-0.76,0-1.13-0.01V94.45
						c0.38,0.01,0.76,0.02,1.13,0.02C78.24,94.47,92.97,79.75,92.97,61.58z"/>
					<path class="st0" d="M58.94,15.09v13.62C41.3,29.3,27.18,43.79,27.18,61.58H13.57C13.57,36.27,33.78,15.69,58.94,15.09z"/>
					<path d="M60.08,110.35c-0.4,0-0.79,0-1.19-0.01c-12.78-0.31-24.74-5.51-33.69-14.66c-8.96-9.17-13.9-21.27-13.9-34.1
						c0-12.82,4.94-24.93,13.9-34.1c8.95-9.15,20.91-14.36,33.69-14.66c0.39-0.01,0.79-0.01,1.19-0.01
						c13.03,0,25.28,5.07,34.49,14.29c9.21,9.21,14.29,21.46,14.29,34.49c0,13.03-5.07,25.28-14.29,34.49
						C85.35,105.28,73.1,110.35,60.08,110.35z M60.08,17.34c-0.36,0-0.72,0-1.08,0.01c-23.8,0.57-43.16,20.41-43.16,44.22
						c0,23.82,19.36,43.65,43.16,44.22c0.36,0.01,0.72,0.01,1.08,0.01c24.39,0,44.24-19.84,44.24-44.24S84.47,17.34,60.08,17.34z"/>
					<path d="M60.08,96.74c-0.4,0-0.81-0.01-1.22-0.02c-9.13-0.31-17.67-4.1-24.04-10.68c-6.39-6.59-9.9-15.28-9.9-24.46
						c0-9.18,3.52-17.87,9.9-24.46c6.37-6.58,14.91-10.37,24.05-10.68c0.4-0.01,0.81-0.02,1.21-0.02
						c19.39,0,35.16,15.77,35.16,35.16S79.47,96.74,60.08,96.74z M60.08,30.95c-0.35,0-0.7,0.01-1.05,0.02
						c-16.58,0.56-29.57,14.01-29.57,30.61c0,16.6,12.99,30.05,29.57,30.61c0.35,0.01,0.71,0.02,1.06,0.02
						c16.89,0,30.63-13.74,30.63-30.63C90.7,44.69,76.96,30.95,60.08,30.95z"/>
					<path d="M60.08,83.13c-0.43,0-0.85-0.01-1.27-0.04c-11.37-0.66-20.28-10.11-20.28-21.51c0-11.41,8.91-20.86,20.29-21.51
						c0.41-0.02,0.84-0.04,1.26-0.04c11.88,0,21.55,9.67,21.55,21.55C81.63,73.46,71.96,83.13,60.08,83.13z M60.08,44.57
						c-0.33,0-0.67,0.01-1,0.03c-8.99,0.52-16.02,7.98-16.02,16.98c0,9,7.03,16.46,16.01,16.98c0.33,0.02,0.67,0.03,1,0.03
						c9.38,0,17.01-7.63,17.01-17.01C77.09,52.2,69.46,44.57,60.08,44.57z"/>
					<path d="M60.08,71.79c-5.63,0-10.21-4.58-10.21-10.21c0-5.63,4.58-10.21,10.21-10.21s10.21,4.58,10.21,10.21
						C70.28,67.21,65.71,71.79,60.08,71.79z M60.08,55.91c-3.13,0-5.67,2.54-5.67,5.67c0,3.13,2.54,5.67,5.67,5.67
						c3.13,0,5.67-2.54,5.67-5.67C65.75,58.45,63.2,55.91,60.08,55.91z"/>
					<path d="M58.94,44.57c-1.25,0-2.27-1.02-2.27-2.27V8.27c0-1.25,1.02-2.27,2.27-2.27c1.25,0,2.27,1.02,2.27,2.27V42.3
						C61.21,43.55,60.19,44.57,58.94,44.57z"/>
					<path d="M58.94,117.16c-1.25,0-2.27-1.02-2.27-2.27V80.86c0-1.25,1.02-2.27,2.27-2.27c1.25,0,2.27,1.02,2.27,2.27v34.03
						C61.21,116.15,60.19,117.16,58.94,117.16z"/>
					<path d="M113.39,63.85H79.36c-1.25,0-2.27-1.02-2.27-2.27s1.02-2.27,2.27-2.27h34.03c1.25,0,2.27,1.02,2.27,2.27
						S114.64,63.85,113.39,63.85z"/>
					<path d="M40.79,63.85H5.63c-1.25,0-2.27-1.02-2.27-2.27s1.02-2.27,2.27-2.27h35.16c1.25,0,2.27,1.02,2.27,2.27
						S42.05,63.85,40.79,63.85z"/>
				</g>
			</g>
		</g>
	</g>
</g>
</svg>
