<?xml version="1.0" encoding="UTF-8"?>
<svg id="Layer_1" data-name="Layer 1" xmlns="http://www.w3.org/2000/svg" version="1.1" viewBox="0 0 100 100">
  <defs>
    <style>
      .cls-1 {
        fill: #08416b;
      }

      .cls-1, .cls-2, .cls-3, .cls-4 {
        stroke-width: 0px;
      }

      .cls-2 {
        fill: #fff;
      }

      .cls-3 {
        fill: #b53569;
      }

      .cls-4 {
        fill: #e6c0d4;
      }
    </style>
  </defs>
  <path class="cls-4" d="M84.26,52.35c0,9.39-7.61,17.01-17.01,17.01h-25.86c-9.39,0-17.01-7.61-17.01-17.01v-25.63c0-9.39,7.61-17.01,17.01-17.01h25.86c9.39,0,17.01,7.61,17.01,17.01v25.63Z"/>
  <path class="cls-2" d="M39.17,51.76c-1.51-1.51-3.95-1.51-5.45,0l-5.91,5.93v-28.56c0-2.13-1.73-3.86-3.86-3.86s-3.86,1.73-3.86,3.86v23.43h-1.63v-12.17c0-2.13-1.73-3.86-3.86-3.86s-3.85,1.73-3.85,3.86v12.17h-1.64v-5.76c0-2.13-1.72-3.86-3.86-3.86s-3.86,1.72-3.86,3.86v13.91s0,2.92,0,2.92c0,4.35,2.11,8.19,5.35,10.6,2.2,1.63,4.91,2.61,7.86,2.61s5.66-.98,7.86-2.61c1.33-.99,2.47-2.22,3.35-3.64l13.36-13.38c1.5-1.5,1.5-3.95,0-5.45Z"/>
  <path class="cls-1" d="M75.08,32.65c0,3.72-3.01,6.73-6.73,6.73s-6.73-3.01-6.73-6.73,3.01-6.73,6.73-6.73,6.73,3.01,6.73,6.73Z"/>
  <path class="cls-1" d="M47.03,32.65c0,3.72-3.01,6.73-6.73,6.73s-6.73-3.01-6.73-6.73c0-3.72,3.01-6.73,6.73-6.73s6.73,3.01,6.73,6.73Z"/>
  <path class="cls-3" d="M54.33,57.81c5.14,0,9.5-3.34,11.03-7.98h-22.06c1.53,4.63,5.89,7.98,11.03,7.98Z"/>
  <rect class="cls-2" x="69.91" y="87.83" width="28.7" height="4.54"/>
  <path class="cls-1" d="M87.29,68.68c0-5.28,1.58-10.13,4.21-14h-14.47c2.63,3.87,4.21,8.72,4.21,14,0,8.01-3.61,15.05-9.06,19.15h24.17c-5.46-4.1-9.06-11.14-9.06-19.15Z"/>
  <rect class="cls-2" x="77.03" y="51.01" width="14.47" height="3.67"/>
  <polygon class="cls-1" points="93.4 39.7 93.4 38.21 89.09 38.22 89.09 37.04 87.91 37.04 87.92 32.73 86.42 32.73 86.42 37.04 85.01 37.04 85.01 32.73 83.52 32.73 83.52 37.04 82.1 37.04 82.1 32.73 80.61 32.73 80.61 37.04 79.44 37.04 79.44 38.21 75.12 38.21 75.12 39.7 79.44 39.7 79.44 41.12 75.12 41.12 75.12 42.61 79.44 42.61 79.44 44.03 75.12 44.03 75.12 45.52 79.44 45.52 79.44 46.69 80.61 46.69 80.61 51.01 82.1 51.01 82.1 46.69 83.52 46.69 83.52 51.01 85.01 51.01 85.01 46.69 86.42 46.69 86.42 51.01 87.91 51.01 87.91 46.69 89.09 46.69 89.09 45.52 93.4 45.52 93.4 44.03 89.09 44.03 89.09 42.61 93.4 42.61 93.4 41.12 89.09 41.12 89.09 39.7 93.4 39.7"/>
  <rect class="cls-2" x="81.46" y="39.07" width="5.6" height="5.6"/>
</svg>