<?xml version="1.0" encoding="utf-8"?>
<!-- Generator: Adobe Illustrator 28.3.0, SVG Export Plug-In . SVG Version: 6.00 Build 0)  -->
<svg version="1.1" id="Layer_1" xmlns="http://www.w3.org/2000/svg" xmlns:xlink="http://www.w3.org/1999/xlink" x="0px" y="0px"
	 viewBox="0 0 100 100" style="enable-background:new 0 0 100 100;" xml:space="preserve">
<style type="text/css">
	.st0{fill:#DBC4AB;}
	.st1{fill:#C3A177;}
	.st2{fill:#B58E5E;}
	.st3{fill:#FFFFFF;}
</style>
<path class="st0" d="M40.48,10.06c-10.96,0-19.86,8.89-19.86,19.86v31.77c0,10.96,8.89,19.86,19.86,19.86h31.77
	c10.96,0,19.86-8.89,19.86-19.86V29.91c0-10.96-8.89-19.86-19.86-19.86H40.48z"/>
<path class="st1" d="M28.86,17.01C17.89,17.01,9,25.9,9,36.87v31.77C9,79.61,17.89,88.5,28.86,88.5h31.77
	c10.97,0,19.86-8.89,19.86-19.86V36.87c0-10.96-8.89-19.86-19.86-19.86H28.86z"/>
<path class="st2" d="M28.86,18.57c-5.05,0-9.63,2.05-12.94,5.36c-3.31,3.31-5.36,7.89-5.36,12.94v31.77c0,5.05,2.05,9.63,5.36,12.94
	c3.31,3.31,7.89,5.36,12.94,5.36h31.77c5.05,0,9.63-2.05,12.94-5.36c3.31-3.31,5.36-7.89,5.36-12.94V36.87
	c0-5.05-2.05-9.63-5.36-12.94c-3.31-3.31-7.89-5.36-12.94-5.36H28.86z M13.72,21.73c3.88-3.87,9.23-6.27,15.14-6.27h31.77
	c5.91,0,11.27,2.4,15.14,6.27c3.88,3.87,6.27,9.23,6.27,15.14v31.77c0,5.91-2.4,11.27-6.27,15.14c-3.88,3.88-9.23,6.27-15.14,6.27
	H28.86c-5.91,0-11.27-2.4-15.14-6.27c-3.87-3.87-6.27-9.23-6.27-15.14V36.87C7.44,30.96,9.84,25.6,13.72,21.73L13.72,21.73z"/>
<path class="st3" d="M44.74,32.9c10.96,0,19.86,8.89,19.86,19.86c0,10.96-8.89,19.86-19.86,19.86c-10.97,0-19.86-8.89-19.86-19.86
	C24.89,41.79,33.78,32.9,44.74,32.9z"/>
<path class="st2" d="M44.74,31.34c5.91,0,11.27,2.4,15.14,6.27c3.88,3.87,6.27,9.23,6.27,15.14c0,5.91-2.4,11.27-6.27,15.14
	c-3.87,3.88-9.23,6.27-15.14,6.27c-5.91,0-11.27-2.4-15.14-6.27c-3.88-3.88-6.27-9.23-6.27-15.14c0-5.91,2.4-11.26,6.27-15.14
	C33.48,33.74,38.83,31.34,44.74,31.34z M57.68,39.81c-3.31-3.31-7.89-5.36-12.94-5.36c-5.05,0-9.63,2.05-12.94,5.36
	c-3.31,3.31-5.36,7.89-5.36,12.94c0,5.05,2.05,9.63,5.36,12.94c3.31,3.31,7.89,5.36,12.94,5.36c5.05,0,9.63-2.05,12.94-5.36
	c3.31-3.31,5.36-7.89,5.36-12.94C63.05,47.7,61,43.13,57.68,39.81L57.68,39.81z"/>
<path class="st0" d="M44.74,40.84c-6.58,0-11.91,5.34-11.91,11.92s5.34,11.91,11.91,11.91s11.91-5.33,11.91-11.91
	S51.32,40.84,44.74,40.84L44.74,40.84z"/>
<path class="st2" d="M44.6,42.39c-2.8,0.04-5.33,1.19-7.18,3.04c-1.87,1.87-3.03,4.46-3.03,7.32c0,2.86,1.16,5.45,3.03,7.32
	c1.87,1.87,4.46,3.03,7.32,3.03c2.86,0,5.45-1.16,7.32-3.03c1.87-1.87,3.03-4.46,3.03-7.32c0-2.86-1.16-5.45-3.03-7.32l-0.07-0.08
	c-1.87-1.83-4.43-2.95-7.25-2.95L44.6,42.39z M35.22,43.23c2.4-2.4,5.71-3.9,9.37-3.94l0.23-0.01c3.64,0.02,6.94,1.49,9.35,3.86
	l0.09,0.09c2.44,2.44,3.95,5.81,3.95,9.52c0,3.72-1.51,7.09-3.95,9.52c-2.44,2.44-5.81,3.95-9.52,3.95c-3.72,0-7.09-1.51-9.52-3.95
	c-2.44-2.44-3.95-5.81-3.95-9.52C31.27,49.04,32.78,45.67,35.22,43.23L35.22,43.23z"/>
<path class="st0" d="M68.57,24.95c2.19,0,3.97,1.78,3.97,3.97c0,2.19-1.78,3.97-3.97,3.97c-2.19,0-3.97-1.78-3.97-3.97
	C64.6,26.73,66.38,24.95,68.57,24.95z"/>
<path class="st2" d="M68.57,23.4c1.52,0,2.91,0.62,3.91,1.62c1,1,1.62,2.38,1.62,3.91c0,1.52-0.62,2.9-1.62,3.9v0.01
	c-1,1-2.38,1.62-3.91,1.62c-1.52,0-2.9-0.62-3.9-1.62c-1-1-1.62-2.38-1.62-3.91c0-1.52,0.62-2.91,1.62-3.91
	C65.66,24.02,67.05,23.4,68.57,23.4L68.57,23.4z M70.28,27.22c-0.44-0.44-1.04-0.71-1.71-0.71c-0.67,0-1.27,0.27-1.71,0.71
	c-0.44,0.44-0.71,1.04-0.71,1.71c0,0.67,0.27,1.27,0.71,1.71v0.01c0.43,0.43,1.04,0.7,1.71,0.7c0.67,0,1.27-0.27,1.71-0.71
	c0.44-0.43,0.71-1.04,0.71-1.71C70.99,28.26,70.72,27.65,70.28,27.22L70.28,27.22z"/>
</svg>
