<?xml version="1.0" encoding="utf-8"?>
<!-- Generator: Adobe Illustrator 28.3.0, SVG Export Plug-In . SVG Version: 6.00 Build 0)  -->
<svg version="1.1" id="Layer_1" xmlns="http://www.w3.org/2000/svg" xmlns:xlink="http://www.w3.org/1999/xlink" x="0px" y="0px"
	 viewBox="0 0 100 100" style="enable-background:new 0 0 100 100;" xml:space="preserve">
<style type="text/css">
	.st0{fill:#DBC4AB;}
	.st1{fill:#C3A177;}
	.st2{fill:#B58E5E;}
	.st3{fill:#FFFFFF;}
	.st4{fill:#AA7D4B;}
	.st5{fill:#A57C50;}
</style>
<path class="st0" d="M15.8,27.48v62.35c0,3.04,2.87,5.52,6.38,5.53l64.12,0.16c3.51,0.01,6.38-2.49,6.38-5.53V12.06
	c0-3.04-2.87-5.53-6.38-5.53H39.96L15.8,27.48L15.8,27.48z"/>
<path class="st1" d="M17.88,5.73h60.39c3.95,0,7.19,3.23,7.19,7.19v64.42c0,3.95-3.23,7.19-7.19,7.19H17.88
	c-3.96,0-7.19-3.24-7.19-7.19V12.92C10.69,8.97,13.93,5.73,17.88,5.73z"/>
<path class="st2" d="M17.88,3.93h60.39c2.46,0,4.7,1.01,6.33,2.64c1.63,1.63,2.64,3.88,2.64,6.35v64.42c0,2.47-1.01,4.72-2.64,6.35
	c-1.63,1.63-3.87,2.64-6.33,2.64H17.88c-2.46,0-4.7-1.01-6.33-2.64c-1.63-1.63-2.64-3.88-2.64-6.35V12.92
	c0-2.47,1.01-4.72,2.64-6.35C13.18,4.94,15.42,3.93,17.88,3.93z M78.27,7.53H17.88c-1.49,0-2.85,0.61-3.83,1.58
	c-0.98,0.98-1.58,2.32-1.58,3.81v64.42c0,1.48,0.61,2.83,1.58,3.81c0.98,0.98,2.33,1.58,3.83,1.58h60.39c1.49,0,2.85-0.61,3.83-1.58
	c0.98-0.98,1.58-2.32,1.58-3.81V12.92c0-1.48-0.61-2.83-1.58-3.81C81.12,8.14,79.76,7.53,78.27,7.53L78.27,7.53z"/>
<polygon class="st5" points="38.19,57.87 38.19,59.6 39.92,59.6 39.92,63.21 38.19,63.21 38.19,64.93 34.59,64.93 34.59,63.21 
	32.86,63.21 32.86,59.6 34.59,59.6 34.59,57.87 "/>
<polygon class="st5" points="42.23,43.96 42.23,45.68 43.95,45.68 43.95,49.29 42.23,49.29 42.23,51.02 38.62,51.02 38.62,49.29 
	36.89,49.29 36.89,45.68 38.62,45.68 38.62,43.96 "/>
<polygon class="st5" points="49.37,54.28 49.37,56.01 51.1,56.01 51.1,59.62 49.37,59.62 49.37,61.34 45.76,61.34 45.76,59.62 
	44.04,59.62 44.04,56.01 45.76,56.01 45.76,54.28 "/>
<polygon class="st5" points="61.47,59.05 61.47,60.77 63.2,60.77 63.2,64.38 61.47,64.38 61.47,66.11 57.87,66.11 57.87,64.38 
	56.14,64.38 56.14,60.77 57.87,60.77 57.87,59.05 "/>
<polygon class="st5" points="55.22,41.8 55.22,43.53 56.95,43.53 56.95,47.14 55.22,47.14 55.22,48.86 51.62,48.86 51.62,47.14 
	49.89,47.14 49.89,43.53 51.62,43.53 51.62,41.8 "/>
<path class="st5" d="M69.85,64.2c-1.48-1.37-3.89,0.5-2.69,2.36c0.09,0.13,0.17,0.22,0.29,0.33l3.36,2.99l-3.36,2.99
	c-1.72,1.58,0.5,4.2,2.35,2.74c1.64-1.42,3.3-2.94,4.93-4.38c0.49-0.45,0.66-0.98,0.61-1.48l-0.01-0.08
	c-0.04-0.26-0.13-0.53-0.31-0.8c-0.09-0.13-0.18-0.22-0.29-0.33L69.85,64.2L69.85,64.2z"/>
<path class="st5" d="M21.28,43.98c-1.37,1.48,0.5,3.89,2.36,2.69c0.13-0.09,0.22-0.18,0.33-0.29l2.99-3.36l2.99,3.36
	c1.58,1.72,4.2-0.5,2.74-2.35c-1.42-1.64-2.94-3.3-4.38-4.93c-0.45-0.49-0.98-0.66-1.48-0.61l-0.08,0.01
	c-0.26,0.04-0.53,0.13-0.8,0.31c-0.13,0.09-0.22,0.18-0.33,0.29L21.28,43.98L21.28,43.98z"/>
<path class="st5" d="M25.16,40.31c0-1,0.81-1.8,1.8-1.8c1,0,1.8,0.81,1.8,1.8v27.77h44.52c1,0,1.8,0.81,1.8,1.8
	c0,1-0.81,1.8-1.8,1.8H26.96c-1,0-1.8-0.81-1.8-1.8V40.31z"/>
<path class="st5" d="M69.97,21.38c1,0,1.8,0.81,1.8,1.8c0,1-0.81,1.8-1.8,1.8H26.93c-1,0-1.8-0.81-1.8-1.8c0-1,0.81-1.8,1.8-1.8
	H69.97z M46.66,27.14c1,0,1.8,0.81,1.8,1.8c0,1-0.81,1.8-1.8,1.8H26.93c-1,0-1.8-0.81-1.8-1.8c0-1,0.81-1.8,1.8-1.8H46.66z
	 M37.83,15.25c1,0,1.8,0.81,1.8,1.8c0,1-0.81,1.8-1.8,1.8h-10.9c-1,0-1.8-0.81-1.8-1.8c0-1,0.81-1.8,1.8-1.8H37.83z"/>
</svg>
