<?xml version="1.0" encoding="utf-8"?>
<!-- Generator: Adobe Illustrator 28.3.0, SVG Export Plug-In . SVG Version: 6.00 Build 0)  -->
<svg version="1.1" id="Layer_1" xmlns="http://www.w3.org/2000/svg" xmlns:xlink="http://www.w3.org/1999/xlink" x="0px" y="0px"
	 viewBox="0 0 100 100" style="enable-background:new 0 0 100 100;" xml:space="preserve">
<style type="text/css">
	.st0{fill:#DBC4AB;}
	.st1{fill:#C3A177;}
	.st2{fill:#B58E5E;}
	.st3{fill:#FFFFFF;}
	.st4{fill:#AA7D4B;}
	.st5{fill:#A57C50;}
</style>
<path class="st0" d="M50.8,97.78c-16.55,0-29.96-13.41-29.96-29.96S34.25,37.86,50.8,37.86c16.55,0,29.96,13.41,29.96,29.96
	S67.34,97.78,50.8,97.78z"/>
<path class="st1" d="M50.99,89.5c-15.3,0-27.71-12.41-27.71-27.71c0-15.3,12.41-27.71,27.71-27.71c15.3,0,27.71,12.41,27.71,27.71
	C78.7,77.1,66.29,89.5,50.99,89.5z"/>
<path class="st2" d="M50.99,90.61c-7.96,0-15.16-3.23-20.37-8.44c-5.21-5.21-8.44-12.42-8.44-20.37c0-7.96,3.23-15.16,8.44-20.38
	c5.21-5.21,12.42-8.44,20.38-8.44c7.96,0,15.16,3.23,20.38,8.44c5.21,5.21,8.44,12.42,8.44,20.38c0,7.96-3.23,15.16-8.44,20.37
	C66.15,87.39,58.95,90.61,50.99,90.61z M32.18,80.61c4.81,4.81,11.46,7.79,18.81,7.79c7.35,0,14-2.98,18.81-7.79
	c4.81-4.81,7.79-11.46,7.79-18.81c0-7.35-2.98-14-7.79-18.81c-4.81-4.81-11.46-7.79-18.81-7.79c-7.35,0-14,2.98-18.81,7.79
	c-4.81,4.81-7.79,11.46-7.79,18.81C24.39,69.14,27.37,75.79,32.18,80.61z"/>
<path class="st5" d="M48.98,49.56v-5.37c0-0.61,0.5-1.11,1.11-1.11c0.61,0,1.11,0.5,1.11,1.11v5.37h7.54c0.61,0,1.11,0.5,1.11,1.11
	c0,0.61-0.5,1.11-1.11,1.11H45.87c-1.56,0-2.56,1.04-3,2.37c-0.19,0.58-0.29,1.22-0.29,1.86c0,0.64,0.1,1.28,0.3,1.87
	c0.47,1.41,1.53,2.51,3.15,2.51h1.73c0.08-0.02,0.16-0.03,0.24-0.03h7.93c2.74,0,4.49,1.77,5.25,4.03c0.27,0.81,0.41,1.69,0.42,2.57
	c0,0.88-0.13,1.75-0.4,2.56c-0.73,2.19-2.42,3.89-5.1,3.89h-4.94c0.01,0.07,0.02,0.15,0.02,0.22v5.77c0,0.61-0.5,1.11-1.11,1.11
	c-0.61,0-1.11-0.5-1.11-1.11v-5.77c0-0.08,0.01-0.15,0.02-0.22h-5.76c-0.61,0-1.11-0.5-1.11-1.11c0-0.61,0.5-1.11,1.11-1.11h12.86
	c1.56,0,2.56-1.04,3-2.37c0.19-0.58,0.29-1.22,0.29-1.86v0c0-0.64-0.1-1.28-0.3-1.87c-0.47-1.41-1.53-2.51-3.16-2.51h-1.73
	c-0.08,0.02-0.16,0.03-0.24,0.03h-7.93c-2.74,0-4.49-1.77-5.25-4.03c-0.27-0.81-0.41-1.69-0.42-2.57c0-0.87,0.13-1.75,0.4-2.55
	c0.73-2.19,2.42-3.89,5.09-3.89H48.98L48.98,49.56z"/>
<path class="st2" d="M64.24,31.87c0,0.61-0.5,1.11-1.11,1.11c-0.61,0-1.11-0.5-1.11-1.11V16.61c0-0.61,0.5-1.11,1.11-1.11
	c0.61,0,1.11,0.5,1.11,1.11V31.87z M52.1,29.03c0,0.61-0.5,1.11-1.11,1.11c-0.61,0-1.11-0.5-1.11-1.11V2.78
	c0-0.61,0.5-1.11,1.11-1.11c0.61,0,1.11,0.5,1.11,1.11V29.03z M39.96,31.87c0,0.61-0.5,1.11-1.11,1.11c-0.61,0-1.11-0.5-1.11-1.11
	V16.61c0-0.61,0.5-1.11,1.11-1.11c0.61,0,1.11,0.5,1.11,1.11V31.87z"/>
</svg>
