<?xml version="1.0" encoding="utf-8"?>
<!-- Generator: Adobe Illustrator 28.3.0, SVG Export Plug-In . SVG Version: 6.00 Build 0)  -->
<svg version="1.1" id="Layer_1" xmlns="http://www.w3.org/2000/svg" xmlns:xlink="http://www.w3.org/1999/xlink" x="0px" y="0px"
	 viewBox="0 0 100 100" style="enable-background:new 0 0 100 100;" xml:space="preserve">
<style type="text/css">
	.st0{fill:#DBC4AB;}
	.st1{fill:#C3A177;}
	.st2{fill:#B58E5E;}
	.st3{fill:#FFFFFF;}
	.st4{fill:#AA7D4B;}
</style>
<path class="st0" d="M76.05,48.64h-1.25v19.83c0,3.12-2.55,5.66-5.66,5.66h0c-2.44,0-4.53-1.56-5.32-3.73L37.15,52.73H18.71V66.2
	c0,2.17-1.78,3.94-3.94,3.94h0c-2.17,0-3.94-1.77-3.94-3.94V30.03c0-2.17,1.77-3.94,3.94-3.94h0h22.38l26.8-17.57
	c0.88-2,2.87-3.4,5.19-3.4h0h0c3.12,0,5.66,2.55,5.66,5.66V30.6h1.25c3.48,0,6.33,2.85,6.33,6.34v5.37
	C82.39,45.79,79.54,48.64,76.05,48.64L76.05,48.64z"/>
<path class="st2" d="M84.85,50.56c-0.73,0-1.32-0.59-1.32-1.32c0-0.73,0.59-1.32,1.32-1.32h11.55c0.73,0,1.32,0.59,1.32,1.32
	c0,0.73-0.59,1.32-1.32,1.32H84.85z M79.14,61.7c-0.52-0.52-0.52-1.35,0-1.87c0.52-0.52,1.35-0.52,1.87,0L89.17,68
	c0.52,0.52,0.52,1.35,0,1.87c-0.52,0.52-1.35,0.52-1.87,0L79.14,61.7L79.14,61.7z M81.01,38.64c-0.52,0.52-1.35,0.52-1.87,0
	c-0.52-0.52-0.52-1.35,0-1.87l8.17-8.17c0.52-0.52,1.35-0.52,1.87,0c0.52,0.52,0.52,1.35,0,1.87L81.01,38.64z"/>
<path class="st0" d="M68.84,58.26h-2.49c-3.48,0-6.33-2.85-6.33-6.33v-5.38c0-3.48,2.85-6.33,6.33-6.33h2.49
	c3.48,0,6.33,2.85,6.33,6.33v5.38C75.18,55.41,72.33,58.26,68.84,58.26z"/>
<path class="st2" d="M68.84,59.58h-2.49c-2.11,0-4.02-0.86-5.41-2.25c-1.39-1.39-2.25-3.3-2.25-5.41v-5.38
	c0-2.11,0.86-4.02,2.25-5.41c1.39-1.39,3.3-2.25,5.41-2.25h2.49c2.11,0,4.02,0.86,5.41,2.25c1.39,1.39,2.25,3.3,2.25,5.41v5.38
	c0,2.11-0.86,4.02-2.25,5.41C72.87,58.72,70.95,59.58,68.84,59.58L68.84,59.58z M66.35,56.94h2.49c1.38,0,2.63-0.56,3.54-1.47
	c0.91-0.91,1.47-2.16,1.47-3.54v-5.38c0-1.38-0.56-2.63-1.47-3.54c-0.91-0.91-2.16-1.47-3.54-1.47h-2.49
	c-1.38,0-2.63,0.56-3.54,1.47c-0.91,0.91-1.47,2.16-1.47,3.54v5.38c0,1.38,0.56,2.63,1.47,3.54S64.98,56.94,66.35,56.94L66.35,56.94
	z"/>
<polygon class="st1" points="29.94,62.35 7.56,62.35 7.56,35.71 29.94,35.71 "/>
<path class="st2" d="M29.94,63.67H7.56c-0.73,0-1.32-0.59-1.32-1.32V35.71c0-0.73,0.59-1.32,1.32-1.32h22.39
	c0.73,0,1.32,0.59,1.32,1.32v26.64C31.26,63.08,30.67,63.67,29.94,63.67z M8.88,61.03h19.74v-24H8.88V61.03z"/>
<polygon class="st1" points="29.94,62.35 61.93,83.54 61.93,14.73 29.94,35.71 "/>
<path class="st2" d="M31.26,61.64l29.35,19.44V17.17L31.26,36.42V61.64z M61.21,84.64L29.29,63.5c-0.4-0.23-0.67-0.66-0.67-1.15
	V35.71c0-0.43,0.21-0.85,0.6-1.1l31.94-20.94c0.22-0.16,0.49-0.25,0.78-0.25c0.73,0,1.32,0.59,1.32,1.32v68.81
	c0,0.25-0.07,0.5-0.22,0.73C62.63,84.87,61.81,85.04,61.21,84.64L61.21,84.64z"/>
<path class="st1" d="M61.93,83.75L61.93,83.75c-3.12,0-5.66-2.55-5.66-5.66V20.39c0-3.12,2.55-5.66,5.66-5.66l0,0
	c3.12,0,5.66,2.55,5.66,5.66v57.69C67.6,81.2,65.05,83.75,61.93,83.75z"/>
<path class="st2" d="M61.93,85.07c-1.92,0-3.67-0.79-4.93-2.05c-1.27-1.27-2.05-3.01-2.05-4.94V20.39c0-1.92,0.79-3.67,2.05-4.93
	c1.27-1.27,3.01-2.05,4.93-2.05c1.92,0,3.67,0.79,4.94,2.05c1.27,1.27,2.05,3.01,2.05,4.93v57.69c0,1.92-0.79,3.67-2.05,4.94
	C65.6,84.28,63.86,85.07,61.93,85.07z M58.87,81.15c0.79,0.79,1.87,1.28,3.07,1.28c1.19,0,2.28-0.49,3.07-1.28
	c0.79-0.79,1.28-1.87,1.28-3.07V20.39c0-1.19-0.49-2.28-1.28-3.07c-0.79-0.79-1.87-1.28-3.07-1.28c-1.19,0-2.28,0.49-3.07,1.28
	c-0.79,0.79-1.28,1.87-1.28,3.07v57.69C57.59,79.28,58.08,80.36,58.87,81.15z"/>
<path class="st2" d="M7.56,79.76L7.56,79.76c-2.17,0-3.94-1.77-3.94-3.94V39.65c0-2.17,1.77-3.94,3.94-3.94l0,0
	c2.17,0,3.94,1.77,3.94,3.94v36.17C11.5,77.99,9.73,79.76,7.56,79.76z"/>
<path class="st4" d="M7.56,81.09c-1.45,0-2.76-0.59-3.72-1.55c-0.96-0.95-1.55-2.27-1.55-3.72V39.65c0-1.45,0.59-2.77,1.55-3.72l0,0
	c0.96-0.95,2.27-1.55,3.72-1.55c1.45,0,2.77,0.59,3.72,1.55l0.01,0c0.95,0.95,1.55,2.27,1.55,3.72v36.17c0,1.45-0.59,2.77-1.55,3.72
	l-0.08,0.08C10.25,80.53,8.97,81.09,7.56,81.09L7.56,81.09z M5.71,77.66c0.47,0.47,1.13,0.77,1.85,0.77c0.69,0,1.32-0.27,1.79-0.71
	l0.05-0.05c0.47-0.47,0.77-1.13,0.77-1.84V39.65c0-0.72-0.29-1.37-0.77-1.85c-0.47-0.47-1.13-0.77-1.85-0.77s-1.37,0.29-1.85,0.77
	c-0.47,0.47-0.77,1.13-0.77,1.85v36.17C4.94,76.54,5.24,77.19,5.71,77.66L5.71,77.66z"/>
</svg>
