<?xml version="1.0" encoding="UTF-8"?>
<svg xmlns="http://www.w3.org/2000/svg" version="1.1" xmlns:xlink="http://www.w3.org/1999/xlink" viewBox="0 0 600 557.8">
  <defs>
    <style>
      .cls-1 {
        fill: #c3a177;
      }

      .cls-2, .cls-3, .cls-4, .cls-5 {
        mix-blend-mode: color-dodge;
      }

      .cls-3, .cls-5 {
        stroke: #fff;
      }

      .cls-3, .cls-5, .cls-6 {
        fill: none;
        stroke-linecap: round;
        stroke-linejoin: round;
      }

      .cls-3, .cls-6 {
        stroke-width: 1px;
      }

      .cls-7 {
        isolation: isolate;
      }

      .cls-4 {
        fill: url(#radial-gradient);
      }

      .cls-8 {
        fill: #fff;
        font-family: Roboto-Bold, Roboto;
        font-size: 68.9px;
        font-weight: 700;
      }

      .cls-5 {
        stroke-width: .58px;
      }

      .cls-6 {
        stroke: #c3a177;
      }
    </style>
    <radialGradient id="radial-gradient" cx="6363.61" cy="4893.69" fx="6363.61" fy="4893.69" r="82.8" gradientTransform="translate(-4587.43 6611.12) rotate(-90)" gradientUnits="userSpaceOnUse">
      <stop offset="0" stop-color="#4d4d4d"/>
      <stop offset="1" stop-color="#000"/>
    </radialGradient>
  </defs>
  <!-- Generator: Adobe Illustrator 28.6.0, SVG Export Plug-In . SVG Version: 1.2.0 Build 594)  -->
  <g class="cls-7">
    <g id="Layer_1">
      <g>
        <g>
          <polyline class="cls-6" points="220.44 325.76 156.22 325.76 137.57 344.41 24.34 344.41"/>
          <polyline class="cls-6" points="220.44 309.19 124.46 309.19 108.34 293.07 24.34 293.07"/>
          <line class="cls-6" x1="118.94" y1="323" x2="24.34" y2="323"/>
          <polyline class="cls-6" points="220.44 290.07 141.03 290.07 115.38 264.41 22.96 264.41"/>
          <polyline class="cls-6" points="24.34 241.58 126.19 241.58 156.22 271.62 220.09 271.62"/>
          <line class="cls-6" x1="220.09" y1="251.19" x2="167.96" y2="251.19"/>
          <polyline class="cls-6" points="220.09 233.24 145.87 233.24 114.86 202.23 21.58 202.23"/>
          <line class="cls-6" x1="220.09" y1="213.21" x2="177.63" y2="213.21"/>
          <line class="cls-6" x1="153.81" y1="209.93" x2="116.35" y2="172.47"/>
          <polyline class="cls-6" points="220.09 194.56 167.96 194.56 124.02 150.62 24.34 150.62"/>
          <line class="cls-6" x1="220.44" y1="172.47" x2="167.96" y2="172.47"/>
          <line class="cls-6" x1="208.64" y1="75.35" x2="208.64" y2="17.36"/>
          <line class="cls-6" x1="227.29" y1="158.22" x2="227.29" y2="94"/>
          <polyline class="cls-6" points="243.86 158.22 243.86 62.24 259.98 46.12 259.98 17.36"/>
          <line class="cls-6" x1="230.05" y1="56.72" x2="230.05" y2="17.36"/>
          <polyline class="cls-6" points="262.99 158.22 262.99 78.81 288.64 53.16 288.64 18.05"/>
          <line class="cls-6" x1="281.44" y1="94" x2="281.44" y2="157.87"/>
          <line class="cls-6" x1="323.04" y1="17.36" x2="323.04" y2="56.37"/>
          <polyline class="cls-6" points="301.86 157.87 301.86 105.74 301.86 17.36"/>
          <polyline class="cls-6" points="319.82 157.87 319.82 83.64 350.82 52.64 350.82 18.05"/>
          <line class="cls-6" x1="339.84" y1="157.87" x2="339.84" y2="115.41"/>
          <polyline class="cls-6" points="343.12 91.58 380.58 54.13 380.58 17.36"/>
          <polyline class="cls-6" points="358.5 157.87 358.5 105.74 402.44 61.8 402.44 17.36"/>
          <line class="cls-6" x1="380.58" y1="158.22" x2="380.58" y2="105.74"/>
          <polyline class="cls-6" points="384.39 335.29 384.39 399.51 403.04 418.16"/>
          <polyline class="cls-6" points="367.82 335.29 367.82 431.27 351.7 447.39"/>
          <line class="cls-6" x1="381.63" y1="436.8" x2="381.63" y2="538.3"/>
          <polyline class="cls-6" points="348.7 335.29 348.7 414.7 323.04 440.35 323.04 538.3"/>
          <polyline class="cls-6" points="300.21 538.3 300.21 429.54 330.25 399.51 330.25 335.64"/>
          <line class="cls-6" x1="309.82" y1="335.64" x2="309.82" y2="387.77"/>
          <polyline class="cls-6" points="291.87 335.64 291.87 409.87 260.86 440.87 260.86 538.3"/>
          <line class="cls-6" x1="271.84" y1="335.64" x2="271.84" y2="378.1"/>
          <polyline class="cls-6" points="268.56 401.93 231.1 439.38 231.1 538.3"/>
          <polyline class="cls-6" points="253.19 335.64 253.19 387.77 209.25 431.71 209.25 538.3"/>
          <line class="cls-6" x1="231.1" y1="335.29" x2="231.1" y2="387.77"/>
          <polyline class="cls-6" points="395.44 328.44 459.66 328.44 478.31 347.09 577.73 347.09"/>
          <polyline class="cls-6" points="395.44 311.87 491.42 311.87 507.54 295.75 577.73 295.75"/>
          <line class="cls-6" x1="496.94" y1="325.68" x2="577.73" y2="325.68"/>
          <polyline class="cls-6" points="395.44 292.74 474.85 292.74 500.5 267.09 577.04 267.09"/>
          <polyline class="cls-6" points="577.73 244.26 489.69 244.26 459.66 274.29 395.79 274.29"/>
          <line class="cls-6" x1="395.79" y1="253.87" x2="447.92" y2="253.87"/>
          <polyline class="cls-6" points="395.79 235.91 470.02 235.91 501.02 204.91 577.04 204.91"/>
          <line class="cls-6" x1="395.79" y1="215.89" x2="438.25" y2="215.89"/>
          <line class="cls-6" x1="462.07" y1="212.61" x2="499.53" y2="175.15"/>
          <polyline class="cls-6" points="395.79 197.24 447.92 197.24 491.86 153.29 577.73 153.29"/>
          <line class="cls-6" x1="395.44" y1="175.15" x2="447.92" y2="175.15"/>
        </g>
        <g>
          <path class="cls-5" d="M368.35,189.65v115.73l-4.22,4.22h-115.73l-4.22-4.22v-115.73l4.22-4.22h115.73l4.22,4.22Z"/>
          <path class="cls-3" d="M414.47,146.66v201.7l-7.36,7.36h-201.7l-7.36-7.36v-201.7l7.36-7.36h201.7l7.36,7.36Z"/>
          <g class="cls-2">
            <path class="cls-4" d="M389.06,172.75v149.54c-3.14,3.14-4.89,4.89-8.03,8.03h-149.54l-8.03-8.03v-149.54l8.03-8.03h149.54l8.03,8.03Z"/>
          </g>
        </g>
        <path class="cls-1" d="M26.18,264.41c0,1.78-1.44,3.22-3.22,3.22s-3.22-1.44-3.22-3.22,1.44-3.22,3.22-3.22,3.22,1.44,3.22,3.22Z"/>
        <path class="cls-1" d="M26.18,241.58c0,1.78-1.44,3.22-3.22,3.22s-3.22-1.44-3.22-3.22,1.44-3.22,3.22-3.22,3.22,1.44,3.22,3.22Z"/>
        <path class="cls-1" d="M580.26,244.26c0,1.78-1.44,3.22-3.22,3.22s-3.22-1.44-3.22-3.22,1.44-3.22,3.22-3.22,3.22,1.44,3.22,3.22Z"/>
        <path class="cls-1" d="M580.26,204.91c0,1.78-1.44,3.22-3.22,3.22s-3.22-1.44-3.22-3.22,1.44-3.22,3.22-3.22,3.22,1.44,3.22,3.22Z"/>
        <path class="cls-1" d="M580.26,153.29c0,1.78-1.44,3.22-3.22,3.22s-3.22-1.44-3.22-3.22,1.44-3.22,3.22-3.22,3.22,1.44,3.22,3.22Z"/>
        <path class="cls-1" d="M405.66,15.33c0,1.78-1.44,3.22-3.22,3.22s-3.22-1.44-3.22-3.22,1.44-3.22,3.22-3.22,3.22,1.44,3.22,3.22Z"/>
        <path class="cls-1" d="M383.69,15.33c0,1.78-1.44,3.22-3.22,3.22s-3.22-1.44-3.22-3.22,1.44-3.22,3.22-3.22,3.22,1.44,3.22,3.22Z"/>
        <path class="cls-1" d="M354.05,15.33c0,1.78-1.44,3.22-3.22,3.22s-3.22-1.44-3.22-3.22,1.44-3.22,3.22-3.22,3.22,1.44,3.22,3.22Z"/>
        <path class="cls-1" d="M326.27,15.33c0,1.78-1.44,3.22-3.22,3.22s-3.22-1.44-3.22-3.22,1.44-3.22,3.22-3.22,3.22,1.44,3.22,3.22Z"/>
        <path class="cls-1" d="M305.09,15.33c0,1.78-1.44,3.22-3.22,3.22s-3.22-1.44-3.22-3.22,1.44-3.22,3.22-3.22,3.22,1.44,3.22,3.22Z"/>
        <path class="cls-1" d="M291.86,15.33c0,1.78-1.44,3.22-3.22,3.22s-3.22-1.44-3.22-3.22,1.44-3.22,3.22-3.22,3.22,1.44,3.22,3.22Z"/>
        <path class="cls-1" d="M263.21,15.33c0,1.78-1.44,3.22-3.22,3.22s-3.22-1.44-3.22-3.22,1.44-3.22,3.22-3.22,3.22,1.44,3.22,3.22Z"/>
        <path class="cls-1" d="M233.28,15.33c0,1.78-1.44,3.22-3.22,3.22s-3.22-1.44-3.22-3.22,1.44-3.22,3.22-3.22,3.22,1.44,3.22,3.22Z"/>
        <path class="cls-1" d="M211.86,15.33c0,1.78-1.44,3.22-3.22,3.22s-3.22-1.44-3.22-3.22,1.44-3.22,3.22-3.22,3.22,1.44,3.22,3.22Z"/>
        <path class="cls-1" d="M580.26,267.09c0,1.78-1.44,3.22-3.22,3.22s-3.22-1.44-3.22-3.22,1.44-3.22,3.22-3.22,3.22,1.44,3.22,3.22Z"/>
        <path class="cls-1" d="M580.26,295.75c0,1.78-1.44,3.22-3.22,3.22s-3.22-1.44-3.22-3.22,1.44-3.22,3.22-3.22,3.22,1.44,3.22,3.22Z"/>
        <path class="cls-1" d="M580.26,325.68c0,1.78-1.44,3.22-3.22,3.22s-3.22-1.44-3.22-3.22,1.44-3.22,3.22-3.22,3.22,1.44,3.22,3.22Z"/>
        <path class="cls-1" d="M580.26,347.09c0,1.78-1.44,3.22-3.22,3.22s-3.22-1.44-3.22-3.22,1.44-3.22,3.22-3.22,3.22,1.44,3.22,3.22Z"/>
        <path class="cls-1" d="M26.18,293.07c0,1.78-1.44,3.22-3.22,3.22s-3.22-1.44-3.22-3.22,1.44-3.22,3.22-3.22,3.22,1.44,3.22,3.22Z"/>
        <path class="cls-1" d="M26.18,323c0,1.78-1.44,3.22-3.22,3.22s-3.22-1.44-3.22-3.22,1.44-3.22,3.22-3.22,3.22,1.44,3.22,3.22Z"/>
        <path class="cls-1" d="M26.18,344.41c0,1.78-1.44,3.22-3.22,3.22s-3.22-1.44-3.22-3.22,1.44-3.22,3.22-3.22,3.22,1.44,3.22,3.22Z"/>
        <path class="cls-1" d="M26.18,202.23c0,1.78-1.44,3.22-3.22,3.22s-3.22-1.44-3.22-3.22,1.44-3.22,3.22-3.22,3.22,1.44,3.22,3.22Z"/>
        <path class="cls-1" d="M26.18,150.62c0,1.78-1.44,3.22-3.22,3.22s-3.22-1.44-3.22-3.22,1.44-3.22,3.22-3.22,3.22,1.44,3.22,3.22Z"/>
        <text class="cls-8" transform="translate(273.95 270.41)"><tspan x="0" y="0">Ai</tspan></text>
      </g>
    </g>
  </g>
</svg>