<?xml version="1.0" encoding="utf-8"?>
<!-- Generator: Adobe Illustrator 28.3.0, SVG Export Plug-In . SVG Version: 6.00 Build 0)  -->
<svg version="1.1" id="Layer_1" xmlns="http://www.w3.org/2000/svg" xmlns:xlink="http://www.w3.org/1999/xlink" x="0px" y="0px"
	 viewBox="0 0 15.67 100" style="enable-background:new 0 0 15.67 100;" xml:space="preserve">
<style type="text/css">
	.st0{fill:#D1AF77;}
</style>
<g>
	<g>
		<g>
			<g>
				<g>
					<g>
						<g>
							<polygon class="st0" points="0.72,93.51 7.74,86.49 15.06,93.81 15.06,98.77 7.74,91.45 0.72,98.47 							"/>
						</g>
					</g>
				</g>
			</g>
		</g>
		<g>
			<g>
				<g>
					<g>
						<g>
							<polygon class="st0" points="0.72,81.36 7.74,74.34 15.06,81.66 15.06,86.63 7.74,79.31 0.72,86.33 							"/>
						</g>
					</g>
				</g>
			</g>
		</g>
		<g>
			<g>
				<g>
					<g>
						<g>
							<polygon class="st0" points="0.72,69.22 7.74,62.2 15.06,69.52 15.06,74.49 7.74,67.17 0.72,74.18 							"/>
						</g>
					</g>
				</g>
			</g>
		</g>
		<g>
			<g>
				<g>
					<g>
						<g>
							<polygon class="st0" points="0.72,57.07 7.74,50.06 15.06,57.38 15.06,62.34 7.74,55.02 0.72,62.04 							"/>
						</g>
					</g>
				</g>
			</g>
		</g>
	</g>
	<g>
		<g>
			<g>
				<g>
					<g>
						<g>
							<polygon class="st0" points="0.72,44.79 7.74,37.77 15.06,45.09 15.06,50.06 7.74,42.74 0.72,49.75 							"/>
						</g>
					</g>
				</g>
			</g>
		</g>
		<g>
			<g>
				<g>
					<g>
						<g>
							<polygon class="st0" points="0.72,32.64 7.74,25.63 15.06,32.95 15.06,37.91 7.74,30.59 0.72,37.61 							"/>
						</g>
					</g>
				</g>
			</g>
		</g>
		<g>
			<g>
				<g>
					<g>
						<g>
							<polygon class="st0" points="0.72,20.5 7.74,13.48 15.06,20.8 15.06,25.77 7.74,18.45 0.72,25.47 							"/>
						</g>
					</g>
				</g>
			</g>
		</g>
		<g>
			<g>
				<g>
					<g>
						<g>
							<polygon class="st0" points="0.72,8.36 7.74,1.34 15.06,8.66 15.06,13.62 7.74,6.3 0.72,13.32 							"/>
						</g>
					</g>
				</g>
			</g>
		</g>
	</g>
</g>
</svg>
